M48
;DRILL file {PCBnew (20100406 SVN-R2508)-final} date 01/06/2010 22:01:37
;FORMAT={-.-/ absolute / metric / decimal}
R,T
VER,1
FMAT,2
METRIC,TZ
TCST,OFF
ICI,OFF
ATC,ON
T1C0.635
T2C0.813
T3C1.016
T4C1.524
T5C3.048
%
M47
G05
M71
T1
X139.954Y94.234
X139.954Y111.125
X146.431Y94.107
X148.971Y95.123
X149.860Y104.902
X155.321Y102.743
X157.099Y117.221
X157.226Y115.697
X157.988Y107.696
X160.274Y105.156
X160.274Y106.553
X164.592Y107.823
X165.862Y107.061
X179.705Y105.664
X181.356Y116.713
X182.372Y111.125
X187.706Y112.268
X188.722Y100.457
T2
X121.666Y103.378
X121.666Y107.188
X129.286Y109.601
X130.810Y84.709
X130.810Y92.329
X131.826Y107.061
X131.826Y109.601
X135.890Y84.709
X135.890Y92.329
X141.478Y91.059
X144.018Y91.059
X146.050Y114.808
X146.050Y118.618
X146.558Y91.059
X149.098Y91.059
X152.654Y120.523
X152.654Y125.476
X155.194Y120.523
X155.194Y125.476
X155.448Y91.059
X157.734Y120.523
X157.734Y125.476
X157.988Y91.059
X160.274Y120.523
X160.274Y125.476
X160.528Y91.059
X162.814Y120.523
X162.814Y125.476
X163.068Y91.059
X165.354Y120.523
X165.354Y125.476
X169.164Y84.963
X169.164Y87.503
X169.164Y90.043
X169.164Y92.583
X169.164Y120.523
X171.704Y120.523
X172.720Y103.251
X172.720Y108.331
X174.244Y120.523
X176.784Y84.963
X176.784Y87.503
X176.784Y90.043
X176.784Y92.583
X176.784Y120.523
X182.245Y120.523
X184.785Y120.523
T3
X137.414Y99.441
X137.414Y101.981
X137.414Y104.521
X139.954Y99.441
X139.954Y101.981
X139.954Y104.521
X141.478Y85.979
X141.478Y88.519
X144.018Y85.979
X144.018Y88.519
X146.558Y85.979
X146.558Y88.519
X149.098Y85.979
X149.098Y88.519
X155.448Y85.979
X155.448Y88.519
X157.988Y85.979
X157.988Y88.519
X160.528Y85.979
X160.528Y88.519
X163.068Y85.979
X163.068Y88.519
X196.342Y97.917
X196.342Y100.711
X196.342Y103.378
X196.342Y106.172
X196.342Y108.966
X198.882Y99.314
X198.882Y102.108
X198.882Y104.775
X198.882Y107.569
T4
X121.920Y114.173
X121.920Y119.253
T5
X198.882Y90.805
X198.882Y116.205
T0
M30
