G04 (created by PCBnew (20090216-final)) date 29/11/2009 15:57:37*
G01*
G70*
G90*
%MOIN*%
G04 Gerber Fmt 3.4, Leading zero omitted, Abs format*
%FSLAX34Y34*%
G04 APERTURE LIST*
%ADD10C,0.012000*%
%ADD11R,0.100000X0.100000*%
%ADD12C,0.100000*%
%ADD13R,0.055000X0.055000*%
%ADD14C,0.055000*%
%ADD15R,0.060000X0.060000*%
%ADD16C,0.060000*%
%ADD17R,0.055000X0.035000*%
%ADD18C,0.070000*%
%ADD19C,0.150000*%
%ADD20C,0.025000*%
%ADD21C,0.030000*%
%ADD22C,0.012000*%
%ADD23C,0.010000*%
%ADD24R,0.070900X0.062900*%
%ADD25R,0.062900X0.070900*%
%ADD26R,0.035000X0.055000*%
%ADD27R,0.060000X0.080000*%
%ADD28R,0.078700X0.017700*%
%ADD29R,0.017700X0.078700*%
%ADD30R,0.045000X0.020000*%
%ADD31C,0.017000*%
%ADD32C,0.005000*%
%ADD33C,0.015000*%
%ADD34C,0.002600*%
%ADD35C,0.004000*%
%ADD36C,0.008000*%
%ADD37C,0.006000*%
%ADD38C,0.001000*%
%ADD39C,0.003500*%
G04 APERTURE END LIST*
G54D10*
X71543Y-49350D02*
X71543Y-50150D01*
X71543Y-50150D02*
X72077Y-50150D01*
X72396Y-50150D02*
X72396Y-49350D01*
X72329Y-49350D02*
X72729Y-49350D01*
X72729Y-49350D02*
X72796Y-49439D01*
X72796Y-49439D02*
X72796Y-50062D01*
X72796Y-50062D02*
X72729Y-50150D01*
X72729Y-50150D02*
X72329Y-50150D01*
X73115Y-50150D02*
X73115Y-49350D01*
X73115Y-49350D02*
X73515Y-49350D01*
X73515Y-49350D02*
X73582Y-49439D01*
X73582Y-49439D02*
X73582Y-49706D01*
X73582Y-49706D02*
X73515Y-49795D01*
X73515Y-49795D02*
X73115Y-49795D01*
X73315Y-49795D02*
X73582Y-50150D01*
X73968Y-50150D02*
X73901Y-50062D01*
X73901Y-50062D02*
X73901Y-49439D01*
X73901Y-49439D02*
X73968Y-49350D01*
X73968Y-49350D02*
X74301Y-49350D01*
X74301Y-49350D02*
X74368Y-49439D01*
X74368Y-49439D02*
X74368Y-50062D01*
X74368Y-50062D02*
X74301Y-50150D01*
X74301Y-50150D02*
X73968Y-50150D01*
X74687Y-50150D02*
X74687Y-49350D01*
X74687Y-49350D02*
X75087Y-49350D01*
X75087Y-49350D02*
X75154Y-49439D01*
X75154Y-49439D02*
X75154Y-49617D01*
X75154Y-49617D02*
X75087Y-49706D01*
X75087Y-49706D02*
X74687Y-49706D01*
X75087Y-49706D02*
X75154Y-49884D01*
X75154Y-49884D02*
X75154Y-50062D01*
X75154Y-50062D02*
X75087Y-50150D01*
X75087Y-50150D02*
X74687Y-50150D01*
X75540Y-50150D02*
X75473Y-50062D01*
X75473Y-50062D02*
X75473Y-49439D01*
X75473Y-49439D02*
X75540Y-49350D01*
X75540Y-49350D02*
X75873Y-49350D01*
X75873Y-49350D02*
X75940Y-49439D01*
X75940Y-49439D02*
X75940Y-50062D01*
X75940Y-50062D02*
X75873Y-50150D01*
X75873Y-50150D02*
X75540Y-50150D01*
X76259Y-49350D02*
X76793Y-49350D01*
X76526Y-49350D02*
X76526Y-50150D01*
X77245Y-50150D02*
X77245Y-50062D01*
X78298Y-50062D02*
X78231Y-50150D01*
X78231Y-50150D02*
X77898Y-50150D01*
X77898Y-50150D02*
X77831Y-50062D01*
X77831Y-50062D02*
X77831Y-49439D01*
X77831Y-49439D02*
X77898Y-49350D01*
X77898Y-49350D02*
X78231Y-49350D01*
X78231Y-49350D02*
X78298Y-49439D01*
X78684Y-50150D02*
X78617Y-50062D01*
X78617Y-50062D02*
X78617Y-49439D01*
X78617Y-49439D02*
X78684Y-49350D01*
X78684Y-49350D02*
X79017Y-49350D01*
X79017Y-49350D02*
X79084Y-49439D01*
X79084Y-49439D02*
X79084Y-50062D01*
X79084Y-50062D02*
X79017Y-50150D01*
X79017Y-50150D02*
X78684Y-50150D01*
X79403Y-50150D02*
X79403Y-49350D01*
X79403Y-49350D02*
X79670Y-49706D01*
X79670Y-49706D02*
X79937Y-49350D01*
X79937Y-49350D02*
X79937Y-50150D01*
X66126Y-49256D02*
X66126Y-49200D01*
X66126Y-49200D02*
X65849Y-49200D01*
X65849Y-49200D02*
X65793Y-49256D01*
X65793Y-49256D02*
X65793Y-49645D01*
X65793Y-49645D02*
X65849Y-49700D01*
X65849Y-49700D02*
X66126Y-49700D01*
X66126Y-49700D02*
X66182Y-49645D01*
X66182Y-49645D02*
X66182Y-49478D01*
X66182Y-49478D02*
X66015Y-49478D01*
X66468Y-49700D02*
X66468Y-49200D01*
X66468Y-49200D02*
X66857Y-49700D01*
X66857Y-49700D02*
X66857Y-49200D01*
X67199Y-49700D02*
X67199Y-49200D01*
X67143Y-49200D02*
X67476Y-49200D01*
X67476Y-49200D02*
X67532Y-49256D01*
X67532Y-49256D02*
X67532Y-49645D01*
X67532Y-49645D02*
X67476Y-49700D01*
X67476Y-49700D02*
X67143Y-49700D01*
G54D33*
X80800Y-32500D02*
X48550Y-32500D01*
X80800Y-50750D02*
X80800Y-32500D01*
X46100Y-50750D02*
X80800Y-50750D01*
X46100Y-35000D02*
X46100Y-50750D01*
X48550Y-32550D02*
X46100Y-35000D01*
G54D10*
X47980Y-36100D02*
X48247Y-36700D01*
X48247Y-36700D02*
X48514Y-36100D01*
X49233Y-36700D02*
X48766Y-36700D01*
X48766Y-36700D02*
X48766Y-36500D01*
X48766Y-36500D02*
X48833Y-36434D01*
X48833Y-36434D02*
X49166Y-36434D01*
X49166Y-36434D02*
X49233Y-36367D01*
X49233Y-36367D02*
X49233Y-36167D01*
X49233Y-36167D02*
X49166Y-36100D01*
X49166Y-36100D02*
X48833Y-36100D01*
X48833Y-36100D02*
X48766Y-36167D01*
X47244Y-35384D02*
X47311Y-35450D01*
X47311Y-35450D02*
X47644Y-35450D01*
X47644Y-35450D02*
X47711Y-35384D01*
X47711Y-35384D02*
X47711Y-35184D01*
X47711Y-35184D02*
X47644Y-35117D01*
X47644Y-35117D02*
X47311Y-35117D01*
X47311Y-35117D02*
X47244Y-35050D01*
X47244Y-35050D02*
X47244Y-34917D01*
X47244Y-34917D02*
X47311Y-34850D01*
X47311Y-34850D02*
X47644Y-34850D01*
X47644Y-34850D02*
X47711Y-34917D01*
X48030Y-35384D02*
X48097Y-35450D01*
X48097Y-35450D02*
X48430Y-35450D01*
X48430Y-35450D02*
X48497Y-35384D01*
X48497Y-35384D02*
X48497Y-35184D01*
X48497Y-35184D02*
X48430Y-35117D01*
X48430Y-35117D02*
X48097Y-35117D01*
X48097Y-35117D02*
X48030Y-35050D01*
X48030Y-35050D02*
X48030Y-34917D01*
X48030Y-34917D02*
X48097Y-34850D01*
X48097Y-34850D02*
X48430Y-34850D01*
X48430Y-34850D02*
X48497Y-34917D01*
X49283Y-35384D02*
X49216Y-35450D01*
X49216Y-35450D02*
X48883Y-35450D01*
X48883Y-35450D02*
X48816Y-35384D01*
X48816Y-35384D02*
X48816Y-34917D01*
X48816Y-34917D02*
X48883Y-34850D01*
X48883Y-34850D02*
X49216Y-34850D01*
X49216Y-34850D02*
X49283Y-34917D01*
X49669Y-35450D02*
X49602Y-35384D01*
X49602Y-35384D02*
X49602Y-35184D01*
X49602Y-35184D02*
X49669Y-35117D01*
X49669Y-35117D02*
X50002Y-35117D01*
X50002Y-35117D02*
X50069Y-35050D01*
X50069Y-35050D02*
X50069Y-34917D01*
X50069Y-34917D02*
X50002Y-34850D01*
X50002Y-34850D02*
X49669Y-34850D01*
X49669Y-34850D02*
X49602Y-34917D01*
X49602Y-34917D02*
X49602Y-35050D01*
X49602Y-35050D02*
X49669Y-35117D01*
X50002Y-35117D02*
X50069Y-35184D01*
X50069Y-35184D02*
X50069Y-35384D01*
X50069Y-35384D02*
X50002Y-35450D01*
X50002Y-35450D02*
X49669Y-35450D01*
X64074Y-33150D02*
X64018Y-33095D01*
X64018Y-33095D02*
X64018Y-32928D01*
X64018Y-32928D02*
X64074Y-32873D01*
X64074Y-32873D02*
X64351Y-32873D01*
X64351Y-32873D02*
X64407Y-32817D01*
X64407Y-32817D02*
X64407Y-32706D01*
X64407Y-32706D02*
X64351Y-32650D01*
X64351Y-32650D02*
X64074Y-32650D01*
X64074Y-32650D02*
X64018Y-32706D01*
X64018Y-32706D02*
X64018Y-32817D01*
X64018Y-32817D02*
X64074Y-32873D01*
X64351Y-32873D02*
X64407Y-32928D01*
X64407Y-32928D02*
X64407Y-33095D01*
X64407Y-33095D02*
X64351Y-33150D01*
X64351Y-33150D02*
X64074Y-33150D01*
X63068Y-32700D02*
X63457Y-32700D01*
X63457Y-32700D02*
X63068Y-33200D01*
X62407Y-32756D02*
X62351Y-32700D01*
X62351Y-32700D02*
X62074Y-32700D01*
X62074Y-32700D02*
X62018Y-32756D01*
X62018Y-32756D02*
X62018Y-33145D01*
X62018Y-33145D02*
X62074Y-33200D01*
X62074Y-33200D02*
X62351Y-33200D01*
X62351Y-33200D02*
X62407Y-33145D01*
X62407Y-33145D02*
X62407Y-32978D01*
X62407Y-32978D02*
X62351Y-32923D01*
X62351Y-32923D02*
X62074Y-32923D01*
X62074Y-32923D02*
X62018Y-32978D01*
X61018Y-33089D02*
X61018Y-33145D01*
X61018Y-33145D02*
X61074Y-33200D01*
X61074Y-33200D02*
X61351Y-33200D01*
X61351Y-33200D02*
X61407Y-33145D01*
X61407Y-33145D02*
X61407Y-32978D01*
X61407Y-32978D02*
X61296Y-32867D01*
X61296Y-32867D02*
X61018Y-32867D01*
X61018Y-32867D02*
X61018Y-32700D01*
X61018Y-32700D02*
X61407Y-32700D01*
X58746Y-33200D02*
X58746Y-32700D01*
X58746Y-32700D02*
X58468Y-33089D01*
X58468Y-33089D02*
X58857Y-33089D01*
X57518Y-32700D02*
X57907Y-32700D01*
X57907Y-32700D02*
X57907Y-32756D01*
X57907Y-32756D02*
X57685Y-32923D01*
X57685Y-32923D02*
X57851Y-32923D01*
X57851Y-32923D02*
X57907Y-32978D01*
X57907Y-32978D02*
X57907Y-33145D01*
X57907Y-33145D02*
X57851Y-33200D01*
X57851Y-33200D02*
X57574Y-33200D01*
X57574Y-33200D02*
X57518Y-33145D01*
X56957Y-33200D02*
X56568Y-33200D01*
X56568Y-33200D02*
X56568Y-33034D01*
X56568Y-33034D02*
X56624Y-32978D01*
X56624Y-32978D02*
X56901Y-32978D01*
X56901Y-32978D02*
X56957Y-32923D01*
X56957Y-32923D02*
X56957Y-32756D01*
X56957Y-32756D02*
X56901Y-32700D01*
X56901Y-32700D02*
X56624Y-32700D01*
X56624Y-32700D02*
X56568Y-32756D01*
X55579Y-33150D02*
X55801Y-33150D01*
X55690Y-33150D02*
X55690Y-32650D01*
X55690Y-32706D02*
X55579Y-32817D01*
X53423Y-42095D02*
X53823Y-42095D01*
X53623Y-42362D02*
X53623Y-41828D01*
X46745Y-43660D02*
X46745Y-43327D01*
X46573Y-48395D02*
X46973Y-48395D01*
X46773Y-48662D02*
X46773Y-48128D01*
X65357Y-48306D02*
X65301Y-48250D01*
X65301Y-48250D02*
X65024Y-48250D01*
X65024Y-48250D02*
X64968Y-48306D01*
X64968Y-48306D02*
X64968Y-48695D01*
X64968Y-48695D02*
X65024Y-48750D01*
X65024Y-48750D02*
X65301Y-48750D01*
X65301Y-48750D02*
X65357Y-48695D01*
X65357Y-48695D02*
X65357Y-48528D01*
X65357Y-48528D02*
X65301Y-48473D01*
X65301Y-48473D02*
X65024Y-48473D01*
X65024Y-48473D02*
X64968Y-48528D01*
X63968Y-48589D02*
X63968Y-48645D01*
X63968Y-48645D02*
X64024Y-48700D01*
X64024Y-48700D02*
X64301Y-48700D01*
X64301Y-48700D02*
X64357Y-48645D01*
X64357Y-48645D02*
X64357Y-48478D01*
X64357Y-48478D02*
X64246Y-48367D01*
X64246Y-48367D02*
X63968Y-48367D01*
X63968Y-48367D02*
X63968Y-48200D01*
X63968Y-48200D02*
X64357Y-48200D01*
X63146Y-48700D02*
X63146Y-48200D01*
X63146Y-48200D02*
X62868Y-48589D01*
X62868Y-48589D02*
X63257Y-48589D01*
X61868Y-48200D02*
X62257Y-48200D01*
X62257Y-48200D02*
X62257Y-48256D01*
X62257Y-48256D02*
X62035Y-48423D01*
X62035Y-48423D02*
X62201Y-48423D01*
X62201Y-48423D02*
X62257Y-48478D01*
X62257Y-48478D02*
X62257Y-48645D01*
X62257Y-48645D02*
X62201Y-48700D01*
X62201Y-48700D02*
X61924Y-48700D01*
X61924Y-48700D02*
X61868Y-48645D01*
X61307Y-48700D02*
X60918Y-48700D01*
X60918Y-48700D02*
X60918Y-48534D01*
X60918Y-48534D02*
X60974Y-48478D01*
X60974Y-48478D02*
X61251Y-48478D01*
X61251Y-48478D02*
X61307Y-48423D01*
X61307Y-48423D02*
X61307Y-48256D01*
X61307Y-48256D02*
X61251Y-48200D01*
X61251Y-48200D02*
X60974Y-48200D01*
X60974Y-48200D02*
X60918Y-48256D01*
X59979Y-48700D02*
X60201Y-48700D01*
X60090Y-48700D02*
X60090Y-48200D01*
X60090Y-48256D02*
X59979Y-48367D01*
X66373Y-48445D02*
X66773Y-48445D01*
X66573Y-48712D02*
X66573Y-48178D01*
X49000Y-43950D02*
X49000Y-47950D01*
X49500Y-43950D02*
X46500Y-43950D01*
X46500Y-43950D02*
X46500Y-47950D01*
X46500Y-47950D02*
X49500Y-47950D01*
X49500Y-47950D02*
X49500Y-43950D01*
G54D33*
X49650Y-41450D02*
X49616Y-41789D01*
X49616Y-41789D02*
X49517Y-42116D01*
X49517Y-42116D02*
X49357Y-42418D01*
X49357Y-42418D02*
X49141Y-42683D01*
X49141Y-42683D02*
X48878Y-42900D01*
X48878Y-42900D02*
X48578Y-43063D01*
X48578Y-43063D02*
X48251Y-43164D01*
X48251Y-43164D02*
X47912Y-43199D01*
X47912Y-43199D02*
X47573Y-43169D01*
X47573Y-43169D02*
X47245Y-43072D01*
X47245Y-43072D02*
X46942Y-42914D01*
X46942Y-42914D02*
X46676Y-42700D01*
X46676Y-42700D02*
X46457Y-42438D01*
X46457Y-42438D02*
X46292Y-42139D01*
X46292Y-42139D02*
X46189Y-41813D01*
X46189Y-41813D02*
X46151Y-41474D01*
X46151Y-41474D02*
X46179Y-41135D01*
X46179Y-41135D02*
X46273Y-40806D01*
X46273Y-40806D02*
X46430Y-40503D01*
X46430Y-40503D02*
X46642Y-40235D01*
X46642Y-40235D02*
X46902Y-40013D01*
X46902Y-40013D02*
X47200Y-39847D01*
X47200Y-39847D02*
X47525Y-39741D01*
X47525Y-39741D02*
X47864Y-39701D01*
X47864Y-39701D02*
X48203Y-39727D01*
X48203Y-39727D02*
X48532Y-39819D01*
X48532Y-39819D02*
X48837Y-39973D01*
X48837Y-39973D02*
X49106Y-40183D01*
X49106Y-40183D02*
X49330Y-40442D01*
X49330Y-40442D02*
X49498Y-40739D01*
X49498Y-40739D02*
X49606Y-41063D01*
X49606Y-41063D02*
X49649Y-41402D01*
X49649Y-41402D02*
X49650Y-41450D01*
X59250Y-45950D02*
X59216Y-46289D01*
X59216Y-46289D02*
X59117Y-46616D01*
X59117Y-46616D02*
X58957Y-46918D01*
X58957Y-46918D02*
X58741Y-47183D01*
X58741Y-47183D02*
X58478Y-47400D01*
X58478Y-47400D02*
X58178Y-47563D01*
X58178Y-47563D02*
X57851Y-47664D01*
X57851Y-47664D02*
X57512Y-47699D01*
X57512Y-47699D02*
X57173Y-47669D01*
X57173Y-47669D02*
X56845Y-47572D01*
X56845Y-47572D02*
X56542Y-47414D01*
X56542Y-47414D02*
X56276Y-47200D01*
X56276Y-47200D02*
X56057Y-46938D01*
X56057Y-46938D02*
X55892Y-46639D01*
X55892Y-46639D02*
X55789Y-46313D01*
X55789Y-46313D02*
X55751Y-45974D01*
X55751Y-45974D02*
X55779Y-45635D01*
X55779Y-45635D02*
X55873Y-45306D01*
X55873Y-45306D02*
X56030Y-45003D01*
X56030Y-45003D02*
X56242Y-44735D01*
X56242Y-44735D02*
X56502Y-44513D01*
X56502Y-44513D02*
X56800Y-44347D01*
X56800Y-44347D02*
X57125Y-44241D01*
X57125Y-44241D02*
X57464Y-44201D01*
X57464Y-44201D02*
X57803Y-44227D01*
X57803Y-44227D02*
X58132Y-44319D01*
X58132Y-44319D02*
X58437Y-44473D01*
X58437Y-44473D02*
X58706Y-44683D01*
X58706Y-44683D02*
X58930Y-44942D01*
X58930Y-44942D02*
X59098Y-45239D01*
X59098Y-45239D02*
X59206Y-45563D01*
X59206Y-45563D02*
X59249Y-45902D01*
X59249Y-45902D02*
X59250Y-45950D01*
G54D23*
X68600Y-32950D02*
X68600Y-33450D01*
X68600Y-33450D02*
X67600Y-33450D01*
X67600Y-33450D02*
X67600Y-32950D01*
X69100Y-32950D02*
X69100Y-36950D01*
X69100Y-36950D02*
X67100Y-36950D01*
X67100Y-36950D02*
X67100Y-32950D01*
X67100Y-32950D02*
X69100Y-32950D01*
G54D34*
X54939Y-45239D02*
X54939Y-45161D01*
X54939Y-45161D02*
X54861Y-45161D01*
X54861Y-45239D02*
X54861Y-45161D01*
X54939Y-45239D02*
X54861Y-45239D01*
X55175Y-45023D02*
X55175Y-44886D01*
X55175Y-44886D02*
X55077Y-44886D01*
X55077Y-45023D02*
X55077Y-44886D01*
X55175Y-45023D02*
X55077Y-45023D01*
X55175Y-44886D02*
X55175Y-44846D01*
X55175Y-44846D02*
X54704Y-44846D01*
X54704Y-44886D02*
X54704Y-44846D01*
X55175Y-44886D02*
X54704Y-44886D01*
X54684Y-44886D02*
X54684Y-44846D01*
X54684Y-44846D02*
X54625Y-44846D01*
X54625Y-44886D02*
X54625Y-44846D01*
X54684Y-44886D02*
X54625Y-44886D01*
X55175Y-45554D02*
X55175Y-45514D01*
X55175Y-45514D02*
X54704Y-45514D01*
X54704Y-45554D02*
X54704Y-45514D01*
X55175Y-45554D02*
X54704Y-45554D01*
X54684Y-45554D02*
X54684Y-45514D01*
X54684Y-45514D02*
X54625Y-45514D01*
X54625Y-45554D02*
X54625Y-45514D01*
X54684Y-45554D02*
X54625Y-45554D01*
X55175Y-45023D02*
X55175Y-44964D01*
X55175Y-44964D02*
X55077Y-44964D01*
X55077Y-45023D02*
X55077Y-44964D01*
X55175Y-45023D02*
X55077Y-45023D01*
G54D35*
X55195Y-44590D02*
X55195Y-45810D01*
X55195Y-45810D02*
X54605Y-45810D01*
X54605Y-45810D02*
X54605Y-44590D01*
X54605Y-44590D02*
X55195Y-44590D01*
X55096Y-45415D02*
X55137Y-45369D01*
X55137Y-45369D02*
X55167Y-45317D01*
X55167Y-45317D02*
X55185Y-45259D01*
X55185Y-45259D02*
X55191Y-45198D01*
X55191Y-45198D02*
X55184Y-45138D01*
X55184Y-45138D02*
X55165Y-45080D01*
X55165Y-45080D02*
X55134Y-45027D01*
X55134Y-45027D02*
X55093Y-44982D01*
X55093Y-44982D02*
X55044Y-44947D01*
X55044Y-44947D02*
X54988Y-44923D01*
X54988Y-44923D02*
X54928Y-44910D01*
X54928Y-44910D02*
X54868Y-44911D01*
X54868Y-44911D02*
X54808Y-44924D01*
X54808Y-44924D02*
X54753Y-44949D01*
X54753Y-44949D02*
X54704Y-44985D01*
X54704Y-44985D02*
X54663Y-45031D01*
X54663Y-45031D02*
X54633Y-45083D01*
X54633Y-45083D02*
X54615Y-45141D01*
X54615Y-45141D02*
X54609Y-45202D01*
X54609Y-45202D02*
X54616Y-45262D01*
X54616Y-45262D02*
X54635Y-45320D01*
X54635Y-45320D02*
X54666Y-45373D01*
X54666Y-45373D02*
X54707Y-45418D01*
X54707Y-45418D02*
X54756Y-45453D01*
X54756Y-45453D02*
X54812Y-45477D01*
X54812Y-45477D02*
X54872Y-45490D01*
X54872Y-45490D02*
X54932Y-45489D01*
X54932Y-45489D02*
X54992Y-45476D01*
X54992Y-45476D02*
X55047Y-45451D01*
X55047Y-45451D02*
X55096Y-45415D01*
X55096Y-45415D02*
X55137Y-45369D01*
X55137Y-45369D02*
X55167Y-45317D01*
X55167Y-45317D02*
X55185Y-45259D01*
X55185Y-45259D02*
X55191Y-45198D01*
X55191Y-45198D02*
X55184Y-45138D01*
X55184Y-45138D02*
X55165Y-45080D01*
X55165Y-45080D02*
X55134Y-45027D01*
X55134Y-45027D02*
X55095Y-44984D01*
X54704Y-45415D02*
X54753Y-45451D01*
X54753Y-45451D02*
X54809Y-45476D01*
X54809Y-45476D02*
X54868Y-45489D01*
X54868Y-45489D02*
X54929Y-45490D01*
X54929Y-45490D02*
X54988Y-45477D01*
X54988Y-45477D02*
X55044Y-45453D01*
X55044Y-45453D02*
X55094Y-45417D01*
X55094Y-45417D02*
X55135Y-45372D01*
X55135Y-45372D02*
X55165Y-45320D01*
X55165Y-45320D02*
X55184Y-45262D01*
X55184Y-45262D02*
X55191Y-45202D01*
X55191Y-45202D02*
X55185Y-45141D01*
X55185Y-45141D02*
X55166Y-45083D01*
X55166Y-45083D02*
X55136Y-45030D01*
X55136Y-45030D02*
X55096Y-44985D01*
X55096Y-44985D02*
X55047Y-44949D01*
X55047Y-44949D02*
X54991Y-44924D01*
X54991Y-44924D02*
X54932Y-44911D01*
X54932Y-44911D02*
X54871Y-44910D01*
X54871Y-44910D02*
X54812Y-44923D01*
X54812Y-44923D02*
X54756Y-44947D01*
X54756Y-44947D02*
X54706Y-44983D01*
X54706Y-44983D02*
X54665Y-45028D01*
X54665Y-45028D02*
X54635Y-45080D01*
X54635Y-45080D02*
X54616Y-45138D01*
X54616Y-45138D02*
X54609Y-45198D01*
X54609Y-45198D02*
X54615Y-45259D01*
X54615Y-45259D02*
X54634Y-45317D01*
X54634Y-45317D02*
X54664Y-45370D01*
X54664Y-45370D02*
X54704Y-45415D01*
X54704Y-45415D02*
X54753Y-45451D01*
X54753Y-45451D02*
X54809Y-45476D01*
X54809Y-45476D02*
X54868Y-45489D01*
X54868Y-45489D02*
X54929Y-45490D01*
X54929Y-45490D02*
X54988Y-45477D01*
X54988Y-45477D02*
X55044Y-45453D01*
X55044Y-45453D02*
X55094Y-45417D01*
X55094Y-45417D02*
X55095Y-45416D01*
X54704Y-44985D02*
X54663Y-45031D01*
X54663Y-45031D02*
X54633Y-45083D01*
X54633Y-45083D02*
X54615Y-45141D01*
X54615Y-45141D02*
X54609Y-45202D01*
X54609Y-45202D02*
X54616Y-45262D01*
X54616Y-45262D02*
X54635Y-45320D01*
X54635Y-45320D02*
X54666Y-45373D01*
X54666Y-45373D02*
X54707Y-45418D01*
X54707Y-45418D02*
X54756Y-45453D01*
X54756Y-45453D02*
X54812Y-45477D01*
X54812Y-45477D02*
X54872Y-45490D01*
X54872Y-45490D02*
X54932Y-45489D01*
X54932Y-45489D02*
X54992Y-45476D01*
X54992Y-45476D02*
X55047Y-45451D01*
X55047Y-45451D02*
X55096Y-45415D01*
X55096Y-45415D02*
X55137Y-45369D01*
X55137Y-45369D02*
X55167Y-45317D01*
X55167Y-45317D02*
X55185Y-45259D01*
X55185Y-45259D02*
X55191Y-45198D01*
X55191Y-45198D02*
X55184Y-45138D01*
X55184Y-45138D02*
X55165Y-45080D01*
X55165Y-45080D02*
X55134Y-45027D01*
X55134Y-45027D02*
X55093Y-44982D01*
X55093Y-44982D02*
X55044Y-44947D01*
X55044Y-44947D02*
X54988Y-44923D01*
X54988Y-44923D02*
X54928Y-44910D01*
X54928Y-44910D02*
X54868Y-44911D01*
X54868Y-44911D02*
X54808Y-44924D01*
X54808Y-44924D02*
X54753Y-44949D01*
X54753Y-44949D02*
X54704Y-44985D01*
X54704Y-44985D02*
X54663Y-45031D01*
X54663Y-45031D02*
X54633Y-45083D01*
X54633Y-45083D02*
X54615Y-45141D01*
X54615Y-45141D02*
X54609Y-45202D01*
X54609Y-45202D02*
X54616Y-45262D01*
X54616Y-45262D02*
X54635Y-45320D01*
X54635Y-45320D02*
X54666Y-45373D01*
X54666Y-45373D02*
X54705Y-45416D01*
X55096Y-44985D02*
X55047Y-44949D01*
X55047Y-44949D02*
X54991Y-44924D01*
X54991Y-44924D02*
X54932Y-44911D01*
X54932Y-44911D02*
X54871Y-44910D01*
X54871Y-44910D02*
X54812Y-44923D01*
X54812Y-44923D02*
X54756Y-44947D01*
X54756Y-44947D02*
X54706Y-44983D01*
X54706Y-44983D02*
X54665Y-45028D01*
X54665Y-45028D02*
X54635Y-45080D01*
X54635Y-45080D02*
X54616Y-45138D01*
X54616Y-45138D02*
X54609Y-45198D01*
X54609Y-45198D02*
X54615Y-45259D01*
X54615Y-45259D02*
X54634Y-45317D01*
X54634Y-45317D02*
X54664Y-45370D01*
X54664Y-45370D02*
X54704Y-45415D01*
X54704Y-45415D02*
X54753Y-45451D01*
X54753Y-45451D02*
X54809Y-45476D01*
X54809Y-45476D02*
X54868Y-45489D01*
X54868Y-45489D02*
X54929Y-45490D01*
X54929Y-45490D02*
X54988Y-45477D01*
X54988Y-45477D02*
X55044Y-45453D01*
X55044Y-45453D02*
X55094Y-45417D01*
X55094Y-45417D02*
X55135Y-45372D01*
X55135Y-45372D02*
X55165Y-45320D01*
X55165Y-45320D02*
X55184Y-45262D01*
X55184Y-45262D02*
X55191Y-45202D01*
X55191Y-45202D02*
X55185Y-45141D01*
X55185Y-45141D02*
X55166Y-45083D01*
X55166Y-45083D02*
X55136Y-45030D01*
X55136Y-45030D02*
X55096Y-44985D01*
X55096Y-44985D02*
X55047Y-44949D01*
X55047Y-44949D02*
X54991Y-44924D01*
X54991Y-44924D02*
X54932Y-44911D01*
X54932Y-44911D02*
X54871Y-44910D01*
X54871Y-44910D02*
X54812Y-44923D01*
X54812Y-44923D02*
X54756Y-44947D01*
X54756Y-44947D02*
X54706Y-44983D01*
X54706Y-44983D02*
X54705Y-44984D01*
G54D34*
X47739Y-38311D02*
X47661Y-38311D01*
X47661Y-38311D02*
X47661Y-38389D01*
X47739Y-38389D02*
X47661Y-38389D01*
X47739Y-38311D02*
X47739Y-38389D01*
X47523Y-38075D02*
X47386Y-38075D01*
X47386Y-38075D02*
X47386Y-38173D01*
X47523Y-38173D02*
X47386Y-38173D01*
X47523Y-38075D02*
X47523Y-38173D01*
X47386Y-38075D02*
X47346Y-38075D01*
X47346Y-38075D02*
X47346Y-38546D01*
X47386Y-38546D02*
X47346Y-38546D01*
X47386Y-38075D02*
X47386Y-38546D01*
X47386Y-38566D02*
X47346Y-38566D01*
X47346Y-38566D02*
X47346Y-38625D01*
X47386Y-38625D02*
X47346Y-38625D01*
X47386Y-38566D02*
X47386Y-38625D01*
X48054Y-38075D02*
X48014Y-38075D01*
X48014Y-38075D02*
X48014Y-38546D01*
X48054Y-38546D02*
X48014Y-38546D01*
X48054Y-38075D02*
X48054Y-38546D01*
X48054Y-38566D02*
X48014Y-38566D01*
X48014Y-38566D02*
X48014Y-38625D01*
X48054Y-38625D02*
X48014Y-38625D01*
X48054Y-38566D02*
X48054Y-38625D01*
X47523Y-38075D02*
X47464Y-38075D01*
X47464Y-38075D02*
X47464Y-38173D01*
X47523Y-38173D02*
X47464Y-38173D01*
X47523Y-38075D02*
X47523Y-38173D01*
G54D35*
X47090Y-38055D02*
X48310Y-38055D01*
X48310Y-38055D02*
X48310Y-38645D01*
X48310Y-38645D02*
X47090Y-38645D01*
X47090Y-38645D02*
X47090Y-38055D01*
X47915Y-38154D02*
X47869Y-38113D01*
X47869Y-38113D02*
X47817Y-38083D01*
X47817Y-38083D02*
X47759Y-38065D01*
X47759Y-38065D02*
X47698Y-38059D01*
X47698Y-38059D02*
X47638Y-38066D01*
X47638Y-38066D02*
X47580Y-38085D01*
X47580Y-38085D02*
X47527Y-38116D01*
X47527Y-38116D02*
X47482Y-38157D01*
X47482Y-38157D02*
X47447Y-38206D01*
X47447Y-38206D02*
X47423Y-38262D01*
X47423Y-38262D02*
X47410Y-38322D01*
X47410Y-38322D02*
X47411Y-38382D01*
X47411Y-38382D02*
X47424Y-38442D01*
X47424Y-38442D02*
X47449Y-38497D01*
X47449Y-38497D02*
X47485Y-38546D01*
X47485Y-38546D02*
X47531Y-38587D01*
X47531Y-38587D02*
X47583Y-38617D01*
X47583Y-38617D02*
X47641Y-38635D01*
X47641Y-38635D02*
X47702Y-38641D01*
X47702Y-38641D02*
X47762Y-38634D01*
X47762Y-38634D02*
X47820Y-38615D01*
X47820Y-38615D02*
X47873Y-38584D01*
X47873Y-38584D02*
X47918Y-38543D01*
X47918Y-38543D02*
X47953Y-38494D01*
X47953Y-38494D02*
X47977Y-38438D01*
X47977Y-38438D02*
X47990Y-38378D01*
X47990Y-38378D02*
X47989Y-38318D01*
X47989Y-38318D02*
X47976Y-38258D01*
X47976Y-38258D02*
X47951Y-38203D01*
X47951Y-38203D02*
X47915Y-38154D01*
X47915Y-38154D02*
X47869Y-38113D01*
X47869Y-38113D02*
X47817Y-38083D01*
X47817Y-38083D02*
X47759Y-38065D01*
X47759Y-38065D02*
X47698Y-38059D01*
X47698Y-38059D02*
X47638Y-38066D01*
X47638Y-38066D02*
X47580Y-38085D01*
X47580Y-38085D02*
X47527Y-38116D01*
X47527Y-38116D02*
X47484Y-38155D01*
X47915Y-38546D02*
X47951Y-38497D01*
X47951Y-38497D02*
X47976Y-38441D01*
X47976Y-38441D02*
X47989Y-38382D01*
X47989Y-38382D02*
X47990Y-38321D01*
X47990Y-38321D02*
X47977Y-38262D01*
X47977Y-38262D02*
X47953Y-38206D01*
X47953Y-38206D02*
X47917Y-38156D01*
X47917Y-38156D02*
X47872Y-38115D01*
X47872Y-38115D02*
X47820Y-38085D01*
X47820Y-38085D02*
X47762Y-38066D01*
X47762Y-38066D02*
X47702Y-38059D01*
X47702Y-38059D02*
X47641Y-38065D01*
X47641Y-38065D02*
X47583Y-38084D01*
X47583Y-38084D02*
X47530Y-38114D01*
X47530Y-38114D02*
X47485Y-38154D01*
X47485Y-38154D02*
X47449Y-38203D01*
X47449Y-38203D02*
X47424Y-38259D01*
X47424Y-38259D02*
X47411Y-38318D01*
X47411Y-38318D02*
X47410Y-38379D01*
X47410Y-38379D02*
X47423Y-38438D01*
X47423Y-38438D02*
X47447Y-38494D01*
X47447Y-38494D02*
X47483Y-38544D01*
X47483Y-38544D02*
X47528Y-38585D01*
X47528Y-38585D02*
X47580Y-38615D01*
X47580Y-38615D02*
X47638Y-38634D01*
X47638Y-38634D02*
X47698Y-38641D01*
X47698Y-38641D02*
X47759Y-38635D01*
X47759Y-38635D02*
X47817Y-38616D01*
X47817Y-38616D02*
X47870Y-38586D01*
X47870Y-38586D02*
X47915Y-38546D01*
X47915Y-38546D02*
X47951Y-38497D01*
X47951Y-38497D02*
X47976Y-38441D01*
X47976Y-38441D02*
X47989Y-38382D01*
X47989Y-38382D02*
X47990Y-38321D01*
X47990Y-38321D02*
X47977Y-38262D01*
X47977Y-38262D02*
X47953Y-38206D01*
X47953Y-38206D02*
X47917Y-38156D01*
X47917Y-38156D02*
X47916Y-38155D01*
X47485Y-38546D02*
X47531Y-38587D01*
X47531Y-38587D02*
X47583Y-38617D01*
X47583Y-38617D02*
X47641Y-38635D01*
X47641Y-38635D02*
X47702Y-38641D01*
X47702Y-38641D02*
X47762Y-38634D01*
X47762Y-38634D02*
X47820Y-38615D01*
X47820Y-38615D02*
X47873Y-38584D01*
X47873Y-38584D02*
X47918Y-38543D01*
X47918Y-38543D02*
X47953Y-38494D01*
X47953Y-38494D02*
X47977Y-38438D01*
X47977Y-38438D02*
X47990Y-38378D01*
X47990Y-38378D02*
X47989Y-38318D01*
X47989Y-38318D02*
X47976Y-38258D01*
X47976Y-38258D02*
X47951Y-38203D01*
X47951Y-38203D02*
X47915Y-38154D01*
X47915Y-38154D02*
X47869Y-38113D01*
X47869Y-38113D02*
X47817Y-38083D01*
X47817Y-38083D02*
X47759Y-38065D01*
X47759Y-38065D02*
X47698Y-38059D01*
X47698Y-38059D02*
X47638Y-38066D01*
X47638Y-38066D02*
X47580Y-38085D01*
X47580Y-38085D02*
X47527Y-38116D01*
X47527Y-38116D02*
X47482Y-38157D01*
X47482Y-38157D02*
X47447Y-38206D01*
X47447Y-38206D02*
X47423Y-38262D01*
X47423Y-38262D02*
X47410Y-38322D01*
X47410Y-38322D02*
X47411Y-38382D01*
X47411Y-38382D02*
X47424Y-38442D01*
X47424Y-38442D02*
X47449Y-38497D01*
X47449Y-38497D02*
X47485Y-38546D01*
X47485Y-38546D02*
X47531Y-38587D01*
X47531Y-38587D02*
X47583Y-38617D01*
X47583Y-38617D02*
X47641Y-38635D01*
X47641Y-38635D02*
X47702Y-38641D01*
X47702Y-38641D02*
X47762Y-38634D01*
X47762Y-38634D02*
X47820Y-38615D01*
X47820Y-38615D02*
X47873Y-38584D01*
X47873Y-38584D02*
X47916Y-38545D01*
X47485Y-38154D02*
X47449Y-38203D01*
X47449Y-38203D02*
X47424Y-38259D01*
X47424Y-38259D02*
X47411Y-38318D01*
X47411Y-38318D02*
X47410Y-38379D01*
X47410Y-38379D02*
X47423Y-38438D01*
X47423Y-38438D02*
X47447Y-38494D01*
X47447Y-38494D02*
X47483Y-38544D01*
X47483Y-38544D02*
X47528Y-38585D01*
X47528Y-38585D02*
X47580Y-38615D01*
X47580Y-38615D02*
X47638Y-38634D01*
X47638Y-38634D02*
X47698Y-38641D01*
X47698Y-38641D02*
X47759Y-38635D01*
X47759Y-38635D02*
X47817Y-38616D01*
X47817Y-38616D02*
X47870Y-38586D01*
X47870Y-38586D02*
X47915Y-38546D01*
X47915Y-38546D02*
X47951Y-38497D01*
X47951Y-38497D02*
X47976Y-38441D01*
X47976Y-38441D02*
X47989Y-38382D01*
X47989Y-38382D02*
X47990Y-38321D01*
X47990Y-38321D02*
X47977Y-38262D01*
X47977Y-38262D02*
X47953Y-38206D01*
X47953Y-38206D02*
X47917Y-38156D01*
X47917Y-38156D02*
X47872Y-38115D01*
X47872Y-38115D02*
X47820Y-38085D01*
X47820Y-38085D02*
X47762Y-38066D01*
X47762Y-38066D02*
X47702Y-38059D01*
X47702Y-38059D02*
X47641Y-38065D01*
X47641Y-38065D02*
X47583Y-38084D01*
X47583Y-38084D02*
X47530Y-38114D01*
X47530Y-38114D02*
X47485Y-38154D01*
X47485Y-38154D02*
X47449Y-38203D01*
X47449Y-38203D02*
X47424Y-38259D01*
X47424Y-38259D02*
X47411Y-38318D01*
X47411Y-38318D02*
X47410Y-38379D01*
X47410Y-38379D02*
X47423Y-38438D01*
X47423Y-38438D02*
X47447Y-38494D01*
X47447Y-38494D02*
X47483Y-38544D01*
X47483Y-38544D02*
X47484Y-38545D01*
G54D36*
X55600Y-38650D02*
X55600Y-41650D01*
X53600Y-41650D02*
X53600Y-38650D01*
X53600Y-38650D02*
X55600Y-38650D01*
X55600Y-41650D02*
X53600Y-41650D01*
G54D10*
X60700Y-33350D02*
X64700Y-33350D01*
X64700Y-33350D02*
X64700Y-35350D01*
X64700Y-35350D02*
X60700Y-35350D01*
X60700Y-35350D02*
X60700Y-33350D01*
X55200Y-33350D02*
X59200Y-33350D01*
X59200Y-33350D02*
X59200Y-35350D01*
X59200Y-35350D02*
X55200Y-35350D01*
X55200Y-35350D02*
X55200Y-33350D01*
X71250Y-47950D02*
X71250Y-46950D01*
X71250Y-46950D02*
X73250Y-46950D01*
X73250Y-46950D02*
X73250Y-47950D01*
X73250Y-47950D02*
X71250Y-47950D01*
X60700Y-35350D02*
X60700Y-35350D01*
X60700Y-36350D02*
X60700Y-35350D01*
X60700Y-35350D02*
X60700Y-35350D01*
X60700Y-35350D02*
X64700Y-35350D01*
X64700Y-35350D02*
X64700Y-36350D01*
X64700Y-36350D02*
X60700Y-36350D01*
X61700Y-36350D02*
X61700Y-35350D01*
X66100Y-46950D02*
X66100Y-46950D01*
X66100Y-47950D02*
X66100Y-46950D01*
X66100Y-46950D02*
X66100Y-46950D01*
X66100Y-46950D02*
X70100Y-46950D01*
X70100Y-46950D02*
X70100Y-47950D01*
X70100Y-47950D02*
X66100Y-47950D01*
X67100Y-47950D02*
X67100Y-46950D01*
X55200Y-35350D02*
X55200Y-35350D01*
X55200Y-36350D02*
X55200Y-35350D01*
X55200Y-35350D02*
X55200Y-35350D01*
X55200Y-35350D02*
X59200Y-35350D01*
X59200Y-35350D02*
X59200Y-36350D01*
X59200Y-36350D02*
X55200Y-36350D01*
X56200Y-36350D02*
X56200Y-35350D01*
G54D32*
X54100Y-43150D02*
X54099Y-43159D01*
X54099Y-43159D02*
X54096Y-43169D01*
X54096Y-43169D02*
X54091Y-43177D01*
X54091Y-43177D02*
X54085Y-43185D01*
X54085Y-43185D02*
X54077Y-43191D01*
X54077Y-43191D02*
X54069Y-43196D01*
X54069Y-43196D02*
X54060Y-43198D01*
X54060Y-43198D02*
X54050Y-43199D01*
X54050Y-43199D02*
X54041Y-43199D01*
X54041Y-43199D02*
X54032Y-43196D01*
X54032Y-43196D02*
X54023Y-43191D01*
X54023Y-43191D02*
X54016Y-43185D01*
X54016Y-43185D02*
X54009Y-43178D01*
X54009Y-43178D02*
X54005Y-43169D01*
X54005Y-43169D02*
X54002Y-43160D01*
X54002Y-43160D02*
X54001Y-43150D01*
X54001Y-43150D02*
X54001Y-43141D01*
X54001Y-43141D02*
X54004Y-43132D01*
X54004Y-43132D02*
X54008Y-43123D01*
X54008Y-43123D02*
X54015Y-43116D01*
X54015Y-43116D02*
X54022Y-43109D01*
X54022Y-43109D02*
X54030Y-43105D01*
X54030Y-43105D02*
X54040Y-43102D01*
X54040Y-43102D02*
X54049Y-43101D01*
X54049Y-43101D02*
X54058Y-43101D01*
X54058Y-43101D02*
X54068Y-43104D01*
X54068Y-43104D02*
X54076Y-43108D01*
X54076Y-43108D02*
X54084Y-43114D01*
X54084Y-43114D02*
X54090Y-43122D01*
X54090Y-43122D02*
X54095Y-43130D01*
X54095Y-43130D02*
X54098Y-43139D01*
X54098Y-43139D02*
X54099Y-43149D01*
X54099Y-43149D02*
X54100Y-43150D01*
X54500Y-43150D02*
X54100Y-43150D01*
X54100Y-43150D02*
X54100Y-42550D01*
X54100Y-42550D02*
X54500Y-42550D01*
X54900Y-42550D02*
X55300Y-42550D01*
X55300Y-42550D02*
X55300Y-43150D01*
X55300Y-43150D02*
X54900Y-43150D01*
X51350Y-38750D02*
X51349Y-38759D01*
X51349Y-38759D02*
X51346Y-38769D01*
X51346Y-38769D02*
X51341Y-38777D01*
X51341Y-38777D02*
X51335Y-38785D01*
X51335Y-38785D02*
X51327Y-38791D01*
X51327Y-38791D02*
X51319Y-38796D01*
X51319Y-38796D02*
X51310Y-38798D01*
X51310Y-38798D02*
X51300Y-38799D01*
X51300Y-38799D02*
X51291Y-38799D01*
X51291Y-38799D02*
X51282Y-38796D01*
X51282Y-38796D02*
X51273Y-38791D01*
X51273Y-38791D02*
X51266Y-38785D01*
X51266Y-38785D02*
X51259Y-38778D01*
X51259Y-38778D02*
X51255Y-38769D01*
X51255Y-38769D02*
X51252Y-38760D01*
X51252Y-38760D02*
X51251Y-38750D01*
X51251Y-38750D02*
X51251Y-38741D01*
X51251Y-38741D02*
X51254Y-38732D01*
X51254Y-38732D02*
X51258Y-38723D01*
X51258Y-38723D02*
X51265Y-38716D01*
X51265Y-38716D02*
X51272Y-38709D01*
X51272Y-38709D02*
X51280Y-38705D01*
X51280Y-38705D02*
X51290Y-38702D01*
X51290Y-38702D02*
X51299Y-38701D01*
X51299Y-38701D02*
X51308Y-38701D01*
X51308Y-38701D02*
X51318Y-38704D01*
X51318Y-38704D02*
X51326Y-38708D01*
X51326Y-38708D02*
X51334Y-38714D01*
X51334Y-38714D02*
X51340Y-38722D01*
X51340Y-38722D02*
X51345Y-38730D01*
X51345Y-38730D02*
X51348Y-38739D01*
X51348Y-38739D02*
X51349Y-38749D01*
X51349Y-38749D02*
X51350Y-38750D01*
X51750Y-38750D02*
X51350Y-38750D01*
X51350Y-38750D02*
X51350Y-38150D01*
X51350Y-38150D02*
X51750Y-38150D01*
X52150Y-38150D02*
X52550Y-38150D01*
X52550Y-38150D02*
X52550Y-38750D01*
X52550Y-38750D02*
X52150Y-38750D01*
X65550Y-35200D02*
X65549Y-35209D01*
X65549Y-35209D02*
X65546Y-35219D01*
X65546Y-35219D02*
X65541Y-35227D01*
X65541Y-35227D02*
X65535Y-35235D01*
X65535Y-35235D02*
X65527Y-35241D01*
X65527Y-35241D02*
X65519Y-35246D01*
X65519Y-35246D02*
X65510Y-35248D01*
X65510Y-35248D02*
X65500Y-35249D01*
X65500Y-35249D02*
X65491Y-35249D01*
X65491Y-35249D02*
X65482Y-35246D01*
X65482Y-35246D02*
X65473Y-35241D01*
X65473Y-35241D02*
X65466Y-35235D01*
X65466Y-35235D02*
X65459Y-35228D01*
X65459Y-35228D02*
X65455Y-35219D01*
X65455Y-35219D02*
X65452Y-35210D01*
X65452Y-35210D02*
X65451Y-35200D01*
X65451Y-35200D02*
X65451Y-35191D01*
X65451Y-35191D02*
X65454Y-35182D01*
X65454Y-35182D02*
X65458Y-35173D01*
X65458Y-35173D02*
X65465Y-35166D01*
X65465Y-35166D02*
X65472Y-35159D01*
X65472Y-35159D02*
X65480Y-35155D01*
X65480Y-35155D02*
X65490Y-35152D01*
X65490Y-35152D02*
X65499Y-35151D01*
X65499Y-35151D02*
X65508Y-35151D01*
X65508Y-35151D02*
X65518Y-35154D01*
X65518Y-35154D02*
X65526Y-35158D01*
X65526Y-35158D02*
X65534Y-35164D01*
X65534Y-35164D02*
X65540Y-35172D01*
X65540Y-35172D02*
X65545Y-35180D01*
X65545Y-35180D02*
X65548Y-35189D01*
X65548Y-35189D02*
X65549Y-35199D01*
X65549Y-35199D02*
X65550Y-35200D01*
X65500Y-34750D02*
X65500Y-35150D01*
X65500Y-35150D02*
X64900Y-35150D01*
X64900Y-35150D02*
X64900Y-34750D01*
X64900Y-34350D02*
X64900Y-33950D01*
X64900Y-33950D02*
X65500Y-33950D01*
X65500Y-33950D02*
X65500Y-34350D01*
X70450Y-38650D02*
X70449Y-38659D01*
X70449Y-38659D02*
X70446Y-38669D01*
X70446Y-38669D02*
X70441Y-38677D01*
X70441Y-38677D02*
X70435Y-38685D01*
X70435Y-38685D02*
X70427Y-38691D01*
X70427Y-38691D02*
X70419Y-38696D01*
X70419Y-38696D02*
X70410Y-38698D01*
X70410Y-38698D02*
X70400Y-38699D01*
X70400Y-38699D02*
X70391Y-38699D01*
X70391Y-38699D02*
X70382Y-38696D01*
X70382Y-38696D02*
X70373Y-38691D01*
X70373Y-38691D02*
X70366Y-38685D01*
X70366Y-38685D02*
X70359Y-38678D01*
X70359Y-38678D02*
X70355Y-38669D01*
X70355Y-38669D02*
X70352Y-38660D01*
X70352Y-38660D02*
X70351Y-38650D01*
X70351Y-38650D02*
X70351Y-38641D01*
X70351Y-38641D02*
X70354Y-38632D01*
X70354Y-38632D02*
X70358Y-38623D01*
X70358Y-38623D02*
X70365Y-38616D01*
X70365Y-38616D02*
X70372Y-38609D01*
X70372Y-38609D02*
X70380Y-38605D01*
X70380Y-38605D02*
X70390Y-38602D01*
X70390Y-38602D02*
X70399Y-38601D01*
X70399Y-38601D02*
X70408Y-38601D01*
X70408Y-38601D02*
X70418Y-38604D01*
X70418Y-38604D02*
X70426Y-38608D01*
X70426Y-38608D02*
X70434Y-38614D01*
X70434Y-38614D02*
X70440Y-38622D01*
X70440Y-38622D02*
X70445Y-38630D01*
X70445Y-38630D02*
X70448Y-38639D01*
X70448Y-38639D02*
X70449Y-38649D01*
X70449Y-38649D02*
X70450Y-38650D01*
X70400Y-38200D02*
X70400Y-38600D01*
X70400Y-38600D02*
X69800Y-38600D01*
X69800Y-38600D02*
X69800Y-38200D01*
X69800Y-37800D02*
X69800Y-37400D01*
X69800Y-37400D02*
X70400Y-37400D01*
X70400Y-37400D02*
X70400Y-37800D01*
X69400Y-38650D02*
X69399Y-38659D01*
X69399Y-38659D02*
X69396Y-38669D01*
X69396Y-38669D02*
X69391Y-38677D01*
X69391Y-38677D02*
X69385Y-38685D01*
X69385Y-38685D02*
X69377Y-38691D01*
X69377Y-38691D02*
X69369Y-38696D01*
X69369Y-38696D02*
X69360Y-38698D01*
X69360Y-38698D02*
X69350Y-38699D01*
X69350Y-38699D02*
X69341Y-38699D01*
X69341Y-38699D02*
X69332Y-38696D01*
X69332Y-38696D02*
X69323Y-38691D01*
X69323Y-38691D02*
X69316Y-38685D01*
X69316Y-38685D02*
X69309Y-38678D01*
X69309Y-38678D02*
X69305Y-38669D01*
X69305Y-38669D02*
X69302Y-38660D01*
X69302Y-38660D02*
X69301Y-38650D01*
X69301Y-38650D02*
X69301Y-38641D01*
X69301Y-38641D02*
X69304Y-38632D01*
X69304Y-38632D02*
X69308Y-38623D01*
X69308Y-38623D02*
X69315Y-38616D01*
X69315Y-38616D02*
X69322Y-38609D01*
X69322Y-38609D02*
X69330Y-38605D01*
X69330Y-38605D02*
X69340Y-38602D01*
X69340Y-38602D02*
X69349Y-38601D01*
X69349Y-38601D02*
X69358Y-38601D01*
X69358Y-38601D02*
X69368Y-38604D01*
X69368Y-38604D02*
X69376Y-38608D01*
X69376Y-38608D02*
X69384Y-38614D01*
X69384Y-38614D02*
X69390Y-38622D01*
X69390Y-38622D02*
X69395Y-38630D01*
X69395Y-38630D02*
X69398Y-38639D01*
X69398Y-38639D02*
X69399Y-38649D01*
X69399Y-38649D02*
X69400Y-38650D01*
X69350Y-38200D02*
X69350Y-38600D01*
X69350Y-38600D02*
X68750Y-38600D01*
X68750Y-38600D02*
X68750Y-38200D01*
X68750Y-37800D02*
X68750Y-37400D01*
X68750Y-37400D02*
X69350Y-37400D01*
X69350Y-37400D02*
X69350Y-37800D01*
X60050Y-35150D02*
X60049Y-35159D01*
X60049Y-35159D02*
X60046Y-35169D01*
X60046Y-35169D02*
X60041Y-35177D01*
X60041Y-35177D02*
X60035Y-35185D01*
X60035Y-35185D02*
X60027Y-35191D01*
X60027Y-35191D02*
X60019Y-35196D01*
X60019Y-35196D02*
X60010Y-35198D01*
X60010Y-35198D02*
X60000Y-35199D01*
X60000Y-35199D02*
X59991Y-35199D01*
X59991Y-35199D02*
X59982Y-35196D01*
X59982Y-35196D02*
X59973Y-35191D01*
X59973Y-35191D02*
X59966Y-35185D01*
X59966Y-35185D02*
X59959Y-35178D01*
X59959Y-35178D02*
X59955Y-35169D01*
X59955Y-35169D02*
X59952Y-35160D01*
X59952Y-35160D02*
X59951Y-35150D01*
X59951Y-35150D02*
X59951Y-35141D01*
X59951Y-35141D02*
X59954Y-35132D01*
X59954Y-35132D02*
X59958Y-35123D01*
X59958Y-35123D02*
X59965Y-35116D01*
X59965Y-35116D02*
X59972Y-35109D01*
X59972Y-35109D02*
X59980Y-35105D01*
X59980Y-35105D02*
X59990Y-35102D01*
X59990Y-35102D02*
X59999Y-35101D01*
X59999Y-35101D02*
X60008Y-35101D01*
X60008Y-35101D02*
X60018Y-35104D01*
X60018Y-35104D02*
X60026Y-35108D01*
X60026Y-35108D02*
X60034Y-35114D01*
X60034Y-35114D02*
X60040Y-35122D01*
X60040Y-35122D02*
X60045Y-35130D01*
X60045Y-35130D02*
X60048Y-35139D01*
X60048Y-35139D02*
X60049Y-35149D01*
X60049Y-35149D02*
X60050Y-35150D01*
X60000Y-34700D02*
X60000Y-35100D01*
X60000Y-35100D02*
X59400Y-35100D01*
X59400Y-35100D02*
X59400Y-34700D01*
X59400Y-34300D02*
X59400Y-33900D01*
X59400Y-33900D02*
X60000Y-33900D01*
X60000Y-33900D02*
X60000Y-34300D01*
X50875Y-38150D02*
X50874Y-38159D01*
X50874Y-38159D02*
X50871Y-38169D01*
X50871Y-38169D02*
X50866Y-38177D01*
X50866Y-38177D02*
X50860Y-38185D01*
X50860Y-38185D02*
X50852Y-38191D01*
X50852Y-38191D02*
X50844Y-38196D01*
X50844Y-38196D02*
X50835Y-38198D01*
X50835Y-38198D02*
X50825Y-38199D01*
X50825Y-38199D02*
X50816Y-38199D01*
X50816Y-38199D02*
X50807Y-38196D01*
X50807Y-38196D02*
X50798Y-38191D01*
X50798Y-38191D02*
X50791Y-38185D01*
X50791Y-38185D02*
X50784Y-38178D01*
X50784Y-38178D02*
X50780Y-38169D01*
X50780Y-38169D02*
X50777Y-38160D01*
X50777Y-38160D02*
X50776Y-38150D01*
X50776Y-38150D02*
X50776Y-38141D01*
X50776Y-38141D02*
X50779Y-38132D01*
X50779Y-38132D02*
X50783Y-38123D01*
X50783Y-38123D02*
X50790Y-38116D01*
X50790Y-38116D02*
X50797Y-38109D01*
X50797Y-38109D02*
X50805Y-38105D01*
X50805Y-38105D02*
X50815Y-38102D01*
X50815Y-38102D02*
X50824Y-38101D01*
X50824Y-38101D02*
X50833Y-38101D01*
X50833Y-38101D02*
X50843Y-38104D01*
X50843Y-38104D02*
X50851Y-38108D01*
X50851Y-38108D02*
X50859Y-38114D01*
X50859Y-38114D02*
X50865Y-38122D01*
X50865Y-38122D02*
X50870Y-38130D01*
X50870Y-38130D02*
X50873Y-38139D01*
X50873Y-38139D02*
X50874Y-38149D01*
X50874Y-38149D02*
X50875Y-38150D01*
X50375Y-38150D02*
X50775Y-38150D01*
X50775Y-38150D02*
X50775Y-38750D01*
X50775Y-38750D02*
X50375Y-38750D01*
X49975Y-38750D02*
X49575Y-38750D01*
X49575Y-38750D02*
X49575Y-38150D01*
X49575Y-38150D02*
X49975Y-38150D01*
X50250Y-40400D02*
X50249Y-40409D01*
X50249Y-40409D02*
X50246Y-40419D01*
X50246Y-40419D02*
X50241Y-40427D01*
X50241Y-40427D02*
X50235Y-40435D01*
X50235Y-40435D02*
X50227Y-40441D01*
X50227Y-40441D02*
X50219Y-40446D01*
X50219Y-40446D02*
X50210Y-40448D01*
X50210Y-40448D02*
X50200Y-40449D01*
X50200Y-40449D02*
X50191Y-40449D01*
X50191Y-40449D02*
X50182Y-40446D01*
X50182Y-40446D02*
X50173Y-40441D01*
X50173Y-40441D02*
X50166Y-40435D01*
X50166Y-40435D02*
X50159Y-40428D01*
X50159Y-40428D02*
X50155Y-40419D01*
X50155Y-40419D02*
X50152Y-40410D01*
X50152Y-40410D02*
X50151Y-40400D01*
X50151Y-40400D02*
X50151Y-40391D01*
X50151Y-40391D02*
X50154Y-40382D01*
X50154Y-40382D02*
X50158Y-40373D01*
X50158Y-40373D02*
X50165Y-40366D01*
X50165Y-40366D02*
X50172Y-40359D01*
X50172Y-40359D02*
X50180Y-40355D01*
X50180Y-40355D02*
X50190Y-40352D01*
X50190Y-40352D02*
X50199Y-40351D01*
X50199Y-40351D02*
X50208Y-40351D01*
X50208Y-40351D02*
X50218Y-40354D01*
X50218Y-40354D02*
X50226Y-40358D01*
X50226Y-40358D02*
X50234Y-40364D01*
X50234Y-40364D02*
X50240Y-40372D01*
X50240Y-40372D02*
X50245Y-40380D01*
X50245Y-40380D02*
X50248Y-40389D01*
X50248Y-40389D02*
X50249Y-40399D01*
X50249Y-40399D02*
X50250Y-40400D01*
X50200Y-40850D02*
X50200Y-40450D01*
X50200Y-40450D02*
X50800Y-40450D01*
X50800Y-40450D02*
X50800Y-40850D01*
X50800Y-41250D02*
X50800Y-41650D01*
X50800Y-41650D02*
X50200Y-41650D01*
X50200Y-41650D02*
X50200Y-41250D01*
X70250Y-33250D02*
X70249Y-33259D01*
X70249Y-33259D02*
X70246Y-33269D01*
X70246Y-33269D02*
X70241Y-33277D01*
X70241Y-33277D02*
X70235Y-33285D01*
X70235Y-33285D02*
X70227Y-33291D01*
X70227Y-33291D02*
X70219Y-33296D01*
X70219Y-33296D02*
X70210Y-33298D01*
X70210Y-33298D02*
X70200Y-33299D01*
X70200Y-33299D02*
X70191Y-33299D01*
X70191Y-33299D02*
X70182Y-33296D01*
X70182Y-33296D02*
X70173Y-33291D01*
X70173Y-33291D02*
X70166Y-33285D01*
X70166Y-33285D02*
X70159Y-33278D01*
X70159Y-33278D02*
X70155Y-33269D01*
X70155Y-33269D02*
X70152Y-33260D01*
X70152Y-33260D02*
X70151Y-33250D01*
X70151Y-33250D02*
X70151Y-33241D01*
X70151Y-33241D02*
X70154Y-33232D01*
X70154Y-33232D02*
X70158Y-33223D01*
X70158Y-33223D02*
X70165Y-33216D01*
X70165Y-33216D02*
X70172Y-33209D01*
X70172Y-33209D02*
X70180Y-33205D01*
X70180Y-33205D02*
X70190Y-33202D01*
X70190Y-33202D02*
X70199Y-33201D01*
X70199Y-33201D02*
X70208Y-33201D01*
X70208Y-33201D02*
X70218Y-33204D01*
X70218Y-33204D02*
X70226Y-33208D01*
X70226Y-33208D02*
X70234Y-33214D01*
X70234Y-33214D02*
X70240Y-33222D01*
X70240Y-33222D02*
X70245Y-33230D01*
X70245Y-33230D02*
X70248Y-33239D01*
X70248Y-33239D02*
X70249Y-33249D01*
X70249Y-33249D02*
X70250Y-33250D01*
X70200Y-33700D02*
X70200Y-33300D01*
X70200Y-33300D02*
X70800Y-33300D01*
X70800Y-33300D02*
X70800Y-33700D01*
X70800Y-34100D02*
X70800Y-34500D01*
X70800Y-34500D02*
X70200Y-34500D01*
X70200Y-34500D02*
X70200Y-34100D01*
X53900Y-47250D02*
X53899Y-47259D01*
X53899Y-47259D02*
X53896Y-47269D01*
X53896Y-47269D02*
X53891Y-47277D01*
X53891Y-47277D02*
X53885Y-47285D01*
X53885Y-47285D02*
X53877Y-47291D01*
X53877Y-47291D02*
X53869Y-47296D01*
X53869Y-47296D02*
X53860Y-47298D01*
X53860Y-47298D02*
X53850Y-47299D01*
X53850Y-47299D02*
X53841Y-47299D01*
X53841Y-47299D02*
X53832Y-47296D01*
X53832Y-47296D02*
X53823Y-47291D01*
X53823Y-47291D02*
X53816Y-47285D01*
X53816Y-47285D02*
X53809Y-47278D01*
X53809Y-47278D02*
X53805Y-47269D01*
X53805Y-47269D02*
X53802Y-47260D01*
X53802Y-47260D02*
X53801Y-47250D01*
X53801Y-47250D02*
X53801Y-47241D01*
X53801Y-47241D02*
X53804Y-47232D01*
X53804Y-47232D02*
X53808Y-47223D01*
X53808Y-47223D02*
X53815Y-47216D01*
X53815Y-47216D02*
X53822Y-47209D01*
X53822Y-47209D02*
X53830Y-47205D01*
X53830Y-47205D02*
X53840Y-47202D01*
X53840Y-47202D02*
X53849Y-47201D01*
X53849Y-47201D02*
X53858Y-47201D01*
X53858Y-47201D02*
X53868Y-47204D01*
X53868Y-47204D02*
X53876Y-47208D01*
X53876Y-47208D02*
X53884Y-47214D01*
X53884Y-47214D02*
X53890Y-47222D01*
X53890Y-47222D02*
X53895Y-47230D01*
X53895Y-47230D02*
X53898Y-47239D01*
X53898Y-47239D02*
X53899Y-47249D01*
X53899Y-47249D02*
X53900Y-47250D01*
X54300Y-47250D02*
X53900Y-47250D01*
X53900Y-47250D02*
X53900Y-46650D01*
X53900Y-46650D02*
X54300Y-46650D01*
X54700Y-46650D02*
X55100Y-46650D01*
X55100Y-46650D02*
X55100Y-47250D01*
X55100Y-47250D02*
X54700Y-47250D01*
X51000Y-46500D02*
X50900Y-46500D01*
X50900Y-46500D02*
X50900Y-47400D01*
X50900Y-47400D02*
X51000Y-47400D01*
X51000Y-46500D02*
X51000Y-47400D01*
X51000Y-47400D02*
X51650Y-47400D01*
X52350Y-46500D02*
X53000Y-46500D01*
X53000Y-46500D02*
X53000Y-47400D01*
X53000Y-47400D02*
X52350Y-47400D01*
X51650Y-46500D02*
X51000Y-46500D01*
X53500Y-34850D02*
X53480Y-35044D01*
X53480Y-35044D02*
X53424Y-35231D01*
X53424Y-35231D02*
X53332Y-35403D01*
X53332Y-35403D02*
X53209Y-35554D01*
X53209Y-35554D02*
X53059Y-35679D01*
X53059Y-35679D02*
X52887Y-35771D01*
X52887Y-35771D02*
X52701Y-35829D01*
X52701Y-35829D02*
X52506Y-35849D01*
X52506Y-35849D02*
X52313Y-35832D01*
X52313Y-35832D02*
X52126Y-35777D01*
X52126Y-35777D02*
X51953Y-35686D01*
X51953Y-35686D02*
X51801Y-35564D01*
X51801Y-35564D02*
X51675Y-35414D01*
X51675Y-35414D02*
X51581Y-35243D01*
X51581Y-35243D02*
X51522Y-35057D01*
X51522Y-35057D02*
X51501Y-34863D01*
X51501Y-34863D02*
X51517Y-34670D01*
X51517Y-34670D02*
X51571Y-34482D01*
X51571Y-34482D02*
X51660Y-34309D01*
X51660Y-34309D02*
X51781Y-34156D01*
X51781Y-34156D02*
X51930Y-34029D01*
X51930Y-34029D02*
X52100Y-33934D01*
X52100Y-33934D02*
X52286Y-33874D01*
X52286Y-33874D02*
X52480Y-33851D01*
X52480Y-33851D02*
X52673Y-33866D01*
X52673Y-33866D02*
X52861Y-33918D01*
X52861Y-33918D02*
X53035Y-34006D01*
X53035Y-34006D02*
X53189Y-34126D01*
X53189Y-34126D02*
X53317Y-34274D01*
X53317Y-34274D02*
X53413Y-34444D01*
X53413Y-34444D02*
X53475Y-34629D01*
X53475Y-34629D02*
X53499Y-34823D01*
X53499Y-34823D02*
X53500Y-34850D01*
X51000Y-36350D02*
X51000Y-33350D01*
X51000Y-33350D02*
X54000Y-33350D01*
X54000Y-33350D02*
X54000Y-36350D01*
X51000Y-36350D02*
X54000Y-36350D01*
G54D10*
X51900Y-41650D02*
X50400Y-43150D01*
X50400Y-43150D02*
X50400Y-43650D01*
X50400Y-43650D02*
X50900Y-44150D01*
X50900Y-44150D02*
X51900Y-44150D01*
X51900Y-44150D02*
X52900Y-43150D01*
X52900Y-43150D02*
X52900Y-42150D01*
X52900Y-42150D02*
X52400Y-41650D01*
X52400Y-41650D02*
X51900Y-41650D01*
G54D37*
X60020Y-40160D02*
X60470Y-40160D01*
X60020Y-42340D02*
X60460Y-42340D01*
X60020Y-40160D02*
X60020Y-42340D01*
X60900Y-39690D02*
X60900Y-39260D01*
X63110Y-39680D02*
X63110Y-39260D01*
X63120Y-39260D02*
X60900Y-39250D01*
X63100Y-43230D02*
X60930Y-43240D01*
X63530Y-42540D02*
X63530Y-39710D01*
X60920Y-43230D02*
X60920Y-42820D01*
X63280Y-42780D02*
X60500Y-42780D01*
X60480Y-39700D02*
X60480Y-42740D01*
X63530Y-39700D02*
X60530Y-39700D01*
X63980Y-42370D02*
X63980Y-40150D01*
X63980Y-40150D02*
X63530Y-40150D01*
X63526Y-42550D02*
X63296Y-42780D01*
X63978Y-42370D02*
X63526Y-42370D01*
X63100Y-42780D02*
X63100Y-43232D01*
X63306Y-42376D02*
X63302Y-42412D01*
X63302Y-42412D02*
X63291Y-42447D01*
X63291Y-42447D02*
X63274Y-42480D01*
X63274Y-42480D02*
X63251Y-42508D01*
X63251Y-42508D02*
X63223Y-42531D01*
X63223Y-42531D02*
X63190Y-42549D01*
X63190Y-42549D02*
X63155Y-42560D01*
X63155Y-42560D02*
X63119Y-42563D01*
X63119Y-42563D02*
X63083Y-42560D01*
X63083Y-42560D02*
X63048Y-42550D01*
X63048Y-42550D02*
X63016Y-42533D01*
X63016Y-42533D02*
X62987Y-42510D01*
X62987Y-42510D02*
X62963Y-42482D01*
X62963Y-42482D02*
X62946Y-42450D01*
X62946Y-42450D02*
X62935Y-42415D01*
X62935Y-42415D02*
X62931Y-42378D01*
X62931Y-42378D02*
X62934Y-42343D01*
X62934Y-42343D02*
X62944Y-42307D01*
X62944Y-42307D02*
X62960Y-42275D01*
X62960Y-42275D02*
X62983Y-42246D01*
X62983Y-42246D02*
X63011Y-42222D01*
X63011Y-42222D02*
X63043Y-42204D01*
X63043Y-42204D02*
X63078Y-42193D01*
X63078Y-42193D02*
X63115Y-42189D01*
X63115Y-42189D02*
X63150Y-42191D01*
X63150Y-42191D02*
X63185Y-42201D01*
X63185Y-42201D02*
X63218Y-42218D01*
X63218Y-42218D02*
X63247Y-42240D01*
X63247Y-42240D02*
X63271Y-42268D01*
X63271Y-42268D02*
X63289Y-42300D01*
X63289Y-42300D02*
X63301Y-42335D01*
X63301Y-42335D02*
X63305Y-42371D01*
X63305Y-42371D02*
X63306Y-42376D01*
G54D10*
X59600Y-47950D02*
X59600Y-46950D01*
X59600Y-46950D02*
X65600Y-46950D01*
X65600Y-46950D02*
X65600Y-47950D01*
X65600Y-47950D02*
X59600Y-47950D01*
X60600Y-47950D02*
X60600Y-46950D01*
G54D37*
X67500Y-44400D02*
X67000Y-43900D01*
X67000Y-39400D02*
X67500Y-38900D01*
X68500Y-38900D02*
X69000Y-39400D01*
X68500Y-44400D02*
X69000Y-43900D01*
X67000Y-43900D02*
X67000Y-39400D01*
X67500Y-44400D02*
X68500Y-44400D01*
X69000Y-43900D02*
X69000Y-39400D01*
X68500Y-38900D02*
X67500Y-38900D01*
G54D32*
X69300Y-42950D02*
X69299Y-42959D01*
X69299Y-42959D02*
X69296Y-42969D01*
X69296Y-42969D02*
X69291Y-42977D01*
X69291Y-42977D02*
X69285Y-42985D01*
X69285Y-42985D02*
X69277Y-42991D01*
X69277Y-42991D02*
X69269Y-42996D01*
X69269Y-42996D02*
X69260Y-42998D01*
X69260Y-42998D02*
X69250Y-42999D01*
X69250Y-42999D02*
X69241Y-42999D01*
X69241Y-42999D02*
X69232Y-42996D01*
X69232Y-42996D02*
X69223Y-42991D01*
X69223Y-42991D02*
X69216Y-42985D01*
X69216Y-42985D02*
X69209Y-42978D01*
X69209Y-42978D02*
X69205Y-42969D01*
X69205Y-42969D02*
X69202Y-42960D01*
X69202Y-42960D02*
X69201Y-42950D01*
X69201Y-42950D02*
X69201Y-42941D01*
X69201Y-42941D02*
X69204Y-42932D01*
X69204Y-42932D02*
X69208Y-42923D01*
X69208Y-42923D02*
X69215Y-42916D01*
X69215Y-42916D02*
X69222Y-42909D01*
X69222Y-42909D02*
X69230Y-42905D01*
X69230Y-42905D02*
X69240Y-42902D01*
X69240Y-42902D02*
X69249Y-42901D01*
X69249Y-42901D02*
X69258Y-42901D01*
X69258Y-42901D02*
X69268Y-42904D01*
X69268Y-42904D02*
X69276Y-42908D01*
X69276Y-42908D02*
X69284Y-42914D01*
X69284Y-42914D02*
X69290Y-42922D01*
X69290Y-42922D02*
X69295Y-42930D01*
X69295Y-42930D02*
X69298Y-42939D01*
X69298Y-42939D02*
X69299Y-42949D01*
X69299Y-42949D02*
X69300Y-42950D01*
X69700Y-42950D02*
X69300Y-42950D01*
X69300Y-42950D02*
X69300Y-42350D01*
X69300Y-42350D02*
X69700Y-42350D01*
X70100Y-42350D02*
X70500Y-42350D01*
X70500Y-42350D02*
X70500Y-42950D01*
X70500Y-42950D02*
X70100Y-42950D01*
X69300Y-40950D02*
X69299Y-40959D01*
X69299Y-40959D02*
X69296Y-40969D01*
X69296Y-40969D02*
X69291Y-40977D01*
X69291Y-40977D02*
X69285Y-40985D01*
X69285Y-40985D02*
X69277Y-40991D01*
X69277Y-40991D02*
X69269Y-40996D01*
X69269Y-40996D02*
X69260Y-40998D01*
X69260Y-40998D02*
X69250Y-40999D01*
X69250Y-40999D02*
X69241Y-40999D01*
X69241Y-40999D02*
X69232Y-40996D01*
X69232Y-40996D02*
X69223Y-40991D01*
X69223Y-40991D02*
X69216Y-40985D01*
X69216Y-40985D02*
X69209Y-40978D01*
X69209Y-40978D02*
X69205Y-40969D01*
X69205Y-40969D02*
X69202Y-40960D01*
X69202Y-40960D02*
X69201Y-40950D01*
X69201Y-40950D02*
X69201Y-40941D01*
X69201Y-40941D02*
X69204Y-40932D01*
X69204Y-40932D02*
X69208Y-40923D01*
X69208Y-40923D02*
X69215Y-40916D01*
X69215Y-40916D02*
X69222Y-40909D01*
X69222Y-40909D02*
X69230Y-40905D01*
X69230Y-40905D02*
X69240Y-40902D01*
X69240Y-40902D02*
X69249Y-40901D01*
X69249Y-40901D02*
X69258Y-40901D01*
X69258Y-40901D02*
X69268Y-40904D01*
X69268Y-40904D02*
X69276Y-40908D01*
X69276Y-40908D02*
X69284Y-40914D01*
X69284Y-40914D02*
X69290Y-40922D01*
X69290Y-40922D02*
X69295Y-40930D01*
X69295Y-40930D02*
X69298Y-40939D01*
X69298Y-40939D02*
X69299Y-40949D01*
X69299Y-40949D02*
X69300Y-40950D01*
X69700Y-40950D02*
X69300Y-40950D01*
X69300Y-40950D02*
X69300Y-40350D01*
X69300Y-40350D02*
X69700Y-40350D01*
X70100Y-40350D02*
X70500Y-40350D01*
X70500Y-40350D02*
X70500Y-40950D01*
X70500Y-40950D02*
X70100Y-40950D01*
G54D10*
X76900Y-34350D02*
X76900Y-47150D01*
X76900Y-47150D02*
X83900Y-47150D01*
X83900Y-47150D02*
X83900Y-34350D01*
X83900Y-34350D02*
X76900Y-34350D01*
X83900Y-37150D02*
X80900Y-37150D01*
X80900Y-37150D02*
X80900Y-44350D01*
X80900Y-44350D02*
X83900Y-44350D01*
X83900Y-37750D02*
X87300Y-37750D01*
X87300Y-37750D02*
X87300Y-43750D01*
X87300Y-43750D02*
X83900Y-43750D01*
G54D32*
X71550Y-38650D02*
X71549Y-38659D01*
X71549Y-38659D02*
X71546Y-38669D01*
X71546Y-38669D02*
X71541Y-38677D01*
X71541Y-38677D02*
X71535Y-38685D01*
X71535Y-38685D02*
X71527Y-38691D01*
X71527Y-38691D02*
X71519Y-38696D01*
X71519Y-38696D02*
X71510Y-38698D01*
X71510Y-38698D02*
X71500Y-38699D01*
X71500Y-38699D02*
X71491Y-38699D01*
X71491Y-38699D02*
X71482Y-38696D01*
X71482Y-38696D02*
X71473Y-38691D01*
X71473Y-38691D02*
X71466Y-38685D01*
X71466Y-38685D02*
X71459Y-38678D01*
X71459Y-38678D02*
X71455Y-38669D01*
X71455Y-38669D02*
X71452Y-38660D01*
X71452Y-38660D02*
X71451Y-38650D01*
X71451Y-38650D02*
X71451Y-38641D01*
X71451Y-38641D02*
X71454Y-38632D01*
X71454Y-38632D02*
X71458Y-38623D01*
X71458Y-38623D02*
X71465Y-38616D01*
X71465Y-38616D02*
X71472Y-38609D01*
X71472Y-38609D02*
X71480Y-38605D01*
X71480Y-38605D02*
X71490Y-38602D01*
X71490Y-38602D02*
X71499Y-38601D01*
X71499Y-38601D02*
X71508Y-38601D01*
X71508Y-38601D02*
X71518Y-38604D01*
X71518Y-38604D02*
X71526Y-38608D01*
X71526Y-38608D02*
X71534Y-38614D01*
X71534Y-38614D02*
X71540Y-38622D01*
X71540Y-38622D02*
X71545Y-38630D01*
X71545Y-38630D02*
X71548Y-38639D01*
X71548Y-38639D02*
X71549Y-38649D01*
X71549Y-38649D02*
X71550Y-38650D01*
X71500Y-39100D02*
X71500Y-38700D01*
X71500Y-38700D02*
X72100Y-38700D01*
X72100Y-38700D02*
X72100Y-39100D01*
X72100Y-39500D02*
X72100Y-39900D01*
X72100Y-39900D02*
X71500Y-39900D01*
X71500Y-39900D02*
X71500Y-39500D01*
X71550Y-40150D02*
X71549Y-40159D01*
X71549Y-40159D02*
X71546Y-40169D01*
X71546Y-40169D02*
X71541Y-40177D01*
X71541Y-40177D02*
X71535Y-40185D01*
X71535Y-40185D02*
X71527Y-40191D01*
X71527Y-40191D02*
X71519Y-40196D01*
X71519Y-40196D02*
X71510Y-40198D01*
X71510Y-40198D02*
X71500Y-40199D01*
X71500Y-40199D02*
X71491Y-40199D01*
X71491Y-40199D02*
X71482Y-40196D01*
X71482Y-40196D02*
X71473Y-40191D01*
X71473Y-40191D02*
X71466Y-40185D01*
X71466Y-40185D02*
X71459Y-40178D01*
X71459Y-40178D02*
X71455Y-40169D01*
X71455Y-40169D02*
X71452Y-40160D01*
X71452Y-40160D02*
X71451Y-40150D01*
X71451Y-40150D02*
X71451Y-40141D01*
X71451Y-40141D02*
X71454Y-40132D01*
X71454Y-40132D02*
X71458Y-40123D01*
X71458Y-40123D02*
X71465Y-40116D01*
X71465Y-40116D02*
X71472Y-40109D01*
X71472Y-40109D02*
X71480Y-40105D01*
X71480Y-40105D02*
X71490Y-40102D01*
X71490Y-40102D02*
X71499Y-40101D01*
X71499Y-40101D02*
X71508Y-40101D01*
X71508Y-40101D02*
X71518Y-40104D01*
X71518Y-40104D02*
X71526Y-40108D01*
X71526Y-40108D02*
X71534Y-40114D01*
X71534Y-40114D02*
X71540Y-40122D01*
X71540Y-40122D02*
X71545Y-40130D01*
X71545Y-40130D02*
X71548Y-40139D01*
X71548Y-40139D02*
X71549Y-40149D01*
X71549Y-40149D02*
X71550Y-40150D01*
X71500Y-40600D02*
X71500Y-40200D01*
X71500Y-40200D02*
X72100Y-40200D01*
X72100Y-40200D02*
X72100Y-40600D01*
X72100Y-41000D02*
X72100Y-41400D01*
X72100Y-41400D02*
X71500Y-41400D01*
X71500Y-41400D02*
X71500Y-41000D01*
X76000Y-38650D02*
X75999Y-38659D01*
X75999Y-38659D02*
X75996Y-38669D01*
X75996Y-38669D02*
X75991Y-38677D01*
X75991Y-38677D02*
X75985Y-38685D01*
X75985Y-38685D02*
X75977Y-38691D01*
X75977Y-38691D02*
X75969Y-38696D01*
X75969Y-38696D02*
X75960Y-38698D01*
X75960Y-38698D02*
X75950Y-38699D01*
X75950Y-38699D02*
X75941Y-38699D01*
X75941Y-38699D02*
X75932Y-38696D01*
X75932Y-38696D02*
X75923Y-38691D01*
X75923Y-38691D02*
X75916Y-38685D01*
X75916Y-38685D02*
X75909Y-38678D01*
X75909Y-38678D02*
X75905Y-38669D01*
X75905Y-38669D02*
X75902Y-38660D01*
X75902Y-38660D02*
X75901Y-38650D01*
X75901Y-38650D02*
X75901Y-38641D01*
X75901Y-38641D02*
X75904Y-38632D01*
X75904Y-38632D02*
X75908Y-38623D01*
X75908Y-38623D02*
X75915Y-38616D01*
X75915Y-38616D02*
X75922Y-38609D01*
X75922Y-38609D02*
X75930Y-38605D01*
X75930Y-38605D02*
X75940Y-38602D01*
X75940Y-38602D02*
X75949Y-38601D01*
X75949Y-38601D02*
X75958Y-38601D01*
X75958Y-38601D02*
X75968Y-38604D01*
X75968Y-38604D02*
X75976Y-38608D01*
X75976Y-38608D02*
X75984Y-38614D01*
X75984Y-38614D02*
X75990Y-38622D01*
X75990Y-38622D02*
X75995Y-38630D01*
X75995Y-38630D02*
X75998Y-38639D01*
X75998Y-38639D02*
X75999Y-38649D01*
X75999Y-38649D02*
X76000Y-38650D01*
X75950Y-39100D02*
X75950Y-38700D01*
X75950Y-38700D02*
X76550Y-38700D01*
X76550Y-38700D02*
X76550Y-39100D01*
X76550Y-39500D02*
X76550Y-39900D01*
X76550Y-39900D02*
X75950Y-39900D01*
X75950Y-39900D02*
X75950Y-39500D01*
X72150Y-42950D02*
X72149Y-42959D01*
X72149Y-42959D02*
X72146Y-42969D01*
X72146Y-42969D02*
X72141Y-42977D01*
X72141Y-42977D02*
X72135Y-42985D01*
X72135Y-42985D02*
X72127Y-42991D01*
X72127Y-42991D02*
X72119Y-42996D01*
X72119Y-42996D02*
X72110Y-42998D01*
X72110Y-42998D02*
X72100Y-42999D01*
X72100Y-42999D02*
X72091Y-42999D01*
X72091Y-42999D02*
X72082Y-42996D01*
X72082Y-42996D02*
X72073Y-42991D01*
X72073Y-42991D02*
X72066Y-42985D01*
X72066Y-42985D02*
X72059Y-42978D01*
X72059Y-42978D02*
X72055Y-42969D01*
X72055Y-42969D02*
X72052Y-42960D01*
X72052Y-42960D02*
X72051Y-42950D01*
X72051Y-42950D02*
X72051Y-42941D01*
X72051Y-42941D02*
X72054Y-42932D01*
X72054Y-42932D02*
X72058Y-42923D01*
X72058Y-42923D02*
X72065Y-42916D01*
X72065Y-42916D02*
X72072Y-42909D01*
X72072Y-42909D02*
X72080Y-42905D01*
X72080Y-42905D02*
X72090Y-42902D01*
X72090Y-42902D02*
X72099Y-42901D01*
X72099Y-42901D02*
X72108Y-42901D01*
X72108Y-42901D02*
X72118Y-42904D01*
X72118Y-42904D02*
X72126Y-42908D01*
X72126Y-42908D02*
X72134Y-42914D01*
X72134Y-42914D02*
X72140Y-42922D01*
X72140Y-42922D02*
X72145Y-42930D01*
X72145Y-42930D02*
X72148Y-42939D01*
X72148Y-42939D02*
X72149Y-42949D01*
X72149Y-42949D02*
X72150Y-42950D01*
X72100Y-42500D02*
X72100Y-42900D01*
X72100Y-42900D02*
X71500Y-42900D01*
X71500Y-42900D02*
X71500Y-42500D01*
X71500Y-42100D02*
X71500Y-41700D01*
X71500Y-41700D02*
X72100Y-41700D01*
X72100Y-41700D02*
X72100Y-42100D01*
X74650Y-37600D02*
X74649Y-37609D01*
X74649Y-37609D02*
X74646Y-37619D01*
X74646Y-37619D02*
X74641Y-37627D01*
X74641Y-37627D02*
X74635Y-37635D01*
X74635Y-37635D02*
X74627Y-37641D01*
X74627Y-37641D02*
X74619Y-37646D01*
X74619Y-37646D02*
X74610Y-37648D01*
X74610Y-37648D02*
X74600Y-37649D01*
X74600Y-37649D02*
X74591Y-37649D01*
X74591Y-37649D02*
X74582Y-37646D01*
X74582Y-37646D02*
X74573Y-37641D01*
X74573Y-37641D02*
X74566Y-37635D01*
X74566Y-37635D02*
X74559Y-37628D01*
X74559Y-37628D02*
X74555Y-37619D01*
X74555Y-37619D02*
X74552Y-37610D01*
X74552Y-37610D02*
X74551Y-37600D01*
X74551Y-37600D02*
X74551Y-37591D01*
X74551Y-37591D02*
X74554Y-37582D01*
X74554Y-37582D02*
X74558Y-37573D01*
X74558Y-37573D02*
X74565Y-37566D01*
X74565Y-37566D02*
X74572Y-37559D01*
X74572Y-37559D02*
X74580Y-37555D01*
X74580Y-37555D02*
X74590Y-37552D01*
X74590Y-37552D02*
X74599Y-37551D01*
X74599Y-37551D02*
X74608Y-37551D01*
X74608Y-37551D02*
X74618Y-37554D01*
X74618Y-37554D02*
X74626Y-37558D01*
X74626Y-37558D02*
X74634Y-37564D01*
X74634Y-37564D02*
X74640Y-37572D01*
X74640Y-37572D02*
X74645Y-37580D01*
X74645Y-37580D02*
X74648Y-37589D01*
X74648Y-37589D02*
X74649Y-37599D01*
X74649Y-37599D02*
X74650Y-37600D01*
X74150Y-37600D02*
X74550Y-37600D01*
X74550Y-37600D02*
X74550Y-38200D01*
X74550Y-38200D02*
X74150Y-38200D01*
X73750Y-38200D02*
X73350Y-38200D01*
X73350Y-38200D02*
X73350Y-37600D01*
X73350Y-37600D02*
X73750Y-37600D01*
G54D36*
X74300Y-38550D02*
X74300Y-38850D01*
X74300Y-38850D02*
X73700Y-38850D01*
X73700Y-38850D02*
X73700Y-38550D01*
X74900Y-42950D02*
X73100Y-42950D01*
X73100Y-42950D02*
X73100Y-38550D01*
X73100Y-38550D02*
X74900Y-38550D01*
X74900Y-38550D02*
X74900Y-42950D01*
G54D10*
X59600Y-49900D02*
X59600Y-48900D01*
X59600Y-48900D02*
X65600Y-48900D01*
X65600Y-48900D02*
X65600Y-49900D01*
X65600Y-49900D02*
X59600Y-49900D01*
X60600Y-49900D02*
X60600Y-48900D01*
G54D38*
X48500Y-47450D02*
X47500Y-47450D01*
X47500Y-47450D02*
X47500Y-46450D01*
X47500Y-46450D02*
X48500Y-46450D01*
X48500Y-46450D02*
X48500Y-47450D01*
X48500Y-44950D02*
X48490Y-45047D01*
X48490Y-45047D02*
X48462Y-45140D01*
X48462Y-45140D02*
X48416Y-45226D01*
X48416Y-45226D02*
X48354Y-45302D01*
X48354Y-45302D02*
X48279Y-45364D01*
X48279Y-45364D02*
X48193Y-45410D01*
X48193Y-45410D02*
X48100Y-45439D01*
X48100Y-45439D02*
X48003Y-45449D01*
X48003Y-45449D02*
X47907Y-45441D01*
X47907Y-45441D02*
X47813Y-45413D01*
X47813Y-45413D02*
X47727Y-45368D01*
X47727Y-45368D02*
X47651Y-45307D01*
X47651Y-45307D02*
X47588Y-45232D01*
X47588Y-45232D02*
X47541Y-45146D01*
X47541Y-45146D02*
X47511Y-45053D01*
X47511Y-45053D02*
X47501Y-44956D01*
X47501Y-44956D02*
X47509Y-44860D01*
X47509Y-44860D02*
X47536Y-44766D01*
X47536Y-44766D02*
X47580Y-44680D01*
X47580Y-44680D02*
X47641Y-44603D01*
X47641Y-44603D02*
X47715Y-44540D01*
X47715Y-44540D02*
X47800Y-44492D01*
X47800Y-44492D02*
X47893Y-44462D01*
X47893Y-44462D02*
X47990Y-44451D01*
X47990Y-44451D02*
X48086Y-44458D01*
X48086Y-44458D02*
X48180Y-44484D01*
X48180Y-44484D02*
X48267Y-44528D01*
X48267Y-44528D02*
X48344Y-44588D01*
X48344Y-44588D02*
X48408Y-44662D01*
X48408Y-44662D02*
X48456Y-44747D01*
X48456Y-44747D02*
X48487Y-44840D01*
X48487Y-44840D02*
X48499Y-44937D01*
X48499Y-44937D02*
X48500Y-44950D01*
X47625Y-40425D02*
X48175Y-40425D01*
X48175Y-40425D02*
X48175Y-40975D01*
X48175Y-40975D02*
X47625Y-40975D01*
X47625Y-40975D02*
X47625Y-40425D01*
X48175Y-42200D02*
X48169Y-42253D01*
X48169Y-42253D02*
X48154Y-42304D01*
X48154Y-42304D02*
X48129Y-42352D01*
X48129Y-42352D02*
X48095Y-42393D01*
X48095Y-42393D02*
X48053Y-42427D01*
X48053Y-42427D02*
X48006Y-42453D01*
X48006Y-42453D02*
X47955Y-42469D01*
X47955Y-42469D02*
X47901Y-42474D01*
X47901Y-42474D02*
X47849Y-42470D01*
X47849Y-42470D02*
X47797Y-42454D01*
X47797Y-42454D02*
X47750Y-42430D01*
X47750Y-42430D02*
X47708Y-42396D01*
X47708Y-42396D02*
X47674Y-42355D01*
X47674Y-42355D02*
X47648Y-42308D01*
X47648Y-42308D02*
X47632Y-42257D01*
X47632Y-42257D02*
X47626Y-42203D01*
X47626Y-42203D02*
X47630Y-42151D01*
X47630Y-42151D02*
X47645Y-42099D01*
X47645Y-42099D02*
X47669Y-42052D01*
X47669Y-42052D02*
X47703Y-42009D01*
X47703Y-42009D02*
X47744Y-41975D01*
X47744Y-41975D02*
X47790Y-41949D01*
X47790Y-41949D02*
X47841Y-41932D01*
X47841Y-41932D02*
X47895Y-41926D01*
X47895Y-41926D02*
X47947Y-41930D01*
X47947Y-41930D02*
X47999Y-41944D01*
X47999Y-41944D02*
X48047Y-41968D01*
X48047Y-41968D02*
X48089Y-42001D01*
X48089Y-42001D02*
X48124Y-42042D01*
X48124Y-42042D02*
X48151Y-42089D01*
X48151Y-42089D02*
X48168Y-42140D01*
X48168Y-42140D02*
X48174Y-42193D01*
X48174Y-42193D02*
X48175Y-42200D01*
X57775Y-46975D02*
X57225Y-46975D01*
X57225Y-46975D02*
X57225Y-46425D01*
X57225Y-46425D02*
X57775Y-46425D01*
X57775Y-46425D02*
X57775Y-46975D01*
X57775Y-45200D02*
X57769Y-45253D01*
X57769Y-45253D02*
X57754Y-45304D01*
X57754Y-45304D02*
X57729Y-45352D01*
X57729Y-45352D02*
X57695Y-45393D01*
X57695Y-45393D02*
X57653Y-45427D01*
X57653Y-45427D02*
X57606Y-45453D01*
X57606Y-45453D02*
X57555Y-45469D01*
X57555Y-45469D02*
X57501Y-45474D01*
X57501Y-45474D02*
X57449Y-45470D01*
X57449Y-45470D02*
X57397Y-45454D01*
X57397Y-45454D02*
X57350Y-45430D01*
X57350Y-45430D02*
X57308Y-45396D01*
X57308Y-45396D02*
X57274Y-45355D01*
X57274Y-45355D02*
X57248Y-45308D01*
X57248Y-45308D02*
X57232Y-45257D01*
X57232Y-45257D02*
X57226Y-45203D01*
X57226Y-45203D02*
X57230Y-45151D01*
X57230Y-45151D02*
X57245Y-45099D01*
X57245Y-45099D02*
X57269Y-45052D01*
X57269Y-45052D02*
X57303Y-45009D01*
X57303Y-45009D02*
X57344Y-44975D01*
X57344Y-44975D02*
X57390Y-44949D01*
X57390Y-44949D02*
X57441Y-44932D01*
X57441Y-44932D02*
X57495Y-44926D01*
X57495Y-44926D02*
X57547Y-44930D01*
X57547Y-44930D02*
X57599Y-44944D01*
X57599Y-44944D02*
X57647Y-44968D01*
X57647Y-44968D02*
X57689Y-45001D01*
X57689Y-45001D02*
X57724Y-45042D01*
X57724Y-45042D02*
X57751Y-45089D01*
X57751Y-45089D02*
X57768Y-45140D01*
X57768Y-45140D02*
X57774Y-45193D01*
X57774Y-45193D02*
X57775Y-45200D01*
X66325Y-33175D02*
X66875Y-33175D01*
X66875Y-33175D02*
X66875Y-33725D01*
X66875Y-33725D02*
X66325Y-33725D01*
X66325Y-33725D02*
X66325Y-33175D01*
X66875Y-34450D02*
X66869Y-34503D01*
X66869Y-34503D02*
X66854Y-34554D01*
X66854Y-34554D02*
X66829Y-34602D01*
X66829Y-34602D02*
X66795Y-34643D01*
X66795Y-34643D02*
X66753Y-34677D01*
X66753Y-34677D02*
X66706Y-34703D01*
X66706Y-34703D02*
X66655Y-34719D01*
X66655Y-34719D02*
X66601Y-34724D01*
X66601Y-34724D02*
X66549Y-34720D01*
X66549Y-34720D02*
X66497Y-34704D01*
X66497Y-34704D02*
X66450Y-34680D01*
X66450Y-34680D02*
X66408Y-34646D01*
X66408Y-34646D02*
X66374Y-34605D01*
X66374Y-34605D02*
X66348Y-34558D01*
X66348Y-34558D02*
X66332Y-34507D01*
X66332Y-34507D02*
X66326Y-34453D01*
X66326Y-34453D02*
X66330Y-34401D01*
X66330Y-34401D02*
X66345Y-34349D01*
X66345Y-34349D02*
X66369Y-34302D01*
X66369Y-34302D02*
X66403Y-34259D01*
X66403Y-34259D02*
X66444Y-34225D01*
X66444Y-34225D02*
X66490Y-34199D01*
X66490Y-34199D02*
X66541Y-34182D01*
X66541Y-34182D02*
X66595Y-34176D01*
X66595Y-34176D02*
X66647Y-34180D01*
X66647Y-34180D02*
X66699Y-34194D01*
X66699Y-34194D02*
X66747Y-34218D01*
X66747Y-34218D02*
X66789Y-34251D01*
X66789Y-34251D02*
X66824Y-34292D01*
X66824Y-34292D02*
X66851Y-34339D01*
X66851Y-34339D02*
X66868Y-34390D01*
X66868Y-34390D02*
X66874Y-34443D01*
X66874Y-34443D02*
X66875Y-34450D01*
X66875Y-35450D02*
X66869Y-35503D01*
X66869Y-35503D02*
X66854Y-35554D01*
X66854Y-35554D02*
X66829Y-35602D01*
X66829Y-35602D02*
X66795Y-35643D01*
X66795Y-35643D02*
X66753Y-35677D01*
X66753Y-35677D02*
X66706Y-35703D01*
X66706Y-35703D02*
X66655Y-35719D01*
X66655Y-35719D02*
X66601Y-35724D01*
X66601Y-35724D02*
X66549Y-35720D01*
X66549Y-35720D02*
X66497Y-35704D01*
X66497Y-35704D02*
X66450Y-35680D01*
X66450Y-35680D02*
X66408Y-35646D01*
X66408Y-35646D02*
X66374Y-35605D01*
X66374Y-35605D02*
X66348Y-35558D01*
X66348Y-35558D02*
X66332Y-35507D01*
X66332Y-35507D02*
X66326Y-35453D01*
X66326Y-35453D02*
X66330Y-35401D01*
X66330Y-35401D02*
X66345Y-35349D01*
X66345Y-35349D02*
X66369Y-35302D01*
X66369Y-35302D02*
X66403Y-35259D01*
X66403Y-35259D02*
X66444Y-35225D01*
X66444Y-35225D02*
X66490Y-35199D01*
X66490Y-35199D02*
X66541Y-35182D01*
X66541Y-35182D02*
X66595Y-35176D01*
X66595Y-35176D02*
X66647Y-35180D01*
X66647Y-35180D02*
X66699Y-35194D01*
X66699Y-35194D02*
X66747Y-35218D01*
X66747Y-35218D02*
X66789Y-35251D01*
X66789Y-35251D02*
X66824Y-35292D01*
X66824Y-35292D02*
X66851Y-35339D01*
X66851Y-35339D02*
X66868Y-35390D01*
X66868Y-35390D02*
X66874Y-35443D01*
X66874Y-35443D02*
X66875Y-35450D01*
X66875Y-36450D02*
X66869Y-36503D01*
X66869Y-36503D02*
X66854Y-36554D01*
X66854Y-36554D02*
X66829Y-36602D01*
X66829Y-36602D02*
X66795Y-36643D01*
X66795Y-36643D02*
X66753Y-36677D01*
X66753Y-36677D02*
X66706Y-36703D01*
X66706Y-36703D02*
X66655Y-36719D01*
X66655Y-36719D02*
X66601Y-36724D01*
X66601Y-36724D02*
X66549Y-36720D01*
X66549Y-36720D02*
X66497Y-36704D01*
X66497Y-36704D02*
X66450Y-36680D01*
X66450Y-36680D02*
X66408Y-36646D01*
X66408Y-36646D02*
X66374Y-36605D01*
X66374Y-36605D02*
X66348Y-36558D01*
X66348Y-36558D02*
X66332Y-36507D01*
X66332Y-36507D02*
X66326Y-36453D01*
X66326Y-36453D02*
X66330Y-36401D01*
X66330Y-36401D02*
X66345Y-36349D01*
X66345Y-36349D02*
X66369Y-36302D01*
X66369Y-36302D02*
X66403Y-36259D01*
X66403Y-36259D02*
X66444Y-36225D01*
X66444Y-36225D02*
X66490Y-36199D01*
X66490Y-36199D02*
X66541Y-36182D01*
X66541Y-36182D02*
X66595Y-36176D01*
X66595Y-36176D02*
X66647Y-36180D01*
X66647Y-36180D02*
X66699Y-36194D01*
X66699Y-36194D02*
X66747Y-36218D01*
X66747Y-36218D02*
X66789Y-36251D01*
X66789Y-36251D02*
X66824Y-36292D01*
X66824Y-36292D02*
X66851Y-36339D01*
X66851Y-36339D02*
X66868Y-36390D01*
X66868Y-36390D02*
X66874Y-36443D01*
X66874Y-36443D02*
X66875Y-36450D01*
X69875Y-36450D02*
X69869Y-36503D01*
X69869Y-36503D02*
X69854Y-36554D01*
X69854Y-36554D02*
X69829Y-36602D01*
X69829Y-36602D02*
X69795Y-36643D01*
X69795Y-36643D02*
X69753Y-36677D01*
X69753Y-36677D02*
X69706Y-36703D01*
X69706Y-36703D02*
X69655Y-36719D01*
X69655Y-36719D02*
X69601Y-36724D01*
X69601Y-36724D02*
X69549Y-36720D01*
X69549Y-36720D02*
X69497Y-36704D01*
X69497Y-36704D02*
X69450Y-36680D01*
X69450Y-36680D02*
X69408Y-36646D01*
X69408Y-36646D02*
X69374Y-36605D01*
X69374Y-36605D02*
X69348Y-36558D01*
X69348Y-36558D02*
X69332Y-36507D01*
X69332Y-36507D02*
X69326Y-36453D01*
X69326Y-36453D02*
X69330Y-36401D01*
X69330Y-36401D02*
X69345Y-36349D01*
X69345Y-36349D02*
X69369Y-36302D01*
X69369Y-36302D02*
X69403Y-36259D01*
X69403Y-36259D02*
X69444Y-36225D01*
X69444Y-36225D02*
X69490Y-36199D01*
X69490Y-36199D02*
X69541Y-36182D01*
X69541Y-36182D02*
X69595Y-36176D01*
X69595Y-36176D02*
X69647Y-36180D01*
X69647Y-36180D02*
X69699Y-36194D01*
X69699Y-36194D02*
X69747Y-36218D01*
X69747Y-36218D02*
X69789Y-36251D01*
X69789Y-36251D02*
X69824Y-36292D01*
X69824Y-36292D02*
X69851Y-36339D01*
X69851Y-36339D02*
X69868Y-36390D01*
X69868Y-36390D02*
X69874Y-36443D01*
X69874Y-36443D02*
X69875Y-36450D01*
X69875Y-35450D02*
X69869Y-35503D01*
X69869Y-35503D02*
X69854Y-35554D01*
X69854Y-35554D02*
X69829Y-35602D01*
X69829Y-35602D02*
X69795Y-35643D01*
X69795Y-35643D02*
X69753Y-35677D01*
X69753Y-35677D02*
X69706Y-35703D01*
X69706Y-35703D02*
X69655Y-35719D01*
X69655Y-35719D02*
X69601Y-35724D01*
X69601Y-35724D02*
X69549Y-35720D01*
X69549Y-35720D02*
X69497Y-35704D01*
X69497Y-35704D02*
X69450Y-35680D01*
X69450Y-35680D02*
X69408Y-35646D01*
X69408Y-35646D02*
X69374Y-35605D01*
X69374Y-35605D02*
X69348Y-35558D01*
X69348Y-35558D02*
X69332Y-35507D01*
X69332Y-35507D02*
X69326Y-35453D01*
X69326Y-35453D02*
X69330Y-35401D01*
X69330Y-35401D02*
X69345Y-35349D01*
X69345Y-35349D02*
X69369Y-35302D01*
X69369Y-35302D02*
X69403Y-35259D01*
X69403Y-35259D02*
X69444Y-35225D01*
X69444Y-35225D02*
X69490Y-35199D01*
X69490Y-35199D02*
X69541Y-35182D01*
X69541Y-35182D02*
X69595Y-35176D01*
X69595Y-35176D02*
X69647Y-35180D01*
X69647Y-35180D02*
X69699Y-35194D01*
X69699Y-35194D02*
X69747Y-35218D01*
X69747Y-35218D02*
X69789Y-35251D01*
X69789Y-35251D02*
X69824Y-35292D01*
X69824Y-35292D02*
X69851Y-35339D01*
X69851Y-35339D02*
X69868Y-35390D01*
X69868Y-35390D02*
X69874Y-35443D01*
X69874Y-35443D02*
X69875Y-35450D01*
X69875Y-34450D02*
X69869Y-34503D01*
X69869Y-34503D02*
X69854Y-34554D01*
X69854Y-34554D02*
X69829Y-34602D01*
X69829Y-34602D02*
X69795Y-34643D01*
X69795Y-34643D02*
X69753Y-34677D01*
X69753Y-34677D02*
X69706Y-34703D01*
X69706Y-34703D02*
X69655Y-34719D01*
X69655Y-34719D02*
X69601Y-34724D01*
X69601Y-34724D02*
X69549Y-34720D01*
X69549Y-34720D02*
X69497Y-34704D01*
X69497Y-34704D02*
X69450Y-34680D01*
X69450Y-34680D02*
X69408Y-34646D01*
X69408Y-34646D02*
X69374Y-34605D01*
X69374Y-34605D02*
X69348Y-34558D01*
X69348Y-34558D02*
X69332Y-34507D01*
X69332Y-34507D02*
X69326Y-34453D01*
X69326Y-34453D02*
X69330Y-34401D01*
X69330Y-34401D02*
X69345Y-34349D01*
X69345Y-34349D02*
X69369Y-34302D01*
X69369Y-34302D02*
X69403Y-34259D01*
X69403Y-34259D02*
X69444Y-34225D01*
X69444Y-34225D02*
X69490Y-34199D01*
X69490Y-34199D02*
X69541Y-34182D01*
X69541Y-34182D02*
X69595Y-34176D01*
X69595Y-34176D02*
X69647Y-34180D01*
X69647Y-34180D02*
X69699Y-34194D01*
X69699Y-34194D02*
X69747Y-34218D01*
X69747Y-34218D02*
X69789Y-34251D01*
X69789Y-34251D02*
X69824Y-34292D01*
X69824Y-34292D02*
X69851Y-34339D01*
X69851Y-34339D02*
X69868Y-34390D01*
X69868Y-34390D02*
X69874Y-34443D01*
X69874Y-34443D02*
X69875Y-34450D01*
X69875Y-33450D02*
X69869Y-33503D01*
X69869Y-33503D02*
X69854Y-33554D01*
X69854Y-33554D02*
X69829Y-33602D01*
X69829Y-33602D02*
X69795Y-33643D01*
X69795Y-33643D02*
X69753Y-33677D01*
X69753Y-33677D02*
X69706Y-33703D01*
X69706Y-33703D02*
X69655Y-33719D01*
X69655Y-33719D02*
X69601Y-33724D01*
X69601Y-33724D02*
X69549Y-33720D01*
X69549Y-33720D02*
X69497Y-33704D01*
X69497Y-33704D02*
X69450Y-33680D01*
X69450Y-33680D02*
X69408Y-33646D01*
X69408Y-33646D02*
X69374Y-33605D01*
X69374Y-33605D02*
X69348Y-33558D01*
X69348Y-33558D02*
X69332Y-33507D01*
X69332Y-33507D02*
X69326Y-33453D01*
X69326Y-33453D02*
X69330Y-33401D01*
X69330Y-33401D02*
X69345Y-33349D01*
X69345Y-33349D02*
X69369Y-33302D01*
X69369Y-33302D02*
X69403Y-33259D01*
X69403Y-33259D02*
X69444Y-33225D01*
X69444Y-33225D02*
X69490Y-33199D01*
X69490Y-33199D02*
X69541Y-33182D01*
X69541Y-33182D02*
X69595Y-33176D01*
X69595Y-33176D02*
X69647Y-33180D01*
X69647Y-33180D02*
X69699Y-33194D01*
X69699Y-33194D02*
X69747Y-33218D01*
X69747Y-33218D02*
X69789Y-33251D01*
X69789Y-33251D02*
X69824Y-33292D01*
X69824Y-33292D02*
X69851Y-33339D01*
X69851Y-33339D02*
X69868Y-33390D01*
X69868Y-33390D02*
X69874Y-33443D01*
X69874Y-33443D02*
X69875Y-33450D01*
X55400Y-41450D02*
X54800Y-41450D01*
X54800Y-41450D02*
X54800Y-40850D01*
X54800Y-40850D02*
X55400Y-40850D01*
X55400Y-40850D02*
X55400Y-41450D01*
X54400Y-41150D02*
X54394Y-41208D01*
X54394Y-41208D02*
X54377Y-41264D01*
X54377Y-41264D02*
X54349Y-41316D01*
X54349Y-41316D02*
X54312Y-41361D01*
X54312Y-41361D02*
X54267Y-41398D01*
X54267Y-41398D02*
X54216Y-41426D01*
X54216Y-41426D02*
X54160Y-41443D01*
X54160Y-41443D02*
X54102Y-41449D01*
X54102Y-41449D02*
X54044Y-41444D01*
X54044Y-41444D02*
X53988Y-41428D01*
X53988Y-41428D02*
X53936Y-41401D01*
X53936Y-41401D02*
X53891Y-41364D01*
X53891Y-41364D02*
X53853Y-41319D01*
X53853Y-41319D02*
X53825Y-41268D01*
X53825Y-41268D02*
X53807Y-41212D01*
X53807Y-41212D02*
X53801Y-41154D01*
X53801Y-41154D02*
X53805Y-41096D01*
X53805Y-41096D02*
X53822Y-41040D01*
X53822Y-41040D02*
X53848Y-40988D01*
X53848Y-40988D02*
X53885Y-40942D01*
X53885Y-40942D02*
X53929Y-40904D01*
X53929Y-40904D02*
X53980Y-40876D01*
X53980Y-40876D02*
X54036Y-40857D01*
X54036Y-40857D02*
X54094Y-40851D01*
X54094Y-40851D02*
X54152Y-40855D01*
X54152Y-40855D02*
X54208Y-40871D01*
X54208Y-40871D02*
X54260Y-40897D01*
X54260Y-40897D02*
X54306Y-40933D01*
X54306Y-40933D02*
X54345Y-40978D01*
X54345Y-40978D02*
X54374Y-41028D01*
X54374Y-41028D02*
X54392Y-41084D01*
X54392Y-41084D02*
X54399Y-41142D01*
X54399Y-41142D02*
X54400Y-41150D01*
X55400Y-40150D02*
X55394Y-40208D01*
X55394Y-40208D02*
X55377Y-40264D01*
X55377Y-40264D02*
X55349Y-40316D01*
X55349Y-40316D02*
X55312Y-40361D01*
X55312Y-40361D02*
X55267Y-40398D01*
X55267Y-40398D02*
X55216Y-40426D01*
X55216Y-40426D02*
X55160Y-40443D01*
X55160Y-40443D02*
X55102Y-40449D01*
X55102Y-40449D02*
X55044Y-40444D01*
X55044Y-40444D02*
X54988Y-40428D01*
X54988Y-40428D02*
X54936Y-40401D01*
X54936Y-40401D02*
X54891Y-40364D01*
X54891Y-40364D02*
X54853Y-40319D01*
X54853Y-40319D02*
X54825Y-40268D01*
X54825Y-40268D02*
X54807Y-40212D01*
X54807Y-40212D02*
X54801Y-40154D01*
X54801Y-40154D02*
X54805Y-40096D01*
X54805Y-40096D02*
X54822Y-40040D01*
X54822Y-40040D02*
X54848Y-39988D01*
X54848Y-39988D02*
X54885Y-39942D01*
X54885Y-39942D02*
X54929Y-39904D01*
X54929Y-39904D02*
X54980Y-39876D01*
X54980Y-39876D02*
X55036Y-39857D01*
X55036Y-39857D02*
X55094Y-39851D01*
X55094Y-39851D02*
X55152Y-39855D01*
X55152Y-39855D02*
X55208Y-39871D01*
X55208Y-39871D02*
X55260Y-39897D01*
X55260Y-39897D02*
X55306Y-39933D01*
X55306Y-39933D02*
X55345Y-39978D01*
X55345Y-39978D02*
X55374Y-40028D01*
X55374Y-40028D02*
X55392Y-40084D01*
X55392Y-40084D02*
X55399Y-40142D01*
X55399Y-40142D02*
X55400Y-40150D01*
X54400Y-40150D02*
X54394Y-40208D01*
X54394Y-40208D02*
X54377Y-40264D01*
X54377Y-40264D02*
X54349Y-40316D01*
X54349Y-40316D02*
X54312Y-40361D01*
X54312Y-40361D02*
X54267Y-40398D01*
X54267Y-40398D02*
X54216Y-40426D01*
X54216Y-40426D02*
X54160Y-40443D01*
X54160Y-40443D02*
X54102Y-40449D01*
X54102Y-40449D02*
X54044Y-40444D01*
X54044Y-40444D02*
X53988Y-40428D01*
X53988Y-40428D02*
X53936Y-40401D01*
X53936Y-40401D02*
X53891Y-40364D01*
X53891Y-40364D02*
X53853Y-40319D01*
X53853Y-40319D02*
X53825Y-40268D01*
X53825Y-40268D02*
X53807Y-40212D01*
X53807Y-40212D02*
X53801Y-40154D01*
X53801Y-40154D02*
X53805Y-40096D01*
X53805Y-40096D02*
X53822Y-40040D01*
X53822Y-40040D02*
X53848Y-39988D01*
X53848Y-39988D02*
X53885Y-39942D01*
X53885Y-39942D02*
X53929Y-39904D01*
X53929Y-39904D02*
X53980Y-39876D01*
X53980Y-39876D02*
X54036Y-39857D01*
X54036Y-39857D02*
X54094Y-39851D01*
X54094Y-39851D02*
X54152Y-39855D01*
X54152Y-39855D02*
X54208Y-39871D01*
X54208Y-39871D02*
X54260Y-39897D01*
X54260Y-39897D02*
X54306Y-39933D01*
X54306Y-39933D02*
X54345Y-39978D01*
X54345Y-39978D02*
X54374Y-40028D01*
X54374Y-40028D02*
X54392Y-40084D01*
X54392Y-40084D02*
X54399Y-40142D01*
X54399Y-40142D02*
X54400Y-40150D01*
X55400Y-39150D02*
X55394Y-39208D01*
X55394Y-39208D02*
X55377Y-39264D01*
X55377Y-39264D02*
X55349Y-39316D01*
X55349Y-39316D02*
X55312Y-39361D01*
X55312Y-39361D02*
X55267Y-39398D01*
X55267Y-39398D02*
X55216Y-39426D01*
X55216Y-39426D02*
X55160Y-39443D01*
X55160Y-39443D02*
X55102Y-39449D01*
X55102Y-39449D02*
X55044Y-39444D01*
X55044Y-39444D02*
X54988Y-39428D01*
X54988Y-39428D02*
X54936Y-39401D01*
X54936Y-39401D02*
X54891Y-39364D01*
X54891Y-39364D02*
X54853Y-39319D01*
X54853Y-39319D02*
X54825Y-39268D01*
X54825Y-39268D02*
X54807Y-39212D01*
X54807Y-39212D02*
X54801Y-39154D01*
X54801Y-39154D02*
X54805Y-39096D01*
X54805Y-39096D02*
X54822Y-39040D01*
X54822Y-39040D02*
X54848Y-38988D01*
X54848Y-38988D02*
X54885Y-38942D01*
X54885Y-38942D02*
X54929Y-38904D01*
X54929Y-38904D02*
X54980Y-38876D01*
X54980Y-38876D02*
X55036Y-38857D01*
X55036Y-38857D02*
X55094Y-38851D01*
X55094Y-38851D02*
X55152Y-38855D01*
X55152Y-38855D02*
X55208Y-38871D01*
X55208Y-38871D02*
X55260Y-38897D01*
X55260Y-38897D02*
X55306Y-38933D01*
X55306Y-38933D02*
X55345Y-38978D01*
X55345Y-38978D02*
X55374Y-39028D01*
X55374Y-39028D02*
X55392Y-39084D01*
X55392Y-39084D02*
X55399Y-39142D01*
X55399Y-39142D02*
X55400Y-39150D01*
X54400Y-39150D02*
X54394Y-39208D01*
X54394Y-39208D02*
X54377Y-39264D01*
X54377Y-39264D02*
X54349Y-39316D01*
X54349Y-39316D02*
X54312Y-39361D01*
X54312Y-39361D02*
X54267Y-39398D01*
X54267Y-39398D02*
X54216Y-39426D01*
X54216Y-39426D02*
X54160Y-39443D01*
X54160Y-39443D02*
X54102Y-39449D01*
X54102Y-39449D02*
X54044Y-39444D01*
X54044Y-39444D02*
X53988Y-39428D01*
X53988Y-39428D02*
X53936Y-39401D01*
X53936Y-39401D02*
X53891Y-39364D01*
X53891Y-39364D02*
X53853Y-39319D01*
X53853Y-39319D02*
X53825Y-39268D01*
X53825Y-39268D02*
X53807Y-39212D01*
X53807Y-39212D02*
X53801Y-39154D01*
X53801Y-39154D02*
X53805Y-39096D01*
X53805Y-39096D02*
X53822Y-39040D01*
X53822Y-39040D02*
X53848Y-38988D01*
X53848Y-38988D02*
X53885Y-38942D01*
X53885Y-38942D02*
X53929Y-38904D01*
X53929Y-38904D02*
X53980Y-38876D01*
X53980Y-38876D02*
X54036Y-38857D01*
X54036Y-38857D02*
X54094Y-38851D01*
X54094Y-38851D02*
X54152Y-38855D01*
X54152Y-38855D02*
X54208Y-38871D01*
X54208Y-38871D02*
X54260Y-38897D01*
X54260Y-38897D02*
X54306Y-38933D01*
X54306Y-38933D02*
X54345Y-38978D01*
X54345Y-38978D02*
X54374Y-39028D01*
X54374Y-39028D02*
X54392Y-39084D01*
X54392Y-39084D02*
X54399Y-39142D01*
X54399Y-39142D02*
X54400Y-39150D01*
X60900Y-35150D02*
X60900Y-34550D01*
X60900Y-34550D02*
X61500Y-34550D01*
X61500Y-34550D02*
X61500Y-35150D01*
X61500Y-35150D02*
X60900Y-35150D01*
X61500Y-33850D02*
X61494Y-33908D01*
X61494Y-33908D02*
X61477Y-33964D01*
X61477Y-33964D02*
X61449Y-34016D01*
X61449Y-34016D02*
X61412Y-34061D01*
X61412Y-34061D02*
X61367Y-34098D01*
X61367Y-34098D02*
X61316Y-34126D01*
X61316Y-34126D02*
X61260Y-34143D01*
X61260Y-34143D02*
X61202Y-34149D01*
X61202Y-34149D02*
X61144Y-34144D01*
X61144Y-34144D02*
X61088Y-34128D01*
X61088Y-34128D02*
X61036Y-34101D01*
X61036Y-34101D02*
X60991Y-34064D01*
X60991Y-34064D02*
X60953Y-34019D01*
X60953Y-34019D02*
X60925Y-33968D01*
X60925Y-33968D02*
X60907Y-33912D01*
X60907Y-33912D02*
X60901Y-33854D01*
X60901Y-33854D02*
X60905Y-33796D01*
X60905Y-33796D02*
X60922Y-33740D01*
X60922Y-33740D02*
X60948Y-33688D01*
X60948Y-33688D02*
X60985Y-33642D01*
X60985Y-33642D02*
X61029Y-33604D01*
X61029Y-33604D02*
X61080Y-33576D01*
X61080Y-33576D02*
X61136Y-33557D01*
X61136Y-33557D02*
X61194Y-33551D01*
X61194Y-33551D02*
X61252Y-33555D01*
X61252Y-33555D02*
X61308Y-33571D01*
X61308Y-33571D02*
X61360Y-33597D01*
X61360Y-33597D02*
X61406Y-33633D01*
X61406Y-33633D02*
X61445Y-33678D01*
X61445Y-33678D02*
X61474Y-33728D01*
X61474Y-33728D02*
X61492Y-33784D01*
X61492Y-33784D02*
X61499Y-33842D01*
X61499Y-33842D02*
X61500Y-33850D01*
X62500Y-34850D02*
X62494Y-34908D01*
X62494Y-34908D02*
X62477Y-34964D01*
X62477Y-34964D02*
X62449Y-35016D01*
X62449Y-35016D02*
X62412Y-35061D01*
X62412Y-35061D02*
X62367Y-35098D01*
X62367Y-35098D02*
X62316Y-35126D01*
X62316Y-35126D02*
X62260Y-35143D01*
X62260Y-35143D02*
X62202Y-35149D01*
X62202Y-35149D02*
X62144Y-35144D01*
X62144Y-35144D02*
X62088Y-35128D01*
X62088Y-35128D02*
X62036Y-35101D01*
X62036Y-35101D02*
X61991Y-35064D01*
X61991Y-35064D02*
X61953Y-35019D01*
X61953Y-35019D02*
X61925Y-34968D01*
X61925Y-34968D02*
X61907Y-34912D01*
X61907Y-34912D02*
X61901Y-34854D01*
X61901Y-34854D02*
X61905Y-34796D01*
X61905Y-34796D02*
X61922Y-34740D01*
X61922Y-34740D02*
X61948Y-34688D01*
X61948Y-34688D02*
X61985Y-34642D01*
X61985Y-34642D02*
X62029Y-34604D01*
X62029Y-34604D02*
X62080Y-34576D01*
X62080Y-34576D02*
X62136Y-34557D01*
X62136Y-34557D02*
X62194Y-34551D01*
X62194Y-34551D02*
X62252Y-34555D01*
X62252Y-34555D02*
X62308Y-34571D01*
X62308Y-34571D02*
X62360Y-34597D01*
X62360Y-34597D02*
X62406Y-34633D01*
X62406Y-34633D02*
X62445Y-34678D01*
X62445Y-34678D02*
X62474Y-34728D01*
X62474Y-34728D02*
X62492Y-34784D01*
X62492Y-34784D02*
X62499Y-34842D01*
X62499Y-34842D02*
X62500Y-34850D01*
X62500Y-33850D02*
X62494Y-33908D01*
X62494Y-33908D02*
X62477Y-33964D01*
X62477Y-33964D02*
X62449Y-34016D01*
X62449Y-34016D02*
X62412Y-34061D01*
X62412Y-34061D02*
X62367Y-34098D01*
X62367Y-34098D02*
X62316Y-34126D01*
X62316Y-34126D02*
X62260Y-34143D01*
X62260Y-34143D02*
X62202Y-34149D01*
X62202Y-34149D02*
X62144Y-34144D01*
X62144Y-34144D02*
X62088Y-34128D01*
X62088Y-34128D02*
X62036Y-34101D01*
X62036Y-34101D02*
X61991Y-34064D01*
X61991Y-34064D02*
X61953Y-34019D01*
X61953Y-34019D02*
X61925Y-33968D01*
X61925Y-33968D02*
X61907Y-33912D01*
X61907Y-33912D02*
X61901Y-33854D01*
X61901Y-33854D02*
X61905Y-33796D01*
X61905Y-33796D02*
X61922Y-33740D01*
X61922Y-33740D02*
X61948Y-33688D01*
X61948Y-33688D02*
X61985Y-33642D01*
X61985Y-33642D02*
X62029Y-33604D01*
X62029Y-33604D02*
X62080Y-33576D01*
X62080Y-33576D02*
X62136Y-33557D01*
X62136Y-33557D02*
X62194Y-33551D01*
X62194Y-33551D02*
X62252Y-33555D01*
X62252Y-33555D02*
X62308Y-33571D01*
X62308Y-33571D02*
X62360Y-33597D01*
X62360Y-33597D02*
X62406Y-33633D01*
X62406Y-33633D02*
X62445Y-33678D01*
X62445Y-33678D02*
X62474Y-33728D01*
X62474Y-33728D02*
X62492Y-33784D01*
X62492Y-33784D02*
X62499Y-33842D01*
X62499Y-33842D02*
X62500Y-33850D01*
X63500Y-34850D02*
X63494Y-34908D01*
X63494Y-34908D02*
X63477Y-34964D01*
X63477Y-34964D02*
X63449Y-35016D01*
X63449Y-35016D02*
X63412Y-35061D01*
X63412Y-35061D02*
X63367Y-35098D01*
X63367Y-35098D02*
X63316Y-35126D01*
X63316Y-35126D02*
X63260Y-35143D01*
X63260Y-35143D02*
X63202Y-35149D01*
X63202Y-35149D02*
X63144Y-35144D01*
X63144Y-35144D02*
X63088Y-35128D01*
X63088Y-35128D02*
X63036Y-35101D01*
X63036Y-35101D02*
X62991Y-35064D01*
X62991Y-35064D02*
X62953Y-35019D01*
X62953Y-35019D02*
X62925Y-34968D01*
X62925Y-34968D02*
X62907Y-34912D01*
X62907Y-34912D02*
X62901Y-34854D01*
X62901Y-34854D02*
X62905Y-34796D01*
X62905Y-34796D02*
X62922Y-34740D01*
X62922Y-34740D02*
X62948Y-34688D01*
X62948Y-34688D02*
X62985Y-34642D01*
X62985Y-34642D02*
X63029Y-34604D01*
X63029Y-34604D02*
X63080Y-34576D01*
X63080Y-34576D02*
X63136Y-34557D01*
X63136Y-34557D02*
X63194Y-34551D01*
X63194Y-34551D02*
X63252Y-34555D01*
X63252Y-34555D02*
X63308Y-34571D01*
X63308Y-34571D02*
X63360Y-34597D01*
X63360Y-34597D02*
X63406Y-34633D01*
X63406Y-34633D02*
X63445Y-34678D01*
X63445Y-34678D02*
X63474Y-34728D01*
X63474Y-34728D02*
X63492Y-34784D01*
X63492Y-34784D02*
X63499Y-34842D01*
X63499Y-34842D02*
X63500Y-34850D01*
X63500Y-33850D02*
X63494Y-33908D01*
X63494Y-33908D02*
X63477Y-33964D01*
X63477Y-33964D02*
X63449Y-34016D01*
X63449Y-34016D02*
X63412Y-34061D01*
X63412Y-34061D02*
X63367Y-34098D01*
X63367Y-34098D02*
X63316Y-34126D01*
X63316Y-34126D02*
X63260Y-34143D01*
X63260Y-34143D02*
X63202Y-34149D01*
X63202Y-34149D02*
X63144Y-34144D01*
X63144Y-34144D02*
X63088Y-34128D01*
X63088Y-34128D02*
X63036Y-34101D01*
X63036Y-34101D02*
X62991Y-34064D01*
X62991Y-34064D02*
X62953Y-34019D01*
X62953Y-34019D02*
X62925Y-33968D01*
X62925Y-33968D02*
X62907Y-33912D01*
X62907Y-33912D02*
X62901Y-33854D01*
X62901Y-33854D02*
X62905Y-33796D01*
X62905Y-33796D02*
X62922Y-33740D01*
X62922Y-33740D02*
X62948Y-33688D01*
X62948Y-33688D02*
X62985Y-33642D01*
X62985Y-33642D02*
X63029Y-33604D01*
X63029Y-33604D02*
X63080Y-33576D01*
X63080Y-33576D02*
X63136Y-33557D01*
X63136Y-33557D02*
X63194Y-33551D01*
X63194Y-33551D02*
X63252Y-33555D01*
X63252Y-33555D02*
X63308Y-33571D01*
X63308Y-33571D02*
X63360Y-33597D01*
X63360Y-33597D02*
X63406Y-33633D01*
X63406Y-33633D02*
X63445Y-33678D01*
X63445Y-33678D02*
X63474Y-33728D01*
X63474Y-33728D02*
X63492Y-33784D01*
X63492Y-33784D02*
X63499Y-33842D01*
X63499Y-33842D02*
X63500Y-33850D01*
X64500Y-34850D02*
X64494Y-34908D01*
X64494Y-34908D02*
X64477Y-34964D01*
X64477Y-34964D02*
X64449Y-35016D01*
X64449Y-35016D02*
X64412Y-35061D01*
X64412Y-35061D02*
X64367Y-35098D01*
X64367Y-35098D02*
X64316Y-35126D01*
X64316Y-35126D02*
X64260Y-35143D01*
X64260Y-35143D02*
X64202Y-35149D01*
X64202Y-35149D02*
X64144Y-35144D01*
X64144Y-35144D02*
X64088Y-35128D01*
X64088Y-35128D02*
X64036Y-35101D01*
X64036Y-35101D02*
X63991Y-35064D01*
X63991Y-35064D02*
X63953Y-35019D01*
X63953Y-35019D02*
X63925Y-34968D01*
X63925Y-34968D02*
X63907Y-34912D01*
X63907Y-34912D02*
X63901Y-34854D01*
X63901Y-34854D02*
X63905Y-34796D01*
X63905Y-34796D02*
X63922Y-34740D01*
X63922Y-34740D02*
X63948Y-34688D01*
X63948Y-34688D02*
X63985Y-34642D01*
X63985Y-34642D02*
X64029Y-34604D01*
X64029Y-34604D02*
X64080Y-34576D01*
X64080Y-34576D02*
X64136Y-34557D01*
X64136Y-34557D02*
X64194Y-34551D01*
X64194Y-34551D02*
X64252Y-34555D01*
X64252Y-34555D02*
X64308Y-34571D01*
X64308Y-34571D02*
X64360Y-34597D01*
X64360Y-34597D02*
X64406Y-34633D01*
X64406Y-34633D02*
X64445Y-34678D01*
X64445Y-34678D02*
X64474Y-34728D01*
X64474Y-34728D02*
X64492Y-34784D01*
X64492Y-34784D02*
X64499Y-34842D01*
X64499Y-34842D02*
X64500Y-34850D01*
X64500Y-33850D02*
X64494Y-33908D01*
X64494Y-33908D02*
X64477Y-33964D01*
X64477Y-33964D02*
X64449Y-34016D01*
X64449Y-34016D02*
X64412Y-34061D01*
X64412Y-34061D02*
X64367Y-34098D01*
X64367Y-34098D02*
X64316Y-34126D01*
X64316Y-34126D02*
X64260Y-34143D01*
X64260Y-34143D02*
X64202Y-34149D01*
X64202Y-34149D02*
X64144Y-34144D01*
X64144Y-34144D02*
X64088Y-34128D01*
X64088Y-34128D02*
X64036Y-34101D01*
X64036Y-34101D02*
X63991Y-34064D01*
X63991Y-34064D02*
X63953Y-34019D01*
X63953Y-34019D02*
X63925Y-33968D01*
X63925Y-33968D02*
X63907Y-33912D01*
X63907Y-33912D02*
X63901Y-33854D01*
X63901Y-33854D02*
X63905Y-33796D01*
X63905Y-33796D02*
X63922Y-33740D01*
X63922Y-33740D02*
X63948Y-33688D01*
X63948Y-33688D02*
X63985Y-33642D01*
X63985Y-33642D02*
X64029Y-33604D01*
X64029Y-33604D02*
X64080Y-33576D01*
X64080Y-33576D02*
X64136Y-33557D01*
X64136Y-33557D02*
X64194Y-33551D01*
X64194Y-33551D02*
X64252Y-33555D01*
X64252Y-33555D02*
X64308Y-33571D01*
X64308Y-33571D02*
X64360Y-33597D01*
X64360Y-33597D02*
X64406Y-33633D01*
X64406Y-33633D02*
X64445Y-33678D01*
X64445Y-33678D02*
X64474Y-33728D01*
X64474Y-33728D02*
X64492Y-33784D01*
X64492Y-33784D02*
X64499Y-33842D01*
X64499Y-33842D02*
X64500Y-33850D01*
X55400Y-35150D02*
X55400Y-34550D01*
X55400Y-34550D02*
X56000Y-34550D01*
X56000Y-34550D02*
X56000Y-35150D01*
X56000Y-35150D02*
X55400Y-35150D01*
X56000Y-33850D02*
X55994Y-33908D01*
X55994Y-33908D02*
X55977Y-33964D01*
X55977Y-33964D02*
X55949Y-34016D01*
X55949Y-34016D02*
X55912Y-34061D01*
X55912Y-34061D02*
X55867Y-34098D01*
X55867Y-34098D02*
X55816Y-34126D01*
X55816Y-34126D02*
X55760Y-34143D01*
X55760Y-34143D02*
X55702Y-34149D01*
X55702Y-34149D02*
X55644Y-34144D01*
X55644Y-34144D02*
X55588Y-34128D01*
X55588Y-34128D02*
X55536Y-34101D01*
X55536Y-34101D02*
X55491Y-34064D01*
X55491Y-34064D02*
X55453Y-34019D01*
X55453Y-34019D02*
X55425Y-33968D01*
X55425Y-33968D02*
X55407Y-33912D01*
X55407Y-33912D02*
X55401Y-33854D01*
X55401Y-33854D02*
X55405Y-33796D01*
X55405Y-33796D02*
X55422Y-33740D01*
X55422Y-33740D02*
X55448Y-33688D01*
X55448Y-33688D02*
X55485Y-33642D01*
X55485Y-33642D02*
X55529Y-33604D01*
X55529Y-33604D02*
X55580Y-33576D01*
X55580Y-33576D02*
X55636Y-33557D01*
X55636Y-33557D02*
X55694Y-33551D01*
X55694Y-33551D02*
X55752Y-33555D01*
X55752Y-33555D02*
X55808Y-33571D01*
X55808Y-33571D02*
X55860Y-33597D01*
X55860Y-33597D02*
X55906Y-33633D01*
X55906Y-33633D02*
X55945Y-33678D01*
X55945Y-33678D02*
X55974Y-33728D01*
X55974Y-33728D02*
X55992Y-33784D01*
X55992Y-33784D02*
X55999Y-33842D01*
X55999Y-33842D02*
X56000Y-33850D01*
X57000Y-34850D02*
X56994Y-34908D01*
X56994Y-34908D02*
X56977Y-34964D01*
X56977Y-34964D02*
X56949Y-35016D01*
X56949Y-35016D02*
X56912Y-35061D01*
X56912Y-35061D02*
X56867Y-35098D01*
X56867Y-35098D02*
X56816Y-35126D01*
X56816Y-35126D02*
X56760Y-35143D01*
X56760Y-35143D02*
X56702Y-35149D01*
X56702Y-35149D02*
X56644Y-35144D01*
X56644Y-35144D02*
X56588Y-35128D01*
X56588Y-35128D02*
X56536Y-35101D01*
X56536Y-35101D02*
X56491Y-35064D01*
X56491Y-35064D02*
X56453Y-35019D01*
X56453Y-35019D02*
X56425Y-34968D01*
X56425Y-34968D02*
X56407Y-34912D01*
X56407Y-34912D02*
X56401Y-34854D01*
X56401Y-34854D02*
X56405Y-34796D01*
X56405Y-34796D02*
X56422Y-34740D01*
X56422Y-34740D02*
X56448Y-34688D01*
X56448Y-34688D02*
X56485Y-34642D01*
X56485Y-34642D02*
X56529Y-34604D01*
X56529Y-34604D02*
X56580Y-34576D01*
X56580Y-34576D02*
X56636Y-34557D01*
X56636Y-34557D02*
X56694Y-34551D01*
X56694Y-34551D02*
X56752Y-34555D01*
X56752Y-34555D02*
X56808Y-34571D01*
X56808Y-34571D02*
X56860Y-34597D01*
X56860Y-34597D02*
X56906Y-34633D01*
X56906Y-34633D02*
X56945Y-34678D01*
X56945Y-34678D02*
X56974Y-34728D01*
X56974Y-34728D02*
X56992Y-34784D01*
X56992Y-34784D02*
X56999Y-34842D01*
X56999Y-34842D02*
X57000Y-34850D01*
X57000Y-33850D02*
X56994Y-33908D01*
X56994Y-33908D02*
X56977Y-33964D01*
X56977Y-33964D02*
X56949Y-34016D01*
X56949Y-34016D02*
X56912Y-34061D01*
X56912Y-34061D02*
X56867Y-34098D01*
X56867Y-34098D02*
X56816Y-34126D01*
X56816Y-34126D02*
X56760Y-34143D01*
X56760Y-34143D02*
X56702Y-34149D01*
X56702Y-34149D02*
X56644Y-34144D01*
X56644Y-34144D02*
X56588Y-34128D01*
X56588Y-34128D02*
X56536Y-34101D01*
X56536Y-34101D02*
X56491Y-34064D01*
X56491Y-34064D02*
X56453Y-34019D01*
X56453Y-34019D02*
X56425Y-33968D01*
X56425Y-33968D02*
X56407Y-33912D01*
X56407Y-33912D02*
X56401Y-33854D01*
X56401Y-33854D02*
X56405Y-33796D01*
X56405Y-33796D02*
X56422Y-33740D01*
X56422Y-33740D02*
X56448Y-33688D01*
X56448Y-33688D02*
X56485Y-33642D01*
X56485Y-33642D02*
X56529Y-33604D01*
X56529Y-33604D02*
X56580Y-33576D01*
X56580Y-33576D02*
X56636Y-33557D01*
X56636Y-33557D02*
X56694Y-33551D01*
X56694Y-33551D02*
X56752Y-33555D01*
X56752Y-33555D02*
X56808Y-33571D01*
X56808Y-33571D02*
X56860Y-33597D01*
X56860Y-33597D02*
X56906Y-33633D01*
X56906Y-33633D02*
X56945Y-33678D01*
X56945Y-33678D02*
X56974Y-33728D01*
X56974Y-33728D02*
X56992Y-33784D01*
X56992Y-33784D02*
X56999Y-33842D01*
X56999Y-33842D02*
X57000Y-33850D01*
X58000Y-34850D02*
X57994Y-34908D01*
X57994Y-34908D02*
X57977Y-34964D01*
X57977Y-34964D02*
X57949Y-35016D01*
X57949Y-35016D02*
X57912Y-35061D01*
X57912Y-35061D02*
X57867Y-35098D01*
X57867Y-35098D02*
X57816Y-35126D01*
X57816Y-35126D02*
X57760Y-35143D01*
X57760Y-35143D02*
X57702Y-35149D01*
X57702Y-35149D02*
X57644Y-35144D01*
X57644Y-35144D02*
X57588Y-35128D01*
X57588Y-35128D02*
X57536Y-35101D01*
X57536Y-35101D02*
X57491Y-35064D01*
X57491Y-35064D02*
X57453Y-35019D01*
X57453Y-35019D02*
X57425Y-34968D01*
X57425Y-34968D02*
X57407Y-34912D01*
X57407Y-34912D02*
X57401Y-34854D01*
X57401Y-34854D02*
X57405Y-34796D01*
X57405Y-34796D02*
X57422Y-34740D01*
X57422Y-34740D02*
X57448Y-34688D01*
X57448Y-34688D02*
X57485Y-34642D01*
X57485Y-34642D02*
X57529Y-34604D01*
X57529Y-34604D02*
X57580Y-34576D01*
X57580Y-34576D02*
X57636Y-34557D01*
X57636Y-34557D02*
X57694Y-34551D01*
X57694Y-34551D02*
X57752Y-34555D01*
X57752Y-34555D02*
X57808Y-34571D01*
X57808Y-34571D02*
X57860Y-34597D01*
X57860Y-34597D02*
X57906Y-34633D01*
X57906Y-34633D02*
X57945Y-34678D01*
X57945Y-34678D02*
X57974Y-34728D01*
X57974Y-34728D02*
X57992Y-34784D01*
X57992Y-34784D02*
X57999Y-34842D01*
X57999Y-34842D02*
X58000Y-34850D01*
X58000Y-33850D02*
X57994Y-33908D01*
X57994Y-33908D02*
X57977Y-33964D01*
X57977Y-33964D02*
X57949Y-34016D01*
X57949Y-34016D02*
X57912Y-34061D01*
X57912Y-34061D02*
X57867Y-34098D01*
X57867Y-34098D02*
X57816Y-34126D01*
X57816Y-34126D02*
X57760Y-34143D01*
X57760Y-34143D02*
X57702Y-34149D01*
X57702Y-34149D02*
X57644Y-34144D01*
X57644Y-34144D02*
X57588Y-34128D01*
X57588Y-34128D02*
X57536Y-34101D01*
X57536Y-34101D02*
X57491Y-34064D01*
X57491Y-34064D02*
X57453Y-34019D01*
X57453Y-34019D02*
X57425Y-33968D01*
X57425Y-33968D02*
X57407Y-33912D01*
X57407Y-33912D02*
X57401Y-33854D01*
X57401Y-33854D02*
X57405Y-33796D01*
X57405Y-33796D02*
X57422Y-33740D01*
X57422Y-33740D02*
X57448Y-33688D01*
X57448Y-33688D02*
X57485Y-33642D01*
X57485Y-33642D02*
X57529Y-33604D01*
X57529Y-33604D02*
X57580Y-33576D01*
X57580Y-33576D02*
X57636Y-33557D01*
X57636Y-33557D02*
X57694Y-33551D01*
X57694Y-33551D02*
X57752Y-33555D01*
X57752Y-33555D02*
X57808Y-33571D01*
X57808Y-33571D02*
X57860Y-33597D01*
X57860Y-33597D02*
X57906Y-33633D01*
X57906Y-33633D02*
X57945Y-33678D01*
X57945Y-33678D02*
X57974Y-33728D01*
X57974Y-33728D02*
X57992Y-33784D01*
X57992Y-33784D02*
X57999Y-33842D01*
X57999Y-33842D02*
X58000Y-33850D01*
X59000Y-34850D02*
X58994Y-34908D01*
X58994Y-34908D02*
X58977Y-34964D01*
X58977Y-34964D02*
X58949Y-35016D01*
X58949Y-35016D02*
X58912Y-35061D01*
X58912Y-35061D02*
X58867Y-35098D01*
X58867Y-35098D02*
X58816Y-35126D01*
X58816Y-35126D02*
X58760Y-35143D01*
X58760Y-35143D02*
X58702Y-35149D01*
X58702Y-35149D02*
X58644Y-35144D01*
X58644Y-35144D02*
X58588Y-35128D01*
X58588Y-35128D02*
X58536Y-35101D01*
X58536Y-35101D02*
X58491Y-35064D01*
X58491Y-35064D02*
X58453Y-35019D01*
X58453Y-35019D02*
X58425Y-34968D01*
X58425Y-34968D02*
X58407Y-34912D01*
X58407Y-34912D02*
X58401Y-34854D01*
X58401Y-34854D02*
X58405Y-34796D01*
X58405Y-34796D02*
X58422Y-34740D01*
X58422Y-34740D02*
X58448Y-34688D01*
X58448Y-34688D02*
X58485Y-34642D01*
X58485Y-34642D02*
X58529Y-34604D01*
X58529Y-34604D02*
X58580Y-34576D01*
X58580Y-34576D02*
X58636Y-34557D01*
X58636Y-34557D02*
X58694Y-34551D01*
X58694Y-34551D02*
X58752Y-34555D01*
X58752Y-34555D02*
X58808Y-34571D01*
X58808Y-34571D02*
X58860Y-34597D01*
X58860Y-34597D02*
X58906Y-34633D01*
X58906Y-34633D02*
X58945Y-34678D01*
X58945Y-34678D02*
X58974Y-34728D01*
X58974Y-34728D02*
X58992Y-34784D01*
X58992Y-34784D02*
X58999Y-34842D01*
X58999Y-34842D02*
X59000Y-34850D01*
X59000Y-33850D02*
X58994Y-33908D01*
X58994Y-33908D02*
X58977Y-33964D01*
X58977Y-33964D02*
X58949Y-34016D01*
X58949Y-34016D02*
X58912Y-34061D01*
X58912Y-34061D02*
X58867Y-34098D01*
X58867Y-34098D02*
X58816Y-34126D01*
X58816Y-34126D02*
X58760Y-34143D01*
X58760Y-34143D02*
X58702Y-34149D01*
X58702Y-34149D02*
X58644Y-34144D01*
X58644Y-34144D02*
X58588Y-34128D01*
X58588Y-34128D02*
X58536Y-34101D01*
X58536Y-34101D02*
X58491Y-34064D01*
X58491Y-34064D02*
X58453Y-34019D01*
X58453Y-34019D02*
X58425Y-33968D01*
X58425Y-33968D02*
X58407Y-33912D01*
X58407Y-33912D02*
X58401Y-33854D01*
X58401Y-33854D02*
X58405Y-33796D01*
X58405Y-33796D02*
X58422Y-33740D01*
X58422Y-33740D02*
X58448Y-33688D01*
X58448Y-33688D02*
X58485Y-33642D01*
X58485Y-33642D02*
X58529Y-33604D01*
X58529Y-33604D02*
X58580Y-33576D01*
X58580Y-33576D02*
X58636Y-33557D01*
X58636Y-33557D02*
X58694Y-33551D01*
X58694Y-33551D02*
X58752Y-33555D01*
X58752Y-33555D02*
X58808Y-33571D01*
X58808Y-33571D02*
X58860Y-33597D01*
X58860Y-33597D02*
X58906Y-33633D01*
X58906Y-33633D02*
X58945Y-33678D01*
X58945Y-33678D02*
X58974Y-33728D01*
X58974Y-33728D02*
X58992Y-33784D01*
X58992Y-33784D02*
X58999Y-33842D01*
X58999Y-33842D02*
X59000Y-33850D01*
X71475Y-47725D02*
X71475Y-47175D01*
X71475Y-47175D02*
X72025Y-47175D01*
X72025Y-47175D02*
X72025Y-47725D01*
X72025Y-47725D02*
X71475Y-47725D01*
X73025Y-47450D02*
X73019Y-47503D01*
X73019Y-47503D02*
X73004Y-47554D01*
X73004Y-47554D02*
X72979Y-47602D01*
X72979Y-47602D02*
X72945Y-47643D01*
X72945Y-47643D02*
X72903Y-47677D01*
X72903Y-47677D02*
X72856Y-47703D01*
X72856Y-47703D02*
X72805Y-47719D01*
X72805Y-47719D02*
X72751Y-47724D01*
X72751Y-47724D02*
X72699Y-47720D01*
X72699Y-47720D02*
X72647Y-47704D01*
X72647Y-47704D02*
X72600Y-47680D01*
X72600Y-47680D02*
X72558Y-47646D01*
X72558Y-47646D02*
X72524Y-47605D01*
X72524Y-47605D02*
X72498Y-47558D01*
X72498Y-47558D02*
X72482Y-47507D01*
X72482Y-47507D02*
X72476Y-47453D01*
X72476Y-47453D02*
X72480Y-47401D01*
X72480Y-47401D02*
X72495Y-47349D01*
X72495Y-47349D02*
X72519Y-47302D01*
X72519Y-47302D02*
X72553Y-47259D01*
X72553Y-47259D02*
X72594Y-47225D01*
X72594Y-47225D02*
X72640Y-47199D01*
X72640Y-47199D02*
X72691Y-47182D01*
X72691Y-47182D02*
X72745Y-47176D01*
X72745Y-47176D02*
X72797Y-47180D01*
X72797Y-47180D02*
X72849Y-47194D01*
X72849Y-47194D02*
X72897Y-47218D01*
X72897Y-47218D02*
X72939Y-47251D01*
X72939Y-47251D02*
X72974Y-47292D01*
X72974Y-47292D02*
X73001Y-47339D01*
X73001Y-47339D02*
X73018Y-47390D01*
X73018Y-47390D02*
X73024Y-47443D01*
X73024Y-47443D02*
X73025Y-47450D01*
X60925Y-36125D02*
X60925Y-35575D01*
X60925Y-35575D02*
X61475Y-35575D01*
X61475Y-35575D02*
X61475Y-36125D01*
X61475Y-36125D02*
X60925Y-36125D01*
X62475Y-35850D02*
X62469Y-35903D01*
X62469Y-35903D02*
X62454Y-35954D01*
X62454Y-35954D02*
X62429Y-36002D01*
X62429Y-36002D02*
X62395Y-36043D01*
X62395Y-36043D02*
X62353Y-36077D01*
X62353Y-36077D02*
X62306Y-36103D01*
X62306Y-36103D02*
X62255Y-36119D01*
X62255Y-36119D02*
X62201Y-36124D01*
X62201Y-36124D02*
X62149Y-36120D01*
X62149Y-36120D02*
X62097Y-36104D01*
X62097Y-36104D02*
X62050Y-36080D01*
X62050Y-36080D02*
X62008Y-36046D01*
X62008Y-36046D02*
X61974Y-36005D01*
X61974Y-36005D02*
X61948Y-35958D01*
X61948Y-35958D02*
X61932Y-35907D01*
X61932Y-35907D02*
X61926Y-35853D01*
X61926Y-35853D02*
X61930Y-35801D01*
X61930Y-35801D02*
X61945Y-35749D01*
X61945Y-35749D02*
X61969Y-35702D01*
X61969Y-35702D02*
X62003Y-35659D01*
X62003Y-35659D02*
X62044Y-35625D01*
X62044Y-35625D02*
X62090Y-35599D01*
X62090Y-35599D02*
X62141Y-35582D01*
X62141Y-35582D02*
X62195Y-35576D01*
X62195Y-35576D02*
X62247Y-35580D01*
X62247Y-35580D02*
X62299Y-35594D01*
X62299Y-35594D02*
X62347Y-35618D01*
X62347Y-35618D02*
X62389Y-35651D01*
X62389Y-35651D02*
X62424Y-35692D01*
X62424Y-35692D02*
X62451Y-35739D01*
X62451Y-35739D02*
X62468Y-35790D01*
X62468Y-35790D02*
X62474Y-35843D01*
X62474Y-35843D02*
X62475Y-35850D01*
X63475Y-35850D02*
X63469Y-35903D01*
X63469Y-35903D02*
X63454Y-35954D01*
X63454Y-35954D02*
X63429Y-36002D01*
X63429Y-36002D02*
X63395Y-36043D01*
X63395Y-36043D02*
X63353Y-36077D01*
X63353Y-36077D02*
X63306Y-36103D01*
X63306Y-36103D02*
X63255Y-36119D01*
X63255Y-36119D02*
X63201Y-36124D01*
X63201Y-36124D02*
X63149Y-36120D01*
X63149Y-36120D02*
X63097Y-36104D01*
X63097Y-36104D02*
X63050Y-36080D01*
X63050Y-36080D02*
X63008Y-36046D01*
X63008Y-36046D02*
X62974Y-36005D01*
X62974Y-36005D02*
X62948Y-35958D01*
X62948Y-35958D02*
X62932Y-35907D01*
X62932Y-35907D02*
X62926Y-35853D01*
X62926Y-35853D02*
X62930Y-35801D01*
X62930Y-35801D02*
X62945Y-35749D01*
X62945Y-35749D02*
X62969Y-35702D01*
X62969Y-35702D02*
X63003Y-35659D01*
X63003Y-35659D02*
X63044Y-35625D01*
X63044Y-35625D02*
X63090Y-35599D01*
X63090Y-35599D02*
X63141Y-35582D01*
X63141Y-35582D02*
X63195Y-35576D01*
X63195Y-35576D02*
X63247Y-35580D01*
X63247Y-35580D02*
X63299Y-35594D01*
X63299Y-35594D02*
X63347Y-35618D01*
X63347Y-35618D02*
X63389Y-35651D01*
X63389Y-35651D02*
X63424Y-35692D01*
X63424Y-35692D02*
X63451Y-35739D01*
X63451Y-35739D02*
X63468Y-35790D01*
X63468Y-35790D02*
X63474Y-35843D01*
X63474Y-35843D02*
X63475Y-35850D01*
X64475Y-35850D02*
X64469Y-35903D01*
X64469Y-35903D02*
X64454Y-35954D01*
X64454Y-35954D02*
X64429Y-36002D01*
X64429Y-36002D02*
X64395Y-36043D01*
X64395Y-36043D02*
X64353Y-36077D01*
X64353Y-36077D02*
X64306Y-36103D01*
X64306Y-36103D02*
X64255Y-36119D01*
X64255Y-36119D02*
X64201Y-36124D01*
X64201Y-36124D02*
X64149Y-36120D01*
X64149Y-36120D02*
X64097Y-36104D01*
X64097Y-36104D02*
X64050Y-36080D01*
X64050Y-36080D02*
X64008Y-36046D01*
X64008Y-36046D02*
X63974Y-36005D01*
X63974Y-36005D02*
X63948Y-35958D01*
X63948Y-35958D02*
X63932Y-35907D01*
X63932Y-35907D02*
X63926Y-35853D01*
X63926Y-35853D02*
X63930Y-35801D01*
X63930Y-35801D02*
X63945Y-35749D01*
X63945Y-35749D02*
X63969Y-35702D01*
X63969Y-35702D02*
X64003Y-35659D01*
X64003Y-35659D02*
X64044Y-35625D01*
X64044Y-35625D02*
X64090Y-35599D01*
X64090Y-35599D02*
X64141Y-35582D01*
X64141Y-35582D02*
X64195Y-35576D01*
X64195Y-35576D02*
X64247Y-35580D01*
X64247Y-35580D02*
X64299Y-35594D01*
X64299Y-35594D02*
X64347Y-35618D01*
X64347Y-35618D02*
X64389Y-35651D01*
X64389Y-35651D02*
X64424Y-35692D01*
X64424Y-35692D02*
X64451Y-35739D01*
X64451Y-35739D02*
X64468Y-35790D01*
X64468Y-35790D02*
X64474Y-35843D01*
X64474Y-35843D02*
X64475Y-35850D01*
X66325Y-47725D02*
X66325Y-47175D01*
X66325Y-47175D02*
X66875Y-47175D01*
X66875Y-47175D02*
X66875Y-47725D01*
X66875Y-47725D02*
X66325Y-47725D01*
X67875Y-47450D02*
X67869Y-47503D01*
X67869Y-47503D02*
X67854Y-47554D01*
X67854Y-47554D02*
X67829Y-47602D01*
X67829Y-47602D02*
X67795Y-47643D01*
X67795Y-47643D02*
X67753Y-47677D01*
X67753Y-47677D02*
X67706Y-47703D01*
X67706Y-47703D02*
X67655Y-47719D01*
X67655Y-47719D02*
X67601Y-47724D01*
X67601Y-47724D02*
X67549Y-47720D01*
X67549Y-47720D02*
X67497Y-47704D01*
X67497Y-47704D02*
X67450Y-47680D01*
X67450Y-47680D02*
X67408Y-47646D01*
X67408Y-47646D02*
X67374Y-47605D01*
X67374Y-47605D02*
X67348Y-47558D01*
X67348Y-47558D02*
X67332Y-47507D01*
X67332Y-47507D02*
X67326Y-47453D01*
X67326Y-47453D02*
X67330Y-47401D01*
X67330Y-47401D02*
X67345Y-47349D01*
X67345Y-47349D02*
X67369Y-47302D01*
X67369Y-47302D02*
X67403Y-47259D01*
X67403Y-47259D02*
X67444Y-47225D01*
X67444Y-47225D02*
X67490Y-47199D01*
X67490Y-47199D02*
X67541Y-47182D01*
X67541Y-47182D02*
X67595Y-47176D01*
X67595Y-47176D02*
X67647Y-47180D01*
X67647Y-47180D02*
X67699Y-47194D01*
X67699Y-47194D02*
X67747Y-47218D01*
X67747Y-47218D02*
X67789Y-47251D01*
X67789Y-47251D02*
X67824Y-47292D01*
X67824Y-47292D02*
X67851Y-47339D01*
X67851Y-47339D02*
X67868Y-47390D01*
X67868Y-47390D02*
X67874Y-47443D01*
X67874Y-47443D02*
X67875Y-47450D01*
X68875Y-47450D02*
X68869Y-47503D01*
X68869Y-47503D02*
X68854Y-47554D01*
X68854Y-47554D02*
X68829Y-47602D01*
X68829Y-47602D02*
X68795Y-47643D01*
X68795Y-47643D02*
X68753Y-47677D01*
X68753Y-47677D02*
X68706Y-47703D01*
X68706Y-47703D02*
X68655Y-47719D01*
X68655Y-47719D02*
X68601Y-47724D01*
X68601Y-47724D02*
X68549Y-47720D01*
X68549Y-47720D02*
X68497Y-47704D01*
X68497Y-47704D02*
X68450Y-47680D01*
X68450Y-47680D02*
X68408Y-47646D01*
X68408Y-47646D02*
X68374Y-47605D01*
X68374Y-47605D02*
X68348Y-47558D01*
X68348Y-47558D02*
X68332Y-47507D01*
X68332Y-47507D02*
X68326Y-47453D01*
X68326Y-47453D02*
X68330Y-47401D01*
X68330Y-47401D02*
X68345Y-47349D01*
X68345Y-47349D02*
X68369Y-47302D01*
X68369Y-47302D02*
X68403Y-47259D01*
X68403Y-47259D02*
X68444Y-47225D01*
X68444Y-47225D02*
X68490Y-47199D01*
X68490Y-47199D02*
X68541Y-47182D01*
X68541Y-47182D02*
X68595Y-47176D01*
X68595Y-47176D02*
X68647Y-47180D01*
X68647Y-47180D02*
X68699Y-47194D01*
X68699Y-47194D02*
X68747Y-47218D01*
X68747Y-47218D02*
X68789Y-47251D01*
X68789Y-47251D02*
X68824Y-47292D01*
X68824Y-47292D02*
X68851Y-47339D01*
X68851Y-47339D02*
X68868Y-47390D01*
X68868Y-47390D02*
X68874Y-47443D01*
X68874Y-47443D02*
X68875Y-47450D01*
X69875Y-47450D02*
X69869Y-47503D01*
X69869Y-47503D02*
X69854Y-47554D01*
X69854Y-47554D02*
X69829Y-47602D01*
X69829Y-47602D02*
X69795Y-47643D01*
X69795Y-47643D02*
X69753Y-47677D01*
X69753Y-47677D02*
X69706Y-47703D01*
X69706Y-47703D02*
X69655Y-47719D01*
X69655Y-47719D02*
X69601Y-47724D01*
X69601Y-47724D02*
X69549Y-47720D01*
X69549Y-47720D02*
X69497Y-47704D01*
X69497Y-47704D02*
X69450Y-47680D01*
X69450Y-47680D02*
X69408Y-47646D01*
X69408Y-47646D02*
X69374Y-47605D01*
X69374Y-47605D02*
X69348Y-47558D01*
X69348Y-47558D02*
X69332Y-47507D01*
X69332Y-47507D02*
X69326Y-47453D01*
X69326Y-47453D02*
X69330Y-47401D01*
X69330Y-47401D02*
X69345Y-47349D01*
X69345Y-47349D02*
X69369Y-47302D01*
X69369Y-47302D02*
X69403Y-47259D01*
X69403Y-47259D02*
X69444Y-47225D01*
X69444Y-47225D02*
X69490Y-47199D01*
X69490Y-47199D02*
X69541Y-47182D01*
X69541Y-47182D02*
X69595Y-47176D01*
X69595Y-47176D02*
X69647Y-47180D01*
X69647Y-47180D02*
X69699Y-47194D01*
X69699Y-47194D02*
X69747Y-47218D01*
X69747Y-47218D02*
X69789Y-47251D01*
X69789Y-47251D02*
X69824Y-47292D01*
X69824Y-47292D02*
X69851Y-47339D01*
X69851Y-47339D02*
X69868Y-47390D01*
X69868Y-47390D02*
X69874Y-47443D01*
X69874Y-47443D02*
X69875Y-47450D01*
X55425Y-36125D02*
X55425Y-35575D01*
X55425Y-35575D02*
X55975Y-35575D01*
X55975Y-35575D02*
X55975Y-36125D01*
X55975Y-36125D02*
X55425Y-36125D01*
X56975Y-35850D02*
X56969Y-35903D01*
X56969Y-35903D02*
X56954Y-35954D01*
X56954Y-35954D02*
X56929Y-36002D01*
X56929Y-36002D02*
X56895Y-36043D01*
X56895Y-36043D02*
X56853Y-36077D01*
X56853Y-36077D02*
X56806Y-36103D01*
X56806Y-36103D02*
X56755Y-36119D01*
X56755Y-36119D02*
X56701Y-36124D01*
X56701Y-36124D02*
X56649Y-36120D01*
X56649Y-36120D02*
X56597Y-36104D01*
X56597Y-36104D02*
X56550Y-36080D01*
X56550Y-36080D02*
X56508Y-36046D01*
X56508Y-36046D02*
X56474Y-36005D01*
X56474Y-36005D02*
X56448Y-35958D01*
X56448Y-35958D02*
X56432Y-35907D01*
X56432Y-35907D02*
X56426Y-35853D01*
X56426Y-35853D02*
X56430Y-35801D01*
X56430Y-35801D02*
X56445Y-35749D01*
X56445Y-35749D02*
X56469Y-35702D01*
X56469Y-35702D02*
X56503Y-35659D01*
X56503Y-35659D02*
X56544Y-35625D01*
X56544Y-35625D02*
X56590Y-35599D01*
X56590Y-35599D02*
X56641Y-35582D01*
X56641Y-35582D02*
X56695Y-35576D01*
X56695Y-35576D02*
X56747Y-35580D01*
X56747Y-35580D02*
X56799Y-35594D01*
X56799Y-35594D02*
X56847Y-35618D01*
X56847Y-35618D02*
X56889Y-35651D01*
X56889Y-35651D02*
X56924Y-35692D01*
X56924Y-35692D02*
X56951Y-35739D01*
X56951Y-35739D02*
X56968Y-35790D01*
X56968Y-35790D02*
X56974Y-35843D01*
X56974Y-35843D02*
X56975Y-35850D01*
X57975Y-35850D02*
X57969Y-35903D01*
X57969Y-35903D02*
X57954Y-35954D01*
X57954Y-35954D02*
X57929Y-36002D01*
X57929Y-36002D02*
X57895Y-36043D01*
X57895Y-36043D02*
X57853Y-36077D01*
X57853Y-36077D02*
X57806Y-36103D01*
X57806Y-36103D02*
X57755Y-36119D01*
X57755Y-36119D02*
X57701Y-36124D01*
X57701Y-36124D02*
X57649Y-36120D01*
X57649Y-36120D02*
X57597Y-36104D01*
X57597Y-36104D02*
X57550Y-36080D01*
X57550Y-36080D02*
X57508Y-36046D01*
X57508Y-36046D02*
X57474Y-36005D01*
X57474Y-36005D02*
X57448Y-35958D01*
X57448Y-35958D02*
X57432Y-35907D01*
X57432Y-35907D02*
X57426Y-35853D01*
X57426Y-35853D02*
X57430Y-35801D01*
X57430Y-35801D02*
X57445Y-35749D01*
X57445Y-35749D02*
X57469Y-35702D01*
X57469Y-35702D02*
X57503Y-35659D01*
X57503Y-35659D02*
X57544Y-35625D01*
X57544Y-35625D02*
X57590Y-35599D01*
X57590Y-35599D02*
X57641Y-35582D01*
X57641Y-35582D02*
X57695Y-35576D01*
X57695Y-35576D02*
X57747Y-35580D01*
X57747Y-35580D02*
X57799Y-35594D01*
X57799Y-35594D02*
X57847Y-35618D01*
X57847Y-35618D02*
X57889Y-35651D01*
X57889Y-35651D02*
X57924Y-35692D01*
X57924Y-35692D02*
X57951Y-35739D01*
X57951Y-35739D02*
X57968Y-35790D01*
X57968Y-35790D02*
X57974Y-35843D01*
X57974Y-35843D02*
X57975Y-35850D01*
X58975Y-35850D02*
X58969Y-35903D01*
X58969Y-35903D02*
X58954Y-35954D01*
X58954Y-35954D02*
X58929Y-36002D01*
X58929Y-36002D02*
X58895Y-36043D01*
X58895Y-36043D02*
X58853Y-36077D01*
X58853Y-36077D02*
X58806Y-36103D01*
X58806Y-36103D02*
X58755Y-36119D01*
X58755Y-36119D02*
X58701Y-36124D01*
X58701Y-36124D02*
X58649Y-36120D01*
X58649Y-36120D02*
X58597Y-36104D01*
X58597Y-36104D02*
X58550Y-36080D01*
X58550Y-36080D02*
X58508Y-36046D01*
X58508Y-36046D02*
X58474Y-36005D01*
X58474Y-36005D02*
X58448Y-35958D01*
X58448Y-35958D02*
X58432Y-35907D01*
X58432Y-35907D02*
X58426Y-35853D01*
X58426Y-35853D02*
X58430Y-35801D01*
X58430Y-35801D02*
X58445Y-35749D01*
X58445Y-35749D02*
X58469Y-35702D01*
X58469Y-35702D02*
X58503Y-35659D01*
X58503Y-35659D02*
X58544Y-35625D01*
X58544Y-35625D02*
X58590Y-35599D01*
X58590Y-35599D02*
X58641Y-35582D01*
X58641Y-35582D02*
X58695Y-35576D01*
X58695Y-35576D02*
X58747Y-35580D01*
X58747Y-35580D02*
X58799Y-35594D01*
X58799Y-35594D02*
X58847Y-35618D01*
X58847Y-35618D02*
X58889Y-35651D01*
X58889Y-35651D02*
X58924Y-35692D01*
X58924Y-35692D02*
X58951Y-35739D01*
X58951Y-35739D02*
X58968Y-35790D01*
X58968Y-35790D02*
X58974Y-35843D01*
X58974Y-35843D02*
X58975Y-35850D01*
X51775Y-33350D02*
X51769Y-33403D01*
X51769Y-33403D02*
X51754Y-33454D01*
X51754Y-33454D02*
X51729Y-33502D01*
X51729Y-33502D02*
X51695Y-33543D01*
X51695Y-33543D02*
X51653Y-33577D01*
X51653Y-33577D02*
X51606Y-33603D01*
X51606Y-33603D02*
X51555Y-33619D01*
X51555Y-33619D02*
X51501Y-33624D01*
X51501Y-33624D02*
X51449Y-33620D01*
X51449Y-33620D02*
X51397Y-33604D01*
X51397Y-33604D02*
X51350Y-33580D01*
X51350Y-33580D02*
X51308Y-33546D01*
X51308Y-33546D02*
X51274Y-33505D01*
X51274Y-33505D02*
X51248Y-33458D01*
X51248Y-33458D02*
X51232Y-33407D01*
X51232Y-33407D02*
X51226Y-33353D01*
X51226Y-33353D02*
X51230Y-33301D01*
X51230Y-33301D02*
X51245Y-33249D01*
X51245Y-33249D02*
X51269Y-33202D01*
X51269Y-33202D02*
X51303Y-33159D01*
X51303Y-33159D02*
X51344Y-33125D01*
X51344Y-33125D02*
X51390Y-33099D01*
X51390Y-33099D02*
X51441Y-33082D01*
X51441Y-33082D02*
X51495Y-33076D01*
X51495Y-33076D02*
X51547Y-33080D01*
X51547Y-33080D02*
X51599Y-33094D01*
X51599Y-33094D02*
X51647Y-33118D01*
X51647Y-33118D02*
X51689Y-33151D01*
X51689Y-33151D02*
X51724Y-33192D01*
X51724Y-33192D02*
X51751Y-33239D01*
X51751Y-33239D02*
X51768Y-33290D01*
X51768Y-33290D02*
X51774Y-33343D01*
X51774Y-33343D02*
X51775Y-33350D01*
X53775Y-33350D02*
X53769Y-33403D01*
X53769Y-33403D02*
X53754Y-33454D01*
X53754Y-33454D02*
X53729Y-33502D01*
X53729Y-33502D02*
X53695Y-33543D01*
X53695Y-33543D02*
X53653Y-33577D01*
X53653Y-33577D02*
X53606Y-33603D01*
X53606Y-33603D02*
X53555Y-33619D01*
X53555Y-33619D02*
X53501Y-33624D01*
X53501Y-33624D02*
X53449Y-33620D01*
X53449Y-33620D02*
X53397Y-33604D01*
X53397Y-33604D02*
X53350Y-33580D01*
X53350Y-33580D02*
X53308Y-33546D01*
X53308Y-33546D02*
X53274Y-33505D01*
X53274Y-33505D02*
X53248Y-33458D01*
X53248Y-33458D02*
X53232Y-33407D01*
X53232Y-33407D02*
X53226Y-33353D01*
X53226Y-33353D02*
X53230Y-33301D01*
X53230Y-33301D02*
X53245Y-33249D01*
X53245Y-33249D02*
X53269Y-33202D01*
X53269Y-33202D02*
X53303Y-33159D01*
X53303Y-33159D02*
X53344Y-33125D01*
X53344Y-33125D02*
X53390Y-33099D01*
X53390Y-33099D02*
X53441Y-33082D01*
X53441Y-33082D02*
X53495Y-33076D01*
X53495Y-33076D02*
X53547Y-33080D01*
X53547Y-33080D02*
X53599Y-33094D01*
X53599Y-33094D02*
X53647Y-33118D01*
X53647Y-33118D02*
X53689Y-33151D01*
X53689Y-33151D02*
X53724Y-33192D01*
X53724Y-33192D02*
X53751Y-33239D01*
X53751Y-33239D02*
X53768Y-33290D01*
X53768Y-33290D02*
X53774Y-33343D01*
X53774Y-33343D02*
X53775Y-33350D01*
X51775Y-36350D02*
X51769Y-36403D01*
X51769Y-36403D02*
X51754Y-36454D01*
X51754Y-36454D02*
X51729Y-36502D01*
X51729Y-36502D02*
X51695Y-36543D01*
X51695Y-36543D02*
X51653Y-36577D01*
X51653Y-36577D02*
X51606Y-36603D01*
X51606Y-36603D02*
X51555Y-36619D01*
X51555Y-36619D02*
X51501Y-36624D01*
X51501Y-36624D02*
X51449Y-36620D01*
X51449Y-36620D02*
X51397Y-36604D01*
X51397Y-36604D02*
X51350Y-36580D01*
X51350Y-36580D02*
X51308Y-36546D01*
X51308Y-36546D02*
X51274Y-36505D01*
X51274Y-36505D02*
X51248Y-36458D01*
X51248Y-36458D02*
X51232Y-36407D01*
X51232Y-36407D02*
X51226Y-36353D01*
X51226Y-36353D02*
X51230Y-36301D01*
X51230Y-36301D02*
X51245Y-36249D01*
X51245Y-36249D02*
X51269Y-36202D01*
X51269Y-36202D02*
X51303Y-36159D01*
X51303Y-36159D02*
X51344Y-36125D01*
X51344Y-36125D02*
X51390Y-36099D01*
X51390Y-36099D02*
X51441Y-36082D01*
X51441Y-36082D02*
X51495Y-36076D01*
X51495Y-36076D02*
X51547Y-36080D01*
X51547Y-36080D02*
X51599Y-36094D01*
X51599Y-36094D02*
X51647Y-36118D01*
X51647Y-36118D02*
X51689Y-36151D01*
X51689Y-36151D02*
X51724Y-36192D01*
X51724Y-36192D02*
X51751Y-36239D01*
X51751Y-36239D02*
X51768Y-36290D01*
X51768Y-36290D02*
X51774Y-36343D01*
X51774Y-36343D02*
X51775Y-36350D01*
X53775Y-36350D02*
X53769Y-36403D01*
X53769Y-36403D02*
X53754Y-36454D01*
X53754Y-36454D02*
X53729Y-36502D01*
X53729Y-36502D02*
X53695Y-36543D01*
X53695Y-36543D02*
X53653Y-36577D01*
X53653Y-36577D02*
X53606Y-36603D01*
X53606Y-36603D02*
X53555Y-36619D01*
X53555Y-36619D02*
X53501Y-36624D01*
X53501Y-36624D02*
X53449Y-36620D01*
X53449Y-36620D02*
X53397Y-36604D01*
X53397Y-36604D02*
X53350Y-36580D01*
X53350Y-36580D02*
X53308Y-36546D01*
X53308Y-36546D02*
X53274Y-36505D01*
X53274Y-36505D02*
X53248Y-36458D01*
X53248Y-36458D02*
X53232Y-36407D01*
X53232Y-36407D02*
X53226Y-36353D01*
X53226Y-36353D02*
X53230Y-36301D01*
X53230Y-36301D02*
X53245Y-36249D01*
X53245Y-36249D02*
X53269Y-36202D01*
X53269Y-36202D02*
X53303Y-36159D01*
X53303Y-36159D02*
X53344Y-36125D01*
X53344Y-36125D02*
X53390Y-36099D01*
X53390Y-36099D02*
X53441Y-36082D01*
X53441Y-36082D02*
X53495Y-36076D01*
X53495Y-36076D02*
X53547Y-36080D01*
X53547Y-36080D02*
X53599Y-36094D01*
X53599Y-36094D02*
X53647Y-36118D01*
X53647Y-36118D02*
X53689Y-36151D01*
X53689Y-36151D02*
X53724Y-36192D01*
X53724Y-36192D02*
X53751Y-36239D01*
X53751Y-36239D02*
X53768Y-36290D01*
X53768Y-36290D02*
X53774Y-36343D01*
X53774Y-36343D02*
X53775Y-36350D01*
X51175Y-42875D02*
X51175Y-43425D01*
X51175Y-43425D02*
X50625Y-43425D01*
X50625Y-43425D02*
X50625Y-42875D01*
X50625Y-42875D02*
X51175Y-42875D01*
X52175Y-43150D02*
X52169Y-43203D01*
X52169Y-43203D02*
X52154Y-43254D01*
X52154Y-43254D02*
X52129Y-43302D01*
X52129Y-43302D02*
X52095Y-43343D01*
X52095Y-43343D02*
X52053Y-43377D01*
X52053Y-43377D02*
X52006Y-43403D01*
X52006Y-43403D02*
X51955Y-43419D01*
X51955Y-43419D02*
X51901Y-43424D01*
X51901Y-43424D02*
X51849Y-43420D01*
X51849Y-43420D02*
X51797Y-43404D01*
X51797Y-43404D02*
X51750Y-43380D01*
X51750Y-43380D02*
X51708Y-43346D01*
X51708Y-43346D02*
X51674Y-43305D01*
X51674Y-43305D02*
X51648Y-43258D01*
X51648Y-43258D02*
X51632Y-43207D01*
X51632Y-43207D02*
X51626Y-43153D01*
X51626Y-43153D02*
X51630Y-43101D01*
X51630Y-43101D02*
X51645Y-43049D01*
X51645Y-43049D02*
X51669Y-43002D01*
X51669Y-43002D02*
X51703Y-42959D01*
X51703Y-42959D02*
X51744Y-42925D01*
X51744Y-42925D02*
X51790Y-42899D01*
X51790Y-42899D02*
X51841Y-42882D01*
X51841Y-42882D02*
X51895Y-42876D01*
X51895Y-42876D02*
X51947Y-42880D01*
X51947Y-42880D02*
X51999Y-42894D01*
X51999Y-42894D02*
X52047Y-42918D01*
X52047Y-42918D02*
X52089Y-42951D01*
X52089Y-42951D02*
X52124Y-42992D01*
X52124Y-42992D02*
X52151Y-43039D01*
X52151Y-43039D02*
X52168Y-43090D01*
X52168Y-43090D02*
X52174Y-43143D01*
X52174Y-43143D02*
X52175Y-43150D01*
X52175Y-42150D02*
X52169Y-42203D01*
X52169Y-42203D02*
X52154Y-42254D01*
X52154Y-42254D02*
X52129Y-42302D01*
X52129Y-42302D02*
X52095Y-42343D01*
X52095Y-42343D02*
X52053Y-42377D01*
X52053Y-42377D02*
X52006Y-42403D01*
X52006Y-42403D02*
X51955Y-42419D01*
X51955Y-42419D02*
X51901Y-42424D01*
X51901Y-42424D02*
X51849Y-42420D01*
X51849Y-42420D02*
X51797Y-42404D01*
X51797Y-42404D02*
X51750Y-42380D01*
X51750Y-42380D02*
X51708Y-42346D01*
X51708Y-42346D02*
X51674Y-42305D01*
X51674Y-42305D02*
X51648Y-42258D01*
X51648Y-42258D02*
X51632Y-42207D01*
X51632Y-42207D02*
X51626Y-42153D01*
X51626Y-42153D02*
X51630Y-42101D01*
X51630Y-42101D02*
X51645Y-42049D01*
X51645Y-42049D02*
X51669Y-42002D01*
X51669Y-42002D02*
X51703Y-41959D01*
X51703Y-41959D02*
X51744Y-41925D01*
X51744Y-41925D02*
X51790Y-41899D01*
X51790Y-41899D02*
X51841Y-41882D01*
X51841Y-41882D02*
X51895Y-41876D01*
X51895Y-41876D02*
X51947Y-41880D01*
X51947Y-41880D02*
X51999Y-41894D01*
X51999Y-41894D02*
X52047Y-41918D01*
X52047Y-41918D02*
X52089Y-41951D01*
X52089Y-41951D02*
X52124Y-41992D01*
X52124Y-41992D02*
X52151Y-42039D01*
X52151Y-42039D02*
X52168Y-42090D01*
X52168Y-42090D02*
X52174Y-42143D01*
X52174Y-42143D02*
X52175Y-42150D01*
X59825Y-47725D02*
X59825Y-47175D01*
X59825Y-47175D02*
X60375Y-47175D01*
X60375Y-47175D02*
X60375Y-47725D01*
X60375Y-47725D02*
X59825Y-47725D01*
X61375Y-47450D02*
X61369Y-47503D01*
X61369Y-47503D02*
X61354Y-47554D01*
X61354Y-47554D02*
X61329Y-47602D01*
X61329Y-47602D02*
X61295Y-47643D01*
X61295Y-47643D02*
X61253Y-47677D01*
X61253Y-47677D02*
X61206Y-47703D01*
X61206Y-47703D02*
X61155Y-47719D01*
X61155Y-47719D02*
X61101Y-47724D01*
X61101Y-47724D02*
X61049Y-47720D01*
X61049Y-47720D02*
X60997Y-47704D01*
X60997Y-47704D02*
X60950Y-47680D01*
X60950Y-47680D02*
X60908Y-47646D01*
X60908Y-47646D02*
X60874Y-47605D01*
X60874Y-47605D02*
X60848Y-47558D01*
X60848Y-47558D02*
X60832Y-47507D01*
X60832Y-47507D02*
X60826Y-47453D01*
X60826Y-47453D02*
X60830Y-47401D01*
X60830Y-47401D02*
X60845Y-47349D01*
X60845Y-47349D02*
X60869Y-47302D01*
X60869Y-47302D02*
X60903Y-47259D01*
X60903Y-47259D02*
X60944Y-47225D01*
X60944Y-47225D02*
X60990Y-47199D01*
X60990Y-47199D02*
X61041Y-47182D01*
X61041Y-47182D02*
X61095Y-47176D01*
X61095Y-47176D02*
X61147Y-47180D01*
X61147Y-47180D02*
X61199Y-47194D01*
X61199Y-47194D02*
X61247Y-47218D01*
X61247Y-47218D02*
X61289Y-47251D01*
X61289Y-47251D02*
X61324Y-47292D01*
X61324Y-47292D02*
X61351Y-47339D01*
X61351Y-47339D02*
X61368Y-47390D01*
X61368Y-47390D02*
X61374Y-47443D01*
X61374Y-47443D02*
X61375Y-47450D01*
X62375Y-47450D02*
X62369Y-47503D01*
X62369Y-47503D02*
X62354Y-47554D01*
X62354Y-47554D02*
X62329Y-47602D01*
X62329Y-47602D02*
X62295Y-47643D01*
X62295Y-47643D02*
X62253Y-47677D01*
X62253Y-47677D02*
X62206Y-47703D01*
X62206Y-47703D02*
X62155Y-47719D01*
X62155Y-47719D02*
X62101Y-47724D01*
X62101Y-47724D02*
X62049Y-47720D01*
X62049Y-47720D02*
X61997Y-47704D01*
X61997Y-47704D02*
X61950Y-47680D01*
X61950Y-47680D02*
X61908Y-47646D01*
X61908Y-47646D02*
X61874Y-47605D01*
X61874Y-47605D02*
X61848Y-47558D01*
X61848Y-47558D02*
X61832Y-47507D01*
X61832Y-47507D02*
X61826Y-47453D01*
X61826Y-47453D02*
X61830Y-47401D01*
X61830Y-47401D02*
X61845Y-47349D01*
X61845Y-47349D02*
X61869Y-47302D01*
X61869Y-47302D02*
X61903Y-47259D01*
X61903Y-47259D02*
X61944Y-47225D01*
X61944Y-47225D02*
X61990Y-47199D01*
X61990Y-47199D02*
X62041Y-47182D01*
X62041Y-47182D02*
X62095Y-47176D01*
X62095Y-47176D02*
X62147Y-47180D01*
X62147Y-47180D02*
X62199Y-47194D01*
X62199Y-47194D02*
X62247Y-47218D01*
X62247Y-47218D02*
X62289Y-47251D01*
X62289Y-47251D02*
X62324Y-47292D01*
X62324Y-47292D02*
X62351Y-47339D01*
X62351Y-47339D02*
X62368Y-47390D01*
X62368Y-47390D02*
X62374Y-47443D01*
X62374Y-47443D02*
X62375Y-47450D01*
X63375Y-47450D02*
X63369Y-47503D01*
X63369Y-47503D02*
X63354Y-47554D01*
X63354Y-47554D02*
X63329Y-47602D01*
X63329Y-47602D02*
X63295Y-47643D01*
X63295Y-47643D02*
X63253Y-47677D01*
X63253Y-47677D02*
X63206Y-47703D01*
X63206Y-47703D02*
X63155Y-47719D01*
X63155Y-47719D02*
X63101Y-47724D01*
X63101Y-47724D02*
X63049Y-47720D01*
X63049Y-47720D02*
X62997Y-47704D01*
X62997Y-47704D02*
X62950Y-47680D01*
X62950Y-47680D02*
X62908Y-47646D01*
X62908Y-47646D02*
X62874Y-47605D01*
X62874Y-47605D02*
X62848Y-47558D01*
X62848Y-47558D02*
X62832Y-47507D01*
X62832Y-47507D02*
X62826Y-47453D01*
X62826Y-47453D02*
X62830Y-47401D01*
X62830Y-47401D02*
X62845Y-47349D01*
X62845Y-47349D02*
X62869Y-47302D01*
X62869Y-47302D02*
X62903Y-47259D01*
X62903Y-47259D02*
X62944Y-47225D01*
X62944Y-47225D02*
X62990Y-47199D01*
X62990Y-47199D02*
X63041Y-47182D01*
X63041Y-47182D02*
X63095Y-47176D01*
X63095Y-47176D02*
X63147Y-47180D01*
X63147Y-47180D02*
X63199Y-47194D01*
X63199Y-47194D02*
X63247Y-47218D01*
X63247Y-47218D02*
X63289Y-47251D01*
X63289Y-47251D02*
X63324Y-47292D01*
X63324Y-47292D02*
X63351Y-47339D01*
X63351Y-47339D02*
X63368Y-47390D01*
X63368Y-47390D02*
X63374Y-47443D01*
X63374Y-47443D02*
X63375Y-47450D01*
X64375Y-47450D02*
X64369Y-47503D01*
X64369Y-47503D02*
X64354Y-47554D01*
X64354Y-47554D02*
X64329Y-47602D01*
X64329Y-47602D02*
X64295Y-47643D01*
X64295Y-47643D02*
X64253Y-47677D01*
X64253Y-47677D02*
X64206Y-47703D01*
X64206Y-47703D02*
X64155Y-47719D01*
X64155Y-47719D02*
X64101Y-47724D01*
X64101Y-47724D02*
X64049Y-47720D01*
X64049Y-47720D02*
X63997Y-47704D01*
X63997Y-47704D02*
X63950Y-47680D01*
X63950Y-47680D02*
X63908Y-47646D01*
X63908Y-47646D02*
X63874Y-47605D01*
X63874Y-47605D02*
X63848Y-47558D01*
X63848Y-47558D02*
X63832Y-47507D01*
X63832Y-47507D02*
X63826Y-47453D01*
X63826Y-47453D02*
X63830Y-47401D01*
X63830Y-47401D02*
X63845Y-47349D01*
X63845Y-47349D02*
X63869Y-47302D01*
X63869Y-47302D02*
X63903Y-47259D01*
X63903Y-47259D02*
X63944Y-47225D01*
X63944Y-47225D02*
X63990Y-47199D01*
X63990Y-47199D02*
X64041Y-47182D01*
X64041Y-47182D02*
X64095Y-47176D01*
X64095Y-47176D02*
X64147Y-47180D01*
X64147Y-47180D02*
X64199Y-47194D01*
X64199Y-47194D02*
X64247Y-47218D01*
X64247Y-47218D02*
X64289Y-47251D01*
X64289Y-47251D02*
X64324Y-47292D01*
X64324Y-47292D02*
X64351Y-47339D01*
X64351Y-47339D02*
X64368Y-47390D01*
X64368Y-47390D02*
X64374Y-47443D01*
X64374Y-47443D02*
X64375Y-47450D01*
X65375Y-47450D02*
X65369Y-47503D01*
X65369Y-47503D02*
X65354Y-47554D01*
X65354Y-47554D02*
X65329Y-47602D01*
X65329Y-47602D02*
X65295Y-47643D01*
X65295Y-47643D02*
X65253Y-47677D01*
X65253Y-47677D02*
X65206Y-47703D01*
X65206Y-47703D02*
X65155Y-47719D01*
X65155Y-47719D02*
X65101Y-47724D01*
X65101Y-47724D02*
X65049Y-47720D01*
X65049Y-47720D02*
X64997Y-47704D01*
X64997Y-47704D02*
X64950Y-47680D01*
X64950Y-47680D02*
X64908Y-47646D01*
X64908Y-47646D02*
X64874Y-47605D01*
X64874Y-47605D02*
X64848Y-47558D01*
X64848Y-47558D02*
X64832Y-47507D01*
X64832Y-47507D02*
X64826Y-47453D01*
X64826Y-47453D02*
X64830Y-47401D01*
X64830Y-47401D02*
X64845Y-47349D01*
X64845Y-47349D02*
X64869Y-47302D01*
X64869Y-47302D02*
X64903Y-47259D01*
X64903Y-47259D02*
X64944Y-47225D01*
X64944Y-47225D02*
X64990Y-47199D01*
X64990Y-47199D02*
X65041Y-47182D01*
X65041Y-47182D02*
X65095Y-47176D01*
X65095Y-47176D02*
X65147Y-47180D01*
X65147Y-47180D02*
X65199Y-47194D01*
X65199Y-47194D02*
X65247Y-47218D01*
X65247Y-47218D02*
X65289Y-47251D01*
X65289Y-47251D02*
X65324Y-47292D01*
X65324Y-47292D02*
X65351Y-47339D01*
X65351Y-47339D02*
X65368Y-47390D01*
X65368Y-47390D02*
X65374Y-47443D01*
X65374Y-47443D02*
X65375Y-47450D01*
X68350Y-42650D02*
X68343Y-42717D01*
X68343Y-42717D02*
X68323Y-42783D01*
X68323Y-42783D02*
X68291Y-42843D01*
X68291Y-42843D02*
X68248Y-42896D01*
X68248Y-42896D02*
X68195Y-42940D01*
X68195Y-42940D02*
X68135Y-42972D01*
X68135Y-42972D02*
X68070Y-42992D01*
X68070Y-42992D02*
X68002Y-42999D01*
X68002Y-42999D02*
X67935Y-42993D01*
X67935Y-42993D02*
X67869Y-42974D01*
X67869Y-42974D02*
X67809Y-42942D01*
X67809Y-42942D02*
X67756Y-42900D01*
X67756Y-42900D02*
X67712Y-42847D01*
X67712Y-42847D02*
X67679Y-42787D01*
X67679Y-42787D02*
X67658Y-42722D01*
X67658Y-42722D02*
X67651Y-42654D01*
X67651Y-42654D02*
X67656Y-42587D01*
X67656Y-42587D02*
X67675Y-42522D01*
X67675Y-42522D02*
X67706Y-42461D01*
X67706Y-42461D02*
X67749Y-42407D01*
X67749Y-42407D02*
X67801Y-42363D01*
X67801Y-42363D02*
X67860Y-42330D01*
X67860Y-42330D02*
X67925Y-42309D01*
X67925Y-42309D02*
X67993Y-42301D01*
X67993Y-42301D02*
X68060Y-42306D01*
X68060Y-42306D02*
X68126Y-42324D01*
X68126Y-42324D02*
X68187Y-42355D01*
X68187Y-42355D02*
X68241Y-42397D01*
X68241Y-42397D02*
X68286Y-42449D01*
X68286Y-42449D02*
X68319Y-42508D01*
X68319Y-42508D02*
X68341Y-42573D01*
X68341Y-42573D02*
X68349Y-42641D01*
X68349Y-42641D02*
X68350Y-42650D01*
X68350Y-40650D02*
X68343Y-40717D01*
X68343Y-40717D02*
X68323Y-40783D01*
X68323Y-40783D02*
X68291Y-40843D01*
X68291Y-40843D02*
X68248Y-40896D01*
X68248Y-40896D02*
X68195Y-40940D01*
X68195Y-40940D02*
X68135Y-40972D01*
X68135Y-40972D02*
X68070Y-40992D01*
X68070Y-40992D02*
X68002Y-40999D01*
X68002Y-40999D02*
X67935Y-40993D01*
X67935Y-40993D02*
X67869Y-40974D01*
X67869Y-40974D02*
X67809Y-40942D01*
X67809Y-40942D02*
X67756Y-40900D01*
X67756Y-40900D02*
X67712Y-40847D01*
X67712Y-40847D02*
X67679Y-40787D01*
X67679Y-40787D02*
X67658Y-40722D01*
X67658Y-40722D02*
X67651Y-40654D01*
X67651Y-40654D02*
X67656Y-40587D01*
X67656Y-40587D02*
X67675Y-40522D01*
X67675Y-40522D02*
X67706Y-40461D01*
X67706Y-40461D02*
X67749Y-40407D01*
X67749Y-40407D02*
X67801Y-40363D01*
X67801Y-40363D02*
X67860Y-40330D01*
X67860Y-40330D02*
X67925Y-40309D01*
X67925Y-40309D02*
X67993Y-40301D01*
X67993Y-40301D02*
X68060Y-40306D01*
X68060Y-40306D02*
X68126Y-40324D01*
X68126Y-40324D02*
X68187Y-40355D01*
X68187Y-40355D02*
X68241Y-40397D01*
X68241Y-40397D02*
X68286Y-40449D01*
X68286Y-40449D02*
X68319Y-40508D01*
X68319Y-40508D02*
X68341Y-40573D01*
X68341Y-40573D02*
X68349Y-40641D01*
X68349Y-40641D02*
X68350Y-40650D01*
X79050Y-45750D02*
X79035Y-45895D01*
X79035Y-45895D02*
X78993Y-46035D01*
X78993Y-46035D02*
X78924Y-46165D01*
X78924Y-46165D02*
X78832Y-46278D01*
X78832Y-46278D02*
X78719Y-46371D01*
X78719Y-46371D02*
X78590Y-46441D01*
X78590Y-46441D02*
X78450Y-46484D01*
X78450Y-46484D02*
X78305Y-46499D01*
X78305Y-46499D02*
X78160Y-46486D01*
X78160Y-46486D02*
X78020Y-46445D01*
X78020Y-46445D02*
X77890Y-46377D01*
X77890Y-46377D02*
X77776Y-46285D01*
X77776Y-46285D02*
X77682Y-46173D01*
X77682Y-46173D02*
X77611Y-46045D01*
X77611Y-46045D02*
X77567Y-45905D01*
X77567Y-45905D02*
X77551Y-45760D01*
X77551Y-45760D02*
X77563Y-45615D01*
X77563Y-45615D02*
X77603Y-45474D01*
X77603Y-45474D02*
X77670Y-45344D01*
X77670Y-45344D02*
X77761Y-45230D01*
X77761Y-45230D02*
X77872Y-45135D01*
X77872Y-45135D02*
X78000Y-45063D01*
X78000Y-45063D02*
X78139Y-45018D01*
X78139Y-45018D02*
X78285Y-45001D01*
X78285Y-45001D02*
X78430Y-45012D01*
X78430Y-45012D02*
X78571Y-45051D01*
X78571Y-45051D02*
X78701Y-45117D01*
X78701Y-45117D02*
X78817Y-45207D01*
X78817Y-45207D02*
X78912Y-45318D01*
X78912Y-45318D02*
X78985Y-45445D01*
X78985Y-45445D02*
X79031Y-45584D01*
X79031Y-45584D02*
X79049Y-45730D01*
X79049Y-45730D02*
X79050Y-45750D01*
X79050Y-35750D02*
X79035Y-35895D01*
X79035Y-35895D02*
X78993Y-36035D01*
X78993Y-36035D02*
X78924Y-36165D01*
X78924Y-36165D02*
X78832Y-36278D01*
X78832Y-36278D02*
X78719Y-36371D01*
X78719Y-36371D02*
X78590Y-36441D01*
X78590Y-36441D02*
X78450Y-36484D01*
X78450Y-36484D02*
X78305Y-36499D01*
X78305Y-36499D02*
X78160Y-36486D01*
X78160Y-36486D02*
X78020Y-36445D01*
X78020Y-36445D02*
X77890Y-36377D01*
X77890Y-36377D02*
X77776Y-36285D01*
X77776Y-36285D02*
X77682Y-36173D01*
X77682Y-36173D02*
X77611Y-36045D01*
X77611Y-36045D02*
X77567Y-35905D01*
X77567Y-35905D02*
X77551Y-35760D01*
X77551Y-35760D02*
X77563Y-35615D01*
X77563Y-35615D02*
X77603Y-35474D01*
X77603Y-35474D02*
X77670Y-35344D01*
X77670Y-35344D02*
X77761Y-35230D01*
X77761Y-35230D02*
X77872Y-35135D01*
X77872Y-35135D02*
X78000Y-35063D01*
X78000Y-35063D02*
X78139Y-35018D01*
X78139Y-35018D02*
X78285Y-35001D01*
X78285Y-35001D02*
X78430Y-35012D01*
X78430Y-35012D02*
X78571Y-35051D01*
X78571Y-35051D02*
X78701Y-35117D01*
X78701Y-35117D02*
X78817Y-35207D01*
X78817Y-35207D02*
X78912Y-35318D01*
X78912Y-35318D02*
X78985Y-35445D01*
X78985Y-35445D02*
X79031Y-35584D01*
X79031Y-35584D02*
X79049Y-35730D01*
X79049Y-35730D02*
X79050Y-35750D01*
X77000Y-38250D02*
X77600Y-38250D01*
X77600Y-38250D02*
X77600Y-38850D01*
X77600Y-38850D02*
X77000Y-38850D01*
X77000Y-38850D02*
X77000Y-38250D01*
X77600Y-39650D02*
X77594Y-39708D01*
X77594Y-39708D02*
X77577Y-39764D01*
X77577Y-39764D02*
X77549Y-39816D01*
X77549Y-39816D02*
X77512Y-39861D01*
X77512Y-39861D02*
X77467Y-39898D01*
X77467Y-39898D02*
X77416Y-39926D01*
X77416Y-39926D02*
X77360Y-39943D01*
X77360Y-39943D02*
X77302Y-39949D01*
X77302Y-39949D02*
X77244Y-39944D01*
X77244Y-39944D02*
X77188Y-39928D01*
X77188Y-39928D02*
X77136Y-39901D01*
X77136Y-39901D02*
X77091Y-39864D01*
X77091Y-39864D02*
X77053Y-39819D01*
X77053Y-39819D02*
X77025Y-39768D01*
X77025Y-39768D02*
X77007Y-39712D01*
X77007Y-39712D02*
X77001Y-39654D01*
X77001Y-39654D02*
X77005Y-39596D01*
X77005Y-39596D02*
X77022Y-39540D01*
X77022Y-39540D02*
X77048Y-39488D01*
X77048Y-39488D02*
X77085Y-39442D01*
X77085Y-39442D02*
X77129Y-39404D01*
X77129Y-39404D02*
X77180Y-39376D01*
X77180Y-39376D02*
X77236Y-39357D01*
X77236Y-39357D02*
X77294Y-39351D01*
X77294Y-39351D02*
X77352Y-39355D01*
X77352Y-39355D02*
X77408Y-39371D01*
X77408Y-39371D02*
X77460Y-39397D01*
X77460Y-39397D02*
X77506Y-39433D01*
X77506Y-39433D02*
X77545Y-39478D01*
X77545Y-39478D02*
X77574Y-39528D01*
X77574Y-39528D02*
X77592Y-39584D01*
X77592Y-39584D02*
X77599Y-39642D01*
X77599Y-39642D02*
X77600Y-39650D01*
X77600Y-40700D02*
X77594Y-40758D01*
X77594Y-40758D02*
X77577Y-40814D01*
X77577Y-40814D02*
X77549Y-40866D01*
X77549Y-40866D02*
X77512Y-40911D01*
X77512Y-40911D02*
X77467Y-40948D01*
X77467Y-40948D02*
X77416Y-40976D01*
X77416Y-40976D02*
X77360Y-40993D01*
X77360Y-40993D02*
X77302Y-40999D01*
X77302Y-40999D02*
X77244Y-40994D01*
X77244Y-40994D02*
X77188Y-40978D01*
X77188Y-40978D02*
X77136Y-40951D01*
X77136Y-40951D02*
X77091Y-40914D01*
X77091Y-40914D02*
X77053Y-40869D01*
X77053Y-40869D02*
X77025Y-40818D01*
X77025Y-40818D02*
X77007Y-40762D01*
X77007Y-40762D02*
X77001Y-40704D01*
X77001Y-40704D02*
X77005Y-40646D01*
X77005Y-40646D02*
X77022Y-40590D01*
X77022Y-40590D02*
X77048Y-40538D01*
X77048Y-40538D02*
X77085Y-40492D01*
X77085Y-40492D02*
X77129Y-40454D01*
X77129Y-40454D02*
X77180Y-40426D01*
X77180Y-40426D02*
X77236Y-40407D01*
X77236Y-40407D02*
X77294Y-40401D01*
X77294Y-40401D02*
X77352Y-40405D01*
X77352Y-40405D02*
X77408Y-40421D01*
X77408Y-40421D02*
X77460Y-40447D01*
X77460Y-40447D02*
X77506Y-40483D01*
X77506Y-40483D02*
X77545Y-40528D01*
X77545Y-40528D02*
X77574Y-40578D01*
X77574Y-40578D02*
X77592Y-40634D01*
X77592Y-40634D02*
X77599Y-40692D01*
X77599Y-40692D02*
X77600Y-40700D01*
X77600Y-41800D02*
X77594Y-41858D01*
X77594Y-41858D02*
X77577Y-41914D01*
X77577Y-41914D02*
X77549Y-41966D01*
X77549Y-41966D02*
X77512Y-42011D01*
X77512Y-42011D02*
X77467Y-42048D01*
X77467Y-42048D02*
X77416Y-42076D01*
X77416Y-42076D02*
X77360Y-42093D01*
X77360Y-42093D02*
X77302Y-42099D01*
X77302Y-42099D02*
X77244Y-42094D01*
X77244Y-42094D02*
X77188Y-42078D01*
X77188Y-42078D02*
X77136Y-42051D01*
X77136Y-42051D02*
X77091Y-42014D01*
X77091Y-42014D02*
X77053Y-41969D01*
X77053Y-41969D02*
X77025Y-41918D01*
X77025Y-41918D02*
X77007Y-41862D01*
X77007Y-41862D02*
X77001Y-41804D01*
X77001Y-41804D02*
X77005Y-41746D01*
X77005Y-41746D02*
X77022Y-41690D01*
X77022Y-41690D02*
X77048Y-41638D01*
X77048Y-41638D02*
X77085Y-41592D01*
X77085Y-41592D02*
X77129Y-41554D01*
X77129Y-41554D02*
X77180Y-41526D01*
X77180Y-41526D02*
X77236Y-41507D01*
X77236Y-41507D02*
X77294Y-41501D01*
X77294Y-41501D02*
X77352Y-41505D01*
X77352Y-41505D02*
X77408Y-41521D01*
X77408Y-41521D02*
X77460Y-41547D01*
X77460Y-41547D02*
X77506Y-41583D01*
X77506Y-41583D02*
X77545Y-41628D01*
X77545Y-41628D02*
X77574Y-41678D01*
X77574Y-41678D02*
X77592Y-41734D01*
X77592Y-41734D02*
X77599Y-41792D01*
X77599Y-41792D02*
X77600Y-41800D01*
X77600Y-42900D02*
X77594Y-42958D01*
X77594Y-42958D02*
X77577Y-43014D01*
X77577Y-43014D02*
X77549Y-43066D01*
X77549Y-43066D02*
X77512Y-43111D01*
X77512Y-43111D02*
X77467Y-43148D01*
X77467Y-43148D02*
X77416Y-43176D01*
X77416Y-43176D02*
X77360Y-43193D01*
X77360Y-43193D02*
X77302Y-43199D01*
X77302Y-43199D02*
X77244Y-43194D01*
X77244Y-43194D02*
X77188Y-43178D01*
X77188Y-43178D02*
X77136Y-43151D01*
X77136Y-43151D02*
X77091Y-43114D01*
X77091Y-43114D02*
X77053Y-43069D01*
X77053Y-43069D02*
X77025Y-43018D01*
X77025Y-43018D02*
X77007Y-42962D01*
X77007Y-42962D02*
X77001Y-42904D01*
X77001Y-42904D02*
X77005Y-42846D01*
X77005Y-42846D02*
X77022Y-42790D01*
X77022Y-42790D02*
X77048Y-42738D01*
X77048Y-42738D02*
X77085Y-42692D01*
X77085Y-42692D02*
X77129Y-42654D01*
X77129Y-42654D02*
X77180Y-42626D01*
X77180Y-42626D02*
X77236Y-42607D01*
X77236Y-42607D02*
X77294Y-42601D01*
X77294Y-42601D02*
X77352Y-42605D01*
X77352Y-42605D02*
X77408Y-42621D01*
X77408Y-42621D02*
X77460Y-42647D01*
X77460Y-42647D02*
X77506Y-42683D01*
X77506Y-42683D02*
X77545Y-42728D01*
X77545Y-42728D02*
X77574Y-42778D01*
X77574Y-42778D02*
X77592Y-42834D01*
X77592Y-42834D02*
X77599Y-42892D01*
X77599Y-42892D02*
X77600Y-42900D01*
X78600Y-39100D02*
X78594Y-39158D01*
X78594Y-39158D02*
X78577Y-39214D01*
X78577Y-39214D02*
X78549Y-39266D01*
X78549Y-39266D02*
X78512Y-39311D01*
X78512Y-39311D02*
X78467Y-39348D01*
X78467Y-39348D02*
X78416Y-39376D01*
X78416Y-39376D02*
X78360Y-39393D01*
X78360Y-39393D02*
X78302Y-39399D01*
X78302Y-39399D02*
X78244Y-39394D01*
X78244Y-39394D02*
X78188Y-39378D01*
X78188Y-39378D02*
X78136Y-39351D01*
X78136Y-39351D02*
X78091Y-39314D01*
X78091Y-39314D02*
X78053Y-39269D01*
X78053Y-39269D02*
X78025Y-39218D01*
X78025Y-39218D02*
X78007Y-39162D01*
X78007Y-39162D02*
X78001Y-39104D01*
X78001Y-39104D02*
X78005Y-39046D01*
X78005Y-39046D02*
X78022Y-38990D01*
X78022Y-38990D02*
X78048Y-38938D01*
X78048Y-38938D02*
X78085Y-38892D01*
X78085Y-38892D02*
X78129Y-38854D01*
X78129Y-38854D02*
X78180Y-38826D01*
X78180Y-38826D02*
X78236Y-38807D01*
X78236Y-38807D02*
X78294Y-38801D01*
X78294Y-38801D02*
X78352Y-38805D01*
X78352Y-38805D02*
X78408Y-38821D01*
X78408Y-38821D02*
X78460Y-38847D01*
X78460Y-38847D02*
X78506Y-38883D01*
X78506Y-38883D02*
X78545Y-38928D01*
X78545Y-38928D02*
X78574Y-38978D01*
X78574Y-38978D02*
X78592Y-39034D01*
X78592Y-39034D02*
X78599Y-39092D01*
X78599Y-39092D02*
X78600Y-39100D01*
X78600Y-40200D02*
X78594Y-40258D01*
X78594Y-40258D02*
X78577Y-40314D01*
X78577Y-40314D02*
X78549Y-40366D01*
X78549Y-40366D02*
X78512Y-40411D01*
X78512Y-40411D02*
X78467Y-40448D01*
X78467Y-40448D02*
X78416Y-40476D01*
X78416Y-40476D02*
X78360Y-40493D01*
X78360Y-40493D02*
X78302Y-40499D01*
X78302Y-40499D02*
X78244Y-40494D01*
X78244Y-40494D02*
X78188Y-40478D01*
X78188Y-40478D02*
X78136Y-40451D01*
X78136Y-40451D02*
X78091Y-40414D01*
X78091Y-40414D02*
X78053Y-40369D01*
X78053Y-40369D02*
X78025Y-40318D01*
X78025Y-40318D02*
X78007Y-40262D01*
X78007Y-40262D02*
X78001Y-40204D01*
X78001Y-40204D02*
X78005Y-40146D01*
X78005Y-40146D02*
X78022Y-40090D01*
X78022Y-40090D02*
X78048Y-40038D01*
X78048Y-40038D02*
X78085Y-39992D01*
X78085Y-39992D02*
X78129Y-39954D01*
X78129Y-39954D02*
X78180Y-39926D01*
X78180Y-39926D02*
X78236Y-39907D01*
X78236Y-39907D02*
X78294Y-39901D01*
X78294Y-39901D02*
X78352Y-39905D01*
X78352Y-39905D02*
X78408Y-39921D01*
X78408Y-39921D02*
X78460Y-39947D01*
X78460Y-39947D02*
X78506Y-39983D01*
X78506Y-39983D02*
X78545Y-40028D01*
X78545Y-40028D02*
X78574Y-40078D01*
X78574Y-40078D02*
X78592Y-40134D01*
X78592Y-40134D02*
X78599Y-40192D01*
X78599Y-40192D02*
X78600Y-40200D01*
X78600Y-41250D02*
X78594Y-41308D01*
X78594Y-41308D02*
X78577Y-41364D01*
X78577Y-41364D02*
X78549Y-41416D01*
X78549Y-41416D02*
X78512Y-41461D01*
X78512Y-41461D02*
X78467Y-41498D01*
X78467Y-41498D02*
X78416Y-41526D01*
X78416Y-41526D02*
X78360Y-41543D01*
X78360Y-41543D02*
X78302Y-41549D01*
X78302Y-41549D02*
X78244Y-41544D01*
X78244Y-41544D02*
X78188Y-41528D01*
X78188Y-41528D02*
X78136Y-41501D01*
X78136Y-41501D02*
X78091Y-41464D01*
X78091Y-41464D02*
X78053Y-41419D01*
X78053Y-41419D02*
X78025Y-41368D01*
X78025Y-41368D02*
X78007Y-41312D01*
X78007Y-41312D02*
X78001Y-41254D01*
X78001Y-41254D02*
X78005Y-41196D01*
X78005Y-41196D02*
X78022Y-41140D01*
X78022Y-41140D02*
X78048Y-41088D01*
X78048Y-41088D02*
X78085Y-41042D01*
X78085Y-41042D02*
X78129Y-41004D01*
X78129Y-41004D02*
X78180Y-40976D01*
X78180Y-40976D02*
X78236Y-40957D01*
X78236Y-40957D02*
X78294Y-40951D01*
X78294Y-40951D02*
X78352Y-40955D01*
X78352Y-40955D02*
X78408Y-40971D01*
X78408Y-40971D02*
X78460Y-40997D01*
X78460Y-40997D02*
X78506Y-41033D01*
X78506Y-41033D02*
X78545Y-41078D01*
X78545Y-41078D02*
X78574Y-41128D01*
X78574Y-41128D02*
X78592Y-41184D01*
X78592Y-41184D02*
X78599Y-41242D01*
X78599Y-41242D02*
X78600Y-41250D01*
X78600Y-42350D02*
X78594Y-42408D01*
X78594Y-42408D02*
X78577Y-42464D01*
X78577Y-42464D02*
X78549Y-42516D01*
X78549Y-42516D02*
X78512Y-42561D01*
X78512Y-42561D02*
X78467Y-42598D01*
X78467Y-42598D02*
X78416Y-42626D01*
X78416Y-42626D02*
X78360Y-42643D01*
X78360Y-42643D02*
X78302Y-42649D01*
X78302Y-42649D02*
X78244Y-42644D01*
X78244Y-42644D02*
X78188Y-42628D01*
X78188Y-42628D02*
X78136Y-42601D01*
X78136Y-42601D02*
X78091Y-42564D01*
X78091Y-42564D02*
X78053Y-42519D01*
X78053Y-42519D02*
X78025Y-42468D01*
X78025Y-42468D02*
X78007Y-42412D01*
X78007Y-42412D02*
X78001Y-42354D01*
X78001Y-42354D02*
X78005Y-42296D01*
X78005Y-42296D02*
X78022Y-42240D01*
X78022Y-42240D02*
X78048Y-42188D01*
X78048Y-42188D02*
X78085Y-42142D01*
X78085Y-42142D02*
X78129Y-42104D01*
X78129Y-42104D02*
X78180Y-42076D01*
X78180Y-42076D02*
X78236Y-42057D01*
X78236Y-42057D02*
X78294Y-42051D01*
X78294Y-42051D02*
X78352Y-42055D01*
X78352Y-42055D02*
X78408Y-42071D01*
X78408Y-42071D02*
X78460Y-42097D01*
X78460Y-42097D02*
X78506Y-42133D01*
X78506Y-42133D02*
X78545Y-42178D01*
X78545Y-42178D02*
X78574Y-42228D01*
X78574Y-42228D02*
X78592Y-42284D01*
X78592Y-42284D02*
X78599Y-42342D01*
X78599Y-42342D02*
X78600Y-42350D01*
X59825Y-49675D02*
X59825Y-49125D01*
X59825Y-49125D02*
X60375Y-49125D01*
X60375Y-49125D02*
X60375Y-49675D01*
X60375Y-49675D02*
X59825Y-49675D01*
X61375Y-49400D02*
X61369Y-49453D01*
X61369Y-49453D02*
X61354Y-49504D01*
X61354Y-49504D02*
X61329Y-49552D01*
X61329Y-49552D02*
X61295Y-49593D01*
X61295Y-49593D02*
X61253Y-49627D01*
X61253Y-49627D02*
X61206Y-49653D01*
X61206Y-49653D02*
X61155Y-49669D01*
X61155Y-49669D02*
X61101Y-49674D01*
X61101Y-49674D02*
X61049Y-49670D01*
X61049Y-49670D02*
X60997Y-49654D01*
X60997Y-49654D02*
X60950Y-49630D01*
X60950Y-49630D02*
X60908Y-49596D01*
X60908Y-49596D02*
X60874Y-49555D01*
X60874Y-49555D02*
X60848Y-49508D01*
X60848Y-49508D02*
X60832Y-49457D01*
X60832Y-49457D02*
X60826Y-49403D01*
X60826Y-49403D02*
X60830Y-49351D01*
X60830Y-49351D02*
X60845Y-49299D01*
X60845Y-49299D02*
X60869Y-49252D01*
X60869Y-49252D02*
X60903Y-49209D01*
X60903Y-49209D02*
X60944Y-49175D01*
X60944Y-49175D02*
X60990Y-49149D01*
X60990Y-49149D02*
X61041Y-49132D01*
X61041Y-49132D02*
X61095Y-49126D01*
X61095Y-49126D02*
X61147Y-49130D01*
X61147Y-49130D02*
X61199Y-49144D01*
X61199Y-49144D02*
X61247Y-49168D01*
X61247Y-49168D02*
X61289Y-49201D01*
X61289Y-49201D02*
X61324Y-49242D01*
X61324Y-49242D02*
X61351Y-49289D01*
X61351Y-49289D02*
X61368Y-49340D01*
X61368Y-49340D02*
X61374Y-49393D01*
X61374Y-49393D02*
X61375Y-49400D01*
X62375Y-49400D02*
X62369Y-49453D01*
X62369Y-49453D02*
X62354Y-49504D01*
X62354Y-49504D02*
X62329Y-49552D01*
X62329Y-49552D02*
X62295Y-49593D01*
X62295Y-49593D02*
X62253Y-49627D01*
X62253Y-49627D02*
X62206Y-49653D01*
X62206Y-49653D02*
X62155Y-49669D01*
X62155Y-49669D02*
X62101Y-49674D01*
X62101Y-49674D02*
X62049Y-49670D01*
X62049Y-49670D02*
X61997Y-49654D01*
X61997Y-49654D02*
X61950Y-49630D01*
X61950Y-49630D02*
X61908Y-49596D01*
X61908Y-49596D02*
X61874Y-49555D01*
X61874Y-49555D02*
X61848Y-49508D01*
X61848Y-49508D02*
X61832Y-49457D01*
X61832Y-49457D02*
X61826Y-49403D01*
X61826Y-49403D02*
X61830Y-49351D01*
X61830Y-49351D02*
X61845Y-49299D01*
X61845Y-49299D02*
X61869Y-49252D01*
X61869Y-49252D02*
X61903Y-49209D01*
X61903Y-49209D02*
X61944Y-49175D01*
X61944Y-49175D02*
X61990Y-49149D01*
X61990Y-49149D02*
X62041Y-49132D01*
X62041Y-49132D02*
X62095Y-49126D01*
X62095Y-49126D02*
X62147Y-49130D01*
X62147Y-49130D02*
X62199Y-49144D01*
X62199Y-49144D02*
X62247Y-49168D01*
X62247Y-49168D02*
X62289Y-49201D01*
X62289Y-49201D02*
X62324Y-49242D01*
X62324Y-49242D02*
X62351Y-49289D01*
X62351Y-49289D02*
X62368Y-49340D01*
X62368Y-49340D02*
X62374Y-49393D01*
X62374Y-49393D02*
X62375Y-49400D01*
X63375Y-49400D02*
X63369Y-49453D01*
X63369Y-49453D02*
X63354Y-49504D01*
X63354Y-49504D02*
X63329Y-49552D01*
X63329Y-49552D02*
X63295Y-49593D01*
X63295Y-49593D02*
X63253Y-49627D01*
X63253Y-49627D02*
X63206Y-49653D01*
X63206Y-49653D02*
X63155Y-49669D01*
X63155Y-49669D02*
X63101Y-49674D01*
X63101Y-49674D02*
X63049Y-49670D01*
X63049Y-49670D02*
X62997Y-49654D01*
X62997Y-49654D02*
X62950Y-49630D01*
X62950Y-49630D02*
X62908Y-49596D01*
X62908Y-49596D02*
X62874Y-49555D01*
X62874Y-49555D02*
X62848Y-49508D01*
X62848Y-49508D02*
X62832Y-49457D01*
X62832Y-49457D02*
X62826Y-49403D01*
X62826Y-49403D02*
X62830Y-49351D01*
X62830Y-49351D02*
X62845Y-49299D01*
X62845Y-49299D02*
X62869Y-49252D01*
X62869Y-49252D02*
X62903Y-49209D01*
X62903Y-49209D02*
X62944Y-49175D01*
X62944Y-49175D02*
X62990Y-49149D01*
X62990Y-49149D02*
X63041Y-49132D01*
X63041Y-49132D02*
X63095Y-49126D01*
X63095Y-49126D02*
X63147Y-49130D01*
X63147Y-49130D02*
X63199Y-49144D01*
X63199Y-49144D02*
X63247Y-49168D01*
X63247Y-49168D02*
X63289Y-49201D01*
X63289Y-49201D02*
X63324Y-49242D01*
X63324Y-49242D02*
X63351Y-49289D01*
X63351Y-49289D02*
X63368Y-49340D01*
X63368Y-49340D02*
X63374Y-49393D01*
X63374Y-49393D02*
X63375Y-49400D01*
X64375Y-49400D02*
X64369Y-49453D01*
X64369Y-49453D02*
X64354Y-49504D01*
X64354Y-49504D02*
X64329Y-49552D01*
X64329Y-49552D02*
X64295Y-49593D01*
X64295Y-49593D02*
X64253Y-49627D01*
X64253Y-49627D02*
X64206Y-49653D01*
X64206Y-49653D02*
X64155Y-49669D01*
X64155Y-49669D02*
X64101Y-49674D01*
X64101Y-49674D02*
X64049Y-49670D01*
X64049Y-49670D02*
X63997Y-49654D01*
X63997Y-49654D02*
X63950Y-49630D01*
X63950Y-49630D02*
X63908Y-49596D01*
X63908Y-49596D02*
X63874Y-49555D01*
X63874Y-49555D02*
X63848Y-49508D01*
X63848Y-49508D02*
X63832Y-49457D01*
X63832Y-49457D02*
X63826Y-49403D01*
X63826Y-49403D02*
X63830Y-49351D01*
X63830Y-49351D02*
X63845Y-49299D01*
X63845Y-49299D02*
X63869Y-49252D01*
X63869Y-49252D02*
X63903Y-49209D01*
X63903Y-49209D02*
X63944Y-49175D01*
X63944Y-49175D02*
X63990Y-49149D01*
X63990Y-49149D02*
X64041Y-49132D01*
X64041Y-49132D02*
X64095Y-49126D01*
X64095Y-49126D02*
X64147Y-49130D01*
X64147Y-49130D02*
X64199Y-49144D01*
X64199Y-49144D02*
X64247Y-49168D01*
X64247Y-49168D02*
X64289Y-49201D01*
X64289Y-49201D02*
X64324Y-49242D01*
X64324Y-49242D02*
X64351Y-49289D01*
X64351Y-49289D02*
X64368Y-49340D01*
X64368Y-49340D02*
X64374Y-49393D01*
X64374Y-49393D02*
X64375Y-49400D01*
X65375Y-49400D02*
X65369Y-49453D01*
X65369Y-49453D02*
X65354Y-49504D01*
X65354Y-49504D02*
X65329Y-49552D01*
X65329Y-49552D02*
X65295Y-49593D01*
X65295Y-49593D02*
X65253Y-49627D01*
X65253Y-49627D02*
X65206Y-49653D01*
X65206Y-49653D02*
X65155Y-49669D01*
X65155Y-49669D02*
X65101Y-49674D01*
X65101Y-49674D02*
X65049Y-49670D01*
X65049Y-49670D02*
X64997Y-49654D01*
X64997Y-49654D02*
X64950Y-49630D01*
X64950Y-49630D02*
X64908Y-49596D01*
X64908Y-49596D02*
X64874Y-49555D01*
X64874Y-49555D02*
X64848Y-49508D01*
X64848Y-49508D02*
X64832Y-49457D01*
X64832Y-49457D02*
X64826Y-49403D01*
X64826Y-49403D02*
X64830Y-49351D01*
X64830Y-49351D02*
X64845Y-49299D01*
X64845Y-49299D02*
X64869Y-49252D01*
X64869Y-49252D02*
X64903Y-49209D01*
X64903Y-49209D02*
X64944Y-49175D01*
X64944Y-49175D02*
X64990Y-49149D01*
X64990Y-49149D02*
X65041Y-49132D01*
X65041Y-49132D02*
X65095Y-49126D01*
X65095Y-49126D02*
X65147Y-49130D01*
X65147Y-49130D02*
X65199Y-49144D01*
X65199Y-49144D02*
X65247Y-49168D01*
X65247Y-49168D02*
X65289Y-49201D01*
X65289Y-49201D02*
X65324Y-49242D01*
X65324Y-49242D02*
X65351Y-49289D01*
X65351Y-49289D02*
X65368Y-49340D01*
X65368Y-49340D02*
X65374Y-49393D01*
X65374Y-49393D02*
X65375Y-49400D01*
G54D23*
X48600Y-48650D02*
X48600Y-48250D01*
X48600Y-48250D02*
X48867Y-48250D01*
X48867Y-48250D02*
X48911Y-48295D01*
X48911Y-48295D02*
X48911Y-48428D01*
X48911Y-48428D02*
X48867Y-48473D01*
X48867Y-48473D02*
X48600Y-48473D01*
X49233Y-48650D02*
X49411Y-48650D01*
X49322Y-48650D02*
X49322Y-48250D01*
X49322Y-48295D02*
X49233Y-48384D01*
G54D10*
X50300Y-47456D02*
X49700Y-47456D01*
X49700Y-47456D02*
X49700Y-47056D01*
X49700Y-47056D02*
X49767Y-46989D01*
X49767Y-46989D02*
X49900Y-46989D01*
X49900Y-46989D02*
X49967Y-47056D01*
X49967Y-47056D02*
X49967Y-47456D01*
X49967Y-47056D02*
X50100Y-46989D01*
X50100Y-46989D02*
X50234Y-46989D01*
X50234Y-46989D02*
X50300Y-47056D01*
X50300Y-47056D02*
X50300Y-47456D01*
X50300Y-46670D02*
X49834Y-46670D01*
X49834Y-46670D02*
X49700Y-46536D01*
X49700Y-46536D02*
X49700Y-46336D01*
X49700Y-46336D02*
X49834Y-46203D01*
X49834Y-46203D02*
X50300Y-46203D01*
X49967Y-46670D02*
X49967Y-46203D01*
X49700Y-45884D02*
X49700Y-45350D01*
X49700Y-45617D02*
X50300Y-45617D01*
X49700Y-45098D02*
X49700Y-44564D01*
X49700Y-44831D02*
X50300Y-44831D01*
G54D32*
X49311Y-39756D02*
X49267Y-39800D01*
X49267Y-39800D02*
X49044Y-39800D01*
X49044Y-39800D02*
X49000Y-39756D01*
X49000Y-39756D02*
X49000Y-39445D01*
X49000Y-39445D02*
X49044Y-39400D01*
X49044Y-39400D02*
X49267Y-39400D01*
X49267Y-39400D02*
X49311Y-39445D01*
X49494Y-39712D02*
X49494Y-39756D01*
X49494Y-39756D02*
X49538Y-39800D01*
X49538Y-39800D02*
X49761Y-39800D01*
X49761Y-39800D02*
X49805Y-39756D01*
X49805Y-39756D02*
X49805Y-39623D01*
X49805Y-39623D02*
X49716Y-39534D01*
X49716Y-39534D02*
X49494Y-39534D01*
X49494Y-39534D02*
X49494Y-39400D01*
X49494Y-39400D02*
X49805Y-39400D01*
G54D36*
X49000Y-42143D02*
X49000Y-42454D01*
X49000Y-42454D02*
X48867Y-42454D01*
X48867Y-42454D02*
X48823Y-42410D01*
X48823Y-42410D02*
X48823Y-42187D01*
X48823Y-42187D02*
X48778Y-42143D01*
X48778Y-42143D02*
X48645Y-42143D01*
X48645Y-42143D02*
X48600Y-42187D01*
X48600Y-42187D02*
X48600Y-42410D01*
X48600Y-42410D02*
X48645Y-42454D01*
X49000Y-41619D02*
X49000Y-41930D01*
X49000Y-41930D02*
X48867Y-41930D01*
X48867Y-41930D02*
X48823Y-41886D01*
X48823Y-41886D02*
X48823Y-41663D01*
X48823Y-41663D02*
X48778Y-41619D01*
X48778Y-41619D02*
X48645Y-41619D01*
X48645Y-41619D02*
X48600Y-41663D01*
X48600Y-41663D02*
X48600Y-41886D01*
X48600Y-41886D02*
X48645Y-41930D01*
X48734Y-41406D02*
X48912Y-41406D01*
X48912Y-41406D02*
X49000Y-41317D01*
X49000Y-41317D02*
X49000Y-41184D01*
X49000Y-41184D02*
X48912Y-41095D01*
X48912Y-41095D02*
X48734Y-41095D01*
X49000Y-40882D02*
X48600Y-40882D01*
X48600Y-40882D02*
X48600Y-40571D01*
X48778Y-40882D02*
X48778Y-40704D01*
G54D10*
X47984Y-40427D02*
X47984Y-40027D01*
X48184Y-40227D02*
X47784Y-40227D01*
G54D32*
X57361Y-48306D02*
X57317Y-48350D01*
X57317Y-48350D02*
X57094Y-48350D01*
X57094Y-48350D02*
X57050Y-48306D01*
X57050Y-48306D02*
X57050Y-47995D01*
X57050Y-47995D02*
X57094Y-47950D01*
X57094Y-47950D02*
X57317Y-47950D01*
X57317Y-47950D02*
X57361Y-47995D01*
X57544Y-47950D02*
X57855Y-47950D01*
X57855Y-47950D02*
X57855Y-47995D01*
X57855Y-47995D02*
X57677Y-48128D01*
X57677Y-48128D02*
X57811Y-48128D01*
X57811Y-48128D02*
X57855Y-48173D01*
X57855Y-48173D02*
X57855Y-48306D01*
X57855Y-48306D02*
X57811Y-48350D01*
X57811Y-48350D02*
X57588Y-48350D01*
X57588Y-48350D02*
X57544Y-48306D01*
G54D36*
X56800Y-46643D02*
X56800Y-46954D01*
X56800Y-46954D02*
X56667Y-46954D01*
X56667Y-46954D02*
X56623Y-46910D01*
X56623Y-46910D02*
X56623Y-46687D01*
X56623Y-46687D02*
X56578Y-46643D01*
X56578Y-46643D02*
X56445Y-46643D01*
X56445Y-46643D02*
X56400Y-46687D01*
X56400Y-46687D02*
X56400Y-46910D01*
X56400Y-46910D02*
X56445Y-46954D01*
X56800Y-46119D02*
X56800Y-46430D01*
X56800Y-46430D02*
X56667Y-46430D01*
X56667Y-46430D02*
X56623Y-46386D01*
X56623Y-46386D02*
X56623Y-46163D01*
X56623Y-46163D02*
X56578Y-46119D01*
X56578Y-46119D02*
X56445Y-46119D01*
X56445Y-46119D02*
X56400Y-46163D01*
X56400Y-46163D02*
X56400Y-46386D01*
X56400Y-46386D02*
X56445Y-46430D01*
X56534Y-45906D02*
X56712Y-45906D01*
X56712Y-45906D02*
X56800Y-45817D01*
X56800Y-45817D02*
X56800Y-45684D01*
X56800Y-45684D02*
X56712Y-45595D01*
X56712Y-45595D02*
X56534Y-45595D01*
X56800Y-45382D02*
X56400Y-45382D01*
X56400Y-45382D02*
X56400Y-45071D01*
X56578Y-45382D02*
X56578Y-45204D01*
G54D10*
X57484Y-47627D02*
X57484Y-47227D01*
X57684Y-47427D02*
X57284Y-47427D01*
G54D32*
X67650Y-37300D02*
X67650Y-37656D01*
X67650Y-37656D02*
X67694Y-37700D01*
X67694Y-37700D02*
X67917Y-37700D01*
X67917Y-37700D02*
X67961Y-37656D01*
X67961Y-37656D02*
X67961Y-37300D01*
X68455Y-37700D02*
X68144Y-37700D01*
X68144Y-37700D02*
X68144Y-37567D01*
X68144Y-37567D02*
X68188Y-37523D01*
X68188Y-37523D02*
X68411Y-37523D01*
X68411Y-37523D02*
X68455Y-37478D01*
X68455Y-37478D02*
X68455Y-37345D01*
X68455Y-37345D02*
X68411Y-37300D01*
X68411Y-37300D02*
X68188Y-37300D01*
X68188Y-37300D02*
X68144Y-37345D01*
G54D36*
X68350Y-36429D02*
X68350Y-36740D01*
X68350Y-36740D02*
X68184Y-36740D01*
X68184Y-36740D02*
X68128Y-36696D01*
X68128Y-36696D02*
X68128Y-36473D01*
X68128Y-36473D02*
X68073Y-36429D01*
X68073Y-36429D02*
X67906Y-36429D01*
X67906Y-36429D02*
X67850Y-36473D01*
X67850Y-36473D02*
X67850Y-36696D01*
X67850Y-36696D02*
X67906Y-36740D01*
X68350Y-35994D02*
X67850Y-35994D01*
X67850Y-35994D02*
X68239Y-36216D01*
X68239Y-36216D02*
X68239Y-35905D01*
X67850Y-35692D02*
X68350Y-35692D01*
X68350Y-35692D02*
X68350Y-35336D01*
X68295Y-34857D02*
X68350Y-34901D01*
X68350Y-34901D02*
X68350Y-35124D01*
X68350Y-35124D02*
X68295Y-35168D01*
X68295Y-35168D02*
X67906Y-35168D01*
X67906Y-35168D02*
X67850Y-35124D01*
X67850Y-35124D02*
X67850Y-34901D01*
X67850Y-34901D02*
X67906Y-34857D01*
X68239Y-34644D02*
X68295Y-34644D01*
X68295Y-34644D02*
X68350Y-34600D01*
X68350Y-34600D02*
X68350Y-34377D01*
X68350Y-34377D02*
X68295Y-34333D01*
X68295Y-34333D02*
X68128Y-34333D01*
X68128Y-34333D02*
X68017Y-34422D01*
X68017Y-34422D02*
X68017Y-34644D01*
X68017Y-34644D02*
X67850Y-34644D01*
X67850Y-34644D02*
X67850Y-34333D01*
X68350Y-34031D02*
X68350Y-33853D01*
X68350Y-33942D02*
X67850Y-33942D01*
X67906Y-33942D02*
X68017Y-34031D01*
X68350Y-33285D02*
X68350Y-33596D01*
X68350Y-33596D02*
X68184Y-33596D01*
X68184Y-33596D02*
X68128Y-33552D01*
X68128Y-33552D02*
X68128Y-33329D01*
X68128Y-33329D02*
X68073Y-33285D01*
X68073Y-33285D02*
X67906Y-33285D01*
X67906Y-33285D02*
X67850Y-33329D01*
X67850Y-33329D02*
X67850Y-33552D01*
X67850Y-33552D02*
X67906Y-33596D01*
G54D39*
X54450Y-45402D02*
X54150Y-45402D01*
X54150Y-45435D02*
X54150Y-45235D01*
X54150Y-45235D02*
X54184Y-45202D01*
X54184Y-45202D02*
X54417Y-45202D01*
X54417Y-45202D02*
X54450Y-45235D01*
X54450Y-45235D02*
X54450Y-45435D01*
X54150Y-45067D02*
X54150Y-44834D01*
X54150Y-44834D02*
X54184Y-44834D01*
X54184Y-44834D02*
X54284Y-44967D01*
X54284Y-44967D02*
X54284Y-44867D01*
X54284Y-44867D02*
X54317Y-44834D01*
X54317Y-44834D02*
X54417Y-44834D01*
X54417Y-44834D02*
X54450Y-44867D01*
X54450Y-44867D02*
X54450Y-45034D01*
X54450Y-45034D02*
X54417Y-45067D01*
X55650Y-46087D02*
X55350Y-46087D01*
X55350Y-46087D02*
X55350Y-45887D01*
X55350Y-45887D02*
X55384Y-45854D01*
X55384Y-45854D02*
X55484Y-45854D01*
X55484Y-45854D02*
X55517Y-45887D01*
X55517Y-45887D02*
X55517Y-46087D01*
X55650Y-45686D02*
X55617Y-45719D01*
X55617Y-45719D02*
X55384Y-45719D01*
X55384Y-45719D02*
X55350Y-45686D01*
X55350Y-45686D02*
X55350Y-45519D01*
X55350Y-45519D02*
X55384Y-45486D01*
X55384Y-45486D02*
X55617Y-45486D01*
X55617Y-45486D02*
X55650Y-45519D01*
X55650Y-45519D02*
X55650Y-45686D01*
X55350Y-45351D02*
X55650Y-45284D01*
X55650Y-45284D02*
X55550Y-45218D01*
X55550Y-45218D02*
X55650Y-45151D01*
X55650Y-45151D02*
X55350Y-45084D01*
X55650Y-44750D02*
X55650Y-44983D01*
X55650Y-44983D02*
X55350Y-44983D01*
X55350Y-44983D02*
X55350Y-44750D01*
X55484Y-44983D02*
X55484Y-44850D01*
X55650Y-44615D02*
X55350Y-44615D01*
X55350Y-44615D02*
X55350Y-44415D01*
X55350Y-44415D02*
X55384Y-44382D01*
X55384Y-44382D02*
X55484Y-44382D01*
X55484Y-44382D02*
X55517Y-44415D01*
X55517Y-44415D02*
X55517Y-44615D01*
X55517Y-44515D02*
X55650Y-44382D01*
X47298Y-39100D02*
X47298Y-38800D01*
X47265Y-38800D02*
X47465Y-38800D01*
X47465Y-38800D02*
X47498Y-38834D01*
X47498Y-38834D02*
X47498Y-39067D01*
X47498Y-39067D02*
X47465Y-39100D01*
X47465Y-39100D02*
X47265Y-39100D01*
X47800Y-39100D02*
X47800Y-38800D01*
X47800Y-38800D02*
X47633Y-39034D01*
X47633Y-39034D02*
X47866Y-39034D01*
G54D32*
X46334Y-37700D02*
X46468Y-37700D01*
X46401Y-37700D02*
X46401Y-37400D01*
X46334Y-37400D02*
X46468Y-37400D01*
X46917Y-37667D02*
X46884Y-37700D01*
X46884Y-37700D02*
X46717Y-37700D01*
X46717Y-37700D02*
X46684Y-37667D01*
X46684Y-37667D02*
X46684Y-37434D01*
X46684Y-37434D02*
X46717Y-37400D01*
X46717Y-37400D02*
X46884Y-37400D01*
X46884Y-37400D02*
X46917Y-37434D01*
X47100Y-37567D02*
X47267Y-37567D01*
X47450Y-37700D02*
X47450Y-37400D01*
X47450Y-37400D02*
X47650Y-37400D01*
X47650Y-37400D02*
X47683Y-37434D01*
X47683Y-37434D02*
X47683Y-37534D01*
X47683Y-37534D02*
X47650Y-37567D01*
X47650Y-37567D02*
X47450Y-37567D01*
X47866Y-37700D02*
X47833Y-37667D01*
X47833Y-37667D02*
X47833Y-37434D01*
X47833Y-37434D02*
X47866Y-37400D01*
X47866Y-37400D02*
X48033Y-37400D01*
X48033Y-37400D02*
X48066Y-37434D01*
X48066Y-37434D02*
X48066Y-37667D01*
X48066Y-37667D02*
X48033Y-37700D01*
X48033Y-37700D02*
X47866Y-37700D01*
X48216Y-37400D02*
X48283Y-37700D01*
X48283Y-37700D02*
X48349Y-37600D01*
X48349Y-37600D02*
X48416Y-37700D01*
X48416Y-37700D02*
X48483Y-37400D01*
X48832Y-37700D02*
X48599Y-37700D01*
X48599Y-37700D02*
X48599Y-37400D01*
X48599Y-37400D02*
X48832Y-37400D01*
X48599Y-37534D02*
X48732Y-37534D01*
X48982Y-37700D02*
X48982Y-37400D01*
X48982Y-37400D02*
X49182Y-37400D01*
X49182Y-37400D02*
X49215Y-37434D01*
X49215Y-37434D02*
X49215Y-37534D01*
X49215Y-37534D02*
X49182Y-37567D01*
X49182Y-37567D02*
X48982Y-37567D01*
X49082Y-37567D02*
X49215Y-37700D01*
G54D36*
X56300Y-42464D02*
X55989Y-42464D01*
X55989Y-42464D02*
X55900Y-42375D01*
X55900Y-42375D02*
X55900Y-42242D01*
X55900Y-42242D02*
X55989Y-42153D01*
X55989Y-42153D02*
X56300Y-42153D01*
X56078Y-42464D02*
X56078Y-42153D01*
X55900Y-41940D02*
X56300Y-41762D01*
X56300Y-41762D02*
X55900Y-41584D01*
X56300Y-41416D02*
X55900Y-41416D01*
X55900Y-41416D02*
X55900Y-41149D01*
X55900Y-41149D02*
X55945Y-41105D01*
X55945Y-41105D02*
X56078Y-41105D01*
X56078Y-41105D02*
X56123Y-41149D01*
X56123Y-41149D02*
X56123Y-41416D01*
X56123Y-41283D02*
X56300Y-41105D01*
X56123Y-40848D02*
X56123Y-40625D01*
X56300Y-40324D02*
X56300Y-40146D01*
X56300Y-40235D02*
X55900Y-40235D01*
X55900Y-40324D02*
X55900Y-40146D01*
X56256Y-39844D02*
X56300Y-39800D01*
X56300Y-39800D02*
X56300Y-39577D01*
X56300Y-39577D02*
X56256Y-39533D01*
X56256Y-39533D02*
X56123Y-39533D01*
X56123Y-39533D02*
X56078Y-39577D01*
X56078Y-39577D02*
X56078Y-39800D01*
X56078Y-39800D02*
X56034Y-39844D01*
X56034Y-39844D02*
X55945Y-39844D01*
X55945Y-39844D02*
X55900Y-39800D01*
X55900Y-39800D02*
X55900Y-39577D01*
X55900Y-39577D02*
X55945Y-39533D01*
X56300Y-39320D02*
X55900Y-39320D01*
X55900Y-39320D02*
X55900Y-39053D01*
X55900Y-39053D02*
X55945Y-39009D01*
X55945Y-39009D02*
X56078Y-39009D01*
X56078Y-39009D02*
X56123Y-39053D01*
X56123Y-39053D02*
X56123Y-39320D01*
X56123Y-38752D02*
X56123Y-38529D01*
X55945Y-37961D02*
X55900Y-38005D01*
X55900Y-38005D02*
X55900Y-38228D01*
X55900Y-38228D02*
X55945Y-38272D01*
X55945Y-38272D02*
X56256Y-38272D01*
X56256Y-38272D02*
X56300Y-38228D01*
X56300Y-38228D02*
X56300Y-38005D01*
X56300Y-38005D02*
X56256Y-37961D01*
X56256Y-37961D02*
X56123Y-37961D01*
X56123Y-37961D02*
X56078Y-38005D01*
X56078Y-38005D02*
X56078Y-38228D01*
X56078Y-38228D02*
X56123Y-38272D01*
G54D32*
X65050Y-33750D02*
X65050Y-33450D01*
X65050Y-33450D02*
X65250Y-33450D01*
X65250Y-33450D02*
X65283Y-33484D01*
X65283Y-33484D02*
X65283Y-33584D01*
X65283Y-33584D02*
X65250Y-33617D01*
X65250Y-33617D02*
X65050Y-33617D01*
X65466Y-33750D02*
X65433Y-33717D01*
X65433Y-33717D02*
X65433Y-33617D01*
X65433Y-33617D02*
X65466Y-33584D01*
X65466Y-33584D02*
X65633Y-33584D01*
X65633Y-33584D02*
X65666Y-33550D01*
X65666Y-33550D02*
X65666Y-33484D01*
X65666Y-33484D02*
X65633Y-33450D01*
X65633Y-33450D02*
X65466Y-33450D01*
X65466Y-33450D02*
X65433Y-33484D01*
X65433Y-33484D02*
X65433Y-33550D01*
X65433Y-33550D02*
X65466Y-33584D01*
X65633Y-33584D02*
X65666Y-33617D01*
X65666Y-33617D02*
X65666Y-33717D01*
X65666Y-33717D02*
X65633Y-33750D01*
X65633Y-33750D02*
X65466Y-33750D01*
X59450Y-33750D02*
X59450Y-33450D01*
X59450Y-33450D02*
X59650Y-33450D01*
X59650Y-33450D02*
X59683Y-33484D01*
X59683Y-33484D02*
X59683Y-33584D01*
X59683Y-33584D02*
X59650Y-33617D01*
X59650Y-33617D02*
X59450Y-33617D01*
X59833Y-33450D02*
X60066Y-33450D01*
X60066Y-33450D02*
X59833Y-33750D01*
G54D23*
X71206Y-46750D02*
X71206Y-46284D01*
X71206Y-46284D02*
X71295Y-46150D01*
X71295Y-46150D02*
X71428Y-46150D01*
X71428Y-46150D02*
X71517Y-46284D01*
X71517Y-46284D02*
X71517Y-46750D01*
X71206Y-46417D02*
X71517Y-46417D01*
X71750Y-46150D02*
X71750Y-46684D01*
X71750Y-46684D02*
X71794Y-46750D01*
X71794Y-46750D02*
X72017Y-46750D01*
X72017Y-46750D02*
X72061Y-46684D01*
X72061Y-46684D02*
X72061Y-46150D01*
X72294Y-46150D02*
X72650Y-46150D01*
X72472Y-46150D02*
X72472Y-46750D01*
X72882Y-46750D02*
X72838Y-46684D01*
X72838Y-46684D02*
X72838Y-46217D01*
X72838Y-46217D02*
X72882Y-46150D01*
X72882Y-46150D02*
X73105Y-46150D01*
X73105Y-46150D02*
X73149Y-46217D01*
X73149Y-46217D02*
X73149Y-46684D01*
X73149Y-46684D02*
X73105Y-46750D01*
X73105Y-46750D02*
X72882Y-46750D01*
G54D39*
X65065Y-36150D02*
X65065Y-35850D01*
X65065Y-35850D02*
X65265Y-35850D01*
X65265Y-35850D02*
X65298Y-35884D01*
X65298Y-35884D02*
X65298Y-35984D01*
X65298Y-35984D02*
X65265Y-36017D01*
X65265Y-36017D02*
X65065Y-36017D01*
X65666Y-36150D02*
X65433Y-36150D01*
X65433Y-36150D02*
X65433Y-36050D01*
X65433Y-36050D02*
X65466Y-36017D01*
X65466Y-36017D02*
X65633Y-36017D01*
X65633Y-36017D02*
X65666Y-35984D01*
X65666Y-35984D02*
X65666Y-35884D01*
X65666Y-35884D02*
X65633Y-35850D01*
X65633Y-35850D02*
X65466Y-35850D01*
X65466Y-35850D02*
X65433Y-35884D01*
G54D23*
X67056Y-46150D02*
X67056Y-46684D01*
X67056Y-46684D02*
X67100Y-46750D01*
X67100Y-46750D02*
X67323Y-46750D01*
X67323Y-46750D02*
X67367Y-46684D01*
X67367Y-46684D02*
X67367Y-46150D01*
X67600Y-46750D02*
X67600Y-46284D01*
X67600Y-46284D02*
X67689Y-46150D01*
X67689Y-46150D02*
X67822Y-46150D01*
X67822Y-46150D02*
X67911Y-46284D01*
X67911Y-46284D02*
X67911Y-46750D01*
X67600Y-46417D02*
X67911Y-46417D01*
X68144Y-46750D02*
X68144Y-46150D01*
X68144Y-46150D02*
X68411Y-46150D01*
X68411Y-46150D02*
X68455Y-46217D01*
X68455Y-46217D02*
X68455Y-46417D01*
X68455Y-46417D02*
X68411Y-46484D01*
X68411Y-46484D02*
X68144Y-46484D01*
X68277Y-46484D02*
X68455Y-46750D01*
X68688Y-46150D02*
X69044Y-46150D01*
X68866Y-46150D02*
X68866Y-46750D01*
G54D32*
X59450Y-36350D02*
X59450Y-36050D01*
X59450Y-36050D02*
X59650Y-36050D01*
X59650Y-36050D02*
X59683Y-36084D01*
X59683Y-36084D02*
X59683Y-36184D01*
X59683Y-36184D02*
X59650Y-36217D01*
X59650Y-36217D02*
X59450Y-36217D01*
X59833Y-36050D02*
X60066Y-36050D01*
X60066Y-36050D02*
X60066Y-36084D01*
X60066Y-36084D02*
X59933Y-36184D01*
X59933Y-36184D02*
X60033Y-36184D01*
X60033Y-36184D02*
X60066Y-36217D01*
X60066Y-36217D02*
X60066Y-36317D01*
X60066Y-36317D02*
X60033Y-36350D01*
X60033Y-36350D02*
X59866Y-36350D01*
X59866Y-36350D02*
X59833Y-36317D01*
X54595Y-43498D02*
X54567Y-43525D01*
X54567Y-43525D02*
X54428Y-43525D01*
X54428Y-43525D02*
X54400Y-43498D01*
X54400Y-43498D02*
X54400Y-43303D01*
X54400Y-43303D02*
X54428Y-43275D01*
X54428Y-43275D02*
X54567Y-43275D01*
X54567Y-43275D02*
X54595Y-43303D01*
X54866Y-43525D02*
X54866Y-43275D01*
X54866Y-43275D02*
X54727Y-43470D01*
X54727Y-43470D02*
X54922Y-43470D01*
X51750Y-37875D02*
X51750Y-37625D01*
X51750Y-37625D02*
X51917Y-37625D01*
X51917Y-37625D02*
X51945Y-37653D01*
X51945Y-37653D02*
X51945Y-37737D01*
X51945Y-37737D02*
X51917Y-37764D01*
X51917Y-37764D02*
X51750Y-37764D01*
X51834Y-37764D02*
X51945Y-37875D01*
X52133Y-37875D02*
X52244Y-37875D01*
X52188Y-37875D02*
X52188Y-37625D01*
X52188Y-37653D02*
X52133Y-37709D01*
X65795Y-34698D02*
X65767Y-34725D01*
X65767Y-34725D02*
X65628Y-34725D01*
X65628Y-34725D02*
X65600Y-34698D01*
X65600Y-34698D02*
X65600Y-34503D01*
X65600Y-34503D02*
X65628Y-34475D01*
X65628Y-34475D02*
X65767Y-34475D01*
X65767Y-34475D02*
X65795Y-34503D01*
X65955Y-34725D02*
X66094Y-34725D01*
X66094Y-34725D02*
X66122Y-34698D01*
X66122Y-34698D02*
X66122Y-34503D01*
X66122Y-34503D02*
X66094Y-34475D01*
X66094Y-34475D02*
X65955Y-34475D01*
X65955Y-34475D02*
X65927Y-34503D01*
X65927Y-34503D02*
X65927Y-34587D01*
X65927Y-34587D02*
X65955Y-34614D01*
X65955Y-34614D02*
X66094Y-34614D01*
X66094Y-34614D02*
X66122Y-34587D01*
X69750Y-39075D02*
X69750Y-38825D01*
X69750Y-38825D02*
X69917Y-38825D01*
X69917Y-38825D02*
X69945Y-38853D01*
X69945Y-38853D02*
X69945Y-38937D01*
X69945Y-38937D02*
X69917Y-38964D01*
X69917Y-38964D02*
X69750Y-38964D01*
X69834Y-38964D02*
X69945Y-39075D01*
X70077Y-38825D02*
X70272Y-38825D01*
X70272Y-38825D02*
X70272Y-38853D01*
X70272Y-38853D02*
X70161Y-38937D01*
X70161Y-38937D02*
X70244Y-38937D01*
X70244Y-38937D02*
X70272Y-38964D01*
X70272Y-38964D02*
X70272Y-39048D01*
X70272Y-39048D02*
X70244Y-39075D01*
X70244Y-39075D02*
X70105Y-39075D01*
X70105Y-39075D02*
X70077Y-39048D01*
X69000Y-39075D02*
X69000Y-38825D01*
X69000Y-38825D02*
X69167Y-38825D01*
X69167Y-38825D02*
X69195Y-38853D01*
X69195Y-38853D02*
X69195Y-38937D01*
X69195Y-38937D02*
X69167Y-38964D01*
X69167Y-38964D02*
X69000Y-38964D01*
X69084Y-38964D02*
X69195Y-39075D01*
X69466Y-39075D02*
X69466Y-38825D01*
X69466Y-38825D02*
X69327Y-39020D01*
X69327Y-39020D02*
X69522Y-39020D01*
X60245Y-34598D02*
X60217Y-34625D01*
X60217Y-34625D02*
X60078Y-34625D01*
X60078Y-34625D02*
X60050Y-34598D01*
X60050Y-34598D02*
X60050Y-34403D01*
X60050Y-34403D02*
X60078Y-34375D01*
X60078Y-34375D02*
X60217Y-34375D01*
X60217Y-34375D02*
X60245Y-34403D01*
X60405Y-34625D02*
X60377Y-34598D01*
X60377Y-34598D02*
X60377Y-34514D01*
X60377Y-34514D02*
X60405Y-34487D01*
X60405Y-34487D02*
X60544Y-34487D01*
X60544Y-34487D02*
X60572Y-34459D01*
X60572Y-34459D02*
X60572Y-34403D01*
X60572Y-34403D02*
X60544Y-34375D01*
X60544Y-34375D02*
X60405Y-34375D01*
X60405Y-34375D02*
X60377Y-34403D01*
X60377Y-34403D02*
X60377Y-34459D01*
X60377Y-34459D02*
X60405Y-34487D01*
X60544Y-34487D02*
X60572Y-34514D01*
X60572Y-34514D02*
X60572Y-34598D01*
X60572Y-34598D02*
X60544Y-34625D01*
X60544Y-34625D02*
X60405Y-34625D01*
X49900Y-37925D02*
X49900Y-37675D01*
X49900Y-37675D02*
X50067Y-37675D01*
X50067Y-37675D02*
X50095Y-37703D01*
X50095Y-37703D02*
X50095Y-37787D01*
X50095Y-37787D02*
X50067Y-37814D01*
X50067Y-37814D02*
X49900Y-37814D01*
X49984Y-37814D02*
X50095Y-37925D01*
X50227Y-37870D02*
X50227Y-37898D01*
X50227Y-37898D02*
X50255Y-37925D01*
X50255Y-37925D02*
X50394Y-37925D01*
X50394Y-37925D02*
X50422Y-37898D01*
X50422Y-37898D02*
X50422Y-37814D01*
X50422Y-37814D02*
X50366Y-37759D01*
X50366Y-37759D02*
X50227Y-37759D01*
X50227Y-37759D02*
X50227Y-37675D01*
X50227Y-37675D02*
X50422Y-37675D01*
X50395Y-42098D02*
X50367Y-42125D01*
X50367Y-42125D02*
X50228Y-42125D01*
X50228Y-42125D02*
X50200Y-42098D01*
X50200Y-42098D02*
X50200Y-41903D01*
X50200Y-41903D02*
X50228Y-41875D01*
X50228Y-41875D02*
X50367Y-41875D01*
X50367Y-41875D02*
X50395Y-41903D01*
X50722Y-41903D02*
X50694Y-41875D01*
X50694Y-41875D02*
X50555Y-41875D01*
X50555Y-41875D02*
X50527Y-41903D01*
X50527Y-41903D02*
X50527Y-42098D01*
X50527Y-42098D02*
X50555Y-42125D01*
X50555Y-42125D02*
X50694Y-42125D01*
X50694Y-42125D02*
X50722Y-42098D01*
X50722Y-42098D02*
X50722Y-42014D01*
X50722Y-42014D02*
X50694Y-41987D01*
X50694Y-41987D02*
X50555Y-41987D01*
X50555Y-41987D02*
X50527Y-42014D01*
X70232Y-35148D02*
X70204Y-35175D01*
X70204Y-35175D02*
X70065Y-35175D01*
X70065Y-35175D02*
X70037Y-35148D01*
X70037Y-35148D02*
X70037Y-34953D01*
X70037Y-34953D02*
X70065Y-34925D01*
X70065Y-34925D02*
X70204Y-34925D01*
X70204Y-34925D02*
X70232Y-34953D01*
X70420Y-35175D02*
X70531Y-35175D01*
X70475Y-35175D02*
X70475Y-34925D01*
X70475Y-34953D02*
X70420Y-35009D01*
X70747Y-35175D02*
X70858Y-35175D01*
X70802Y-35175D02*
X70802Y-34925D01*
X70802Y-34953D02*
X70747Y-35009D01*
X54250Y-47675D02*
X54250Y-47425D01*
X54250Y-47425D02*
X54417Y-47425D01*
X54417Y-47425D02*
X54445Y-47453D01*
X54445Y-47453D02*
X54445Y-47537D01*
X54445Y-47537D02*
X54417Y-47564D01*
X54417Y-47564D02*
X54250Y-47564D01*
X54334Y-47564D02*
X54445Y-47675D01*
X54772Y-47675D02*
X54577Y-47675D01*
X54577Y-47675D02*
X54577Y-47592D01*
X54577Y-47592D02*
X54605Y-47564D01*
X54605Y-47564D02*
X54744Y-47564D01*
X54744Y-47564D02*
X54772Y-47537D01*
X54772Y-47537D02*
X54772Y-47453D01*
X54772Y-47453D02*
X54744Y-47425D01*
X54744Y-47425D02*
X54605Y-47425D01*
X54605Y-47425D02*
X54577Y-47453D01*
X51633Y-47850D02*
X51633Y-47550D01*
X51600Y-47550D02*
X51800Y-47550D01*
X51800Y-47550D02*
X51833Y-47584D01*
X51833Y-47584D02*
X51833Y-47817D01*
X51833Y-47817D02*
X51800Y-47850D01*
X51800Y-47850D02*
X51600Y-47850D01*
X52050Y-47850D02*
X52183Y-47850D01*
X52116Y-47850D02*
X52116Y-47550D01*
X52116Y-47584D02*
X52050Y-47650D01*
G54D36*
X51908Y-37306D02*
X51952Y-37350D01*
X51952Y-37350D02*
X52175Y-37350D01*
X52175Y-37350D02*
X52219Y-37306D01*
X52219Y-37306D02*
X52219Y-37173D01*
X52219Y-37173D02*
X52175Y-37128D01*
X52175Y-37128D02*
X51952Y-37128D01*
X51952Y-37128D02*
X51908Y-37084D01*
X51908Y-37084D02*
X51908Y-36995D01*
X51908Y-36995D02*
X51952Y-36950D01*
X51952Y-36950D02*
X52175Y-36950D01*
X52175Y-36950D02*
X52219Y-36995D01*
X52432Y-36950D02*
X52521Y-37350D01*
X52521Y-37350D02*
X52610Y-37217D01*
X52610Y-37217D02*
X52699Y-37350D01*
X52699Y-37350D02*
X52788Y-36950D01*
X53045Y-37350D02*
X53223Y-37350D01*
X53134Y-37350D02*
X53134Y-36950D01*
X53134Y-36995D02*
X53045Y-37084D01*
X51234Y-35150D02*
X51234Y-34750D01*
X51234Y-34750D02*
X51501Y-34750D01*
X51501Y-34750D02*
X51545Y-34795D01*
X51545Y-34795D02*
X51545Y-34928D01*
X51545Y-34928D02*
X51501Y-34973D01*
X51501Y-34973D02*
X51234Y-34973D01*
X51367Y-34973D02*
X51545Y-35150D01*
X52069Y-35150D02*
X51758Y-35150D01*
X51758Y-35150D02*
X51758Y-34750D01*
X51758Y-34750D02*
X52069Y-34750D01*
X51758Y-34928D02*
X51936Y-34928D01*
X52282Y-35106D02*
X52326Y-35150D01*
X52326Y-35150D02*
X52549Y-35150D01*
X52549Y-35150D02*
X52593Y-35106D01*
X52593Y-35106D02*
X52593Y-34973D01*
X52593Y-34973D02*
X52549Y-34928D01*
X52549Y-34928D02*
X52326Y-34928D01*
X52326Y-34928D02*
X52282Y-34884D01*
X52282Y-34884D02*
X52282Y-34795D01*
X52282Y-34795D02*
X52326Y-34750D01*
X52326Y-34750D02*
X52549Y-34750D01*
X52549Y-34750D02*
X52593Y-34795D01*
X53117Y-35150D02*
X52806Y-35150D01*
X52806Y-35150D02*
X52806Y-34750D01*
X52806Y-34750D02*
X53117Y-34750D01*
X52806Y-34928D02*
X52984Y-34928D01*
X53330Y-34750D02*
X53686Y-34750D01*
X53508Y-34750D02*
X53508Y-35150D01*
G54D32*
X51247Y-41350D02*
X51425Y-41350D01*
X51336Y-41350D02*
X51336Y-40950D01*
X51247Y-40950D02*
X51425Y-40950D01*
X52008Y-41306D02*
X51964Y-41350D01*
X51964Y-41350D02*
X51741Y-41350D01*
X51741Y-41350D02*
X51697Y-41306D01*
X51697Y-41306D02*
X51697Y-40995D01*
X51697Y-40995D02*
X51741Y-40950D01*
X51741Y-40950D02*
X51964Y-40950D01*
X51964Y-40950D02*
X52008Y-40995D01*
X52280Y-41350D02*
X52458Y-41350D01*
X52369Y-41350D02*
X52369Y-40950D01*
X52369Y-40995D02*
X52280Y-41084D01*
G54D36*
X50372Y-44850D02*
X50372Y-44450D01*
X50683Y-44850D02*
X50683Y-44450D01*
X50372Y-44673D02*
X50683Y-44673D01*
X50896Y-44450D02*
X51252Y-44450D01*
X51074Y-44450D02*
X51074Y-44850D01*
X51420Y-44450D02*
X51731Y-44450D01*
X51731Y-44450D02*
X51420Y-44850D01*
X51944Y-44762D02*
X51944Y-44806D01*
X51944Y-44806D02*
X51988Y-44850D01*
X51988Y-44850D02*
X52211Y-44850D01*
X52211Y-44850D02*
X52255Y-44806D01*
X52255Y-44806D02*
X52255Y-44673D01*
X52255Y-44673D02*
X52166Y-44584D01*
X52166Y-44584D02*
X51944Y-44584D01*
X51944Y-44584D02*
X51944Y-44450D01*
X51944Y-44450D02*
X52255Y-44450D01*
X52468Y-44850D02*
X52779Y-44450D01*
X52468Y-44450D02*
X52779Y-44850D01*
X52992Y-44850D02*
X53303Y-44450D01*
X52992Y-44450D02*
X53303Y-44850D01*
G54D32*
X63600Y-43050D02*
X63600Y-43406D01*
X63600Y-43406D02*
X63644Y-43450D01*
X63644Y-43450D02*
X63867Y-43450D01*
X63867Y-43450D02*
X63911Y-43406D01*
X63911Y-43406D02*
X63911Y-43050D01*
X64183Y-43450D02*
X64361Y-43450D01*
X64272Y-43450D02*
X64272Y-43050D01*
X64272Y-43095D02*
X64183Y-43184D01*
G54D36*
X59998Y-44600D02*
X59998Y-44100D01*
X59998Y-44100D02*
X60176Y-44323D01*
X60176Y-44323D02*
X60354Y-44100D01*
X60354Y-44100D02*
X60354Y-44600D01*
X60833Y-44600D02*
X60522Y-44600D01*
X60522Y-44600D02*
X60522Y-44100D01*
X60522Y-44100D02*
X60833Y-44100D01*
X60522Y-44323D02*
X60700Y-44323D01*
X61313Y-44156D02*
X61313Y-44100D01*
X61313Y-44100D02*
X61090Y-44100D01*
X61090Y-44100D02*
X61046Y-44156D01*
X61046Y-44156D02*
X61046Y-44545D01*
X61046Y-44545D02*
X61090Y-44600D01*
X61090Y-44600D02*
X61313Y-44600D01*
X61313Y-44600D02*
X61357Y-44545D01*
X61357Y-44545D02*
X61357Y-44378D01*
X61357Y-44378D02*
X61224Y-44378D01*
X61570Y-44600D02*
X61570Y-44212D01*
X61570Y-44212D02*
X61659Y-44100D01*
X61659Y-44100D02*
X61792Y-44100D01*
X61792Y-44100D02*
X61881Y-44212D01*
X61881Y-44212D02*
X61881Y-44600D01*
X61570Y-44323D02*
X61881Y-44323D01*
X62138Y-44600D02*
X62094Y-44545D01*
X62094Y-44545D02*
X62094Y-44378D01*
X62094Y-44378D02*
X62138Y-44323D01*
X62138Y-44323D02*
X62361Y-44323D01*
X62361Y-44323D02*
X62405Y-44267D01*
X62405Y-44267D02*
X62405Y-44156D01*
X62405Y-44156D02*
X62361Y-44100D01*
X62361Y-44100D02*
X62138Y-44100D01*
X62138Y-44100D02*
X62094Y-44156D01*
X62094Y-44156D02*
X62094Y-44267D01*
X62094Y-44267D02*
X62138Y-44323D01*
X62361Y-44323D02*
X62405Y-44378D01*
X62405Y-44378D02*
X62405Y-44545D01*
X62405Y-44545D02*
X62361Y-44600D01*
X62361Y-44600D02*
X62138Y-44600D01*
X62662Y-44378D02*
X62885Y-44378D01*
X63142Y-44600D02*
X63142Y-44212D01*
X63142Y-44212D02*
X63231Y-44100D01*
X63231Y-44100D02*
X63364Y-44100D01*
X63364Y-44100D02*
X63453Y-44212D01*
X63453Y-44212D02*
X63453Y-44600D01*
X63142Y-44323D02*
X63453Y-44323D01*
X63710Y-44600D02*
X63888Y-44600D01*
X63799Y-44600D02*
X63799Y-44100D01*
X63710Y-44100D02*
X63888Y-44100D01*
G54D23*
X61828Y-46750D02*
X61828Y-46284D01*
X61828Y-46284D02*
X61917Y-46150D01*
X61917Y-46150D02*
X62050Y-46150D01*
X62050Y-46150D02*
X62139Y-46284D01*
X62139Y-46284D02*
X62139Y-46750D01*
X61828Y-46417D02*
X62139Y-46417D01*
X62416Y-46750D02*
X62416Y-46150D01*
X62372Y-46150D02*
X62639Y-46150D01*
X62639Y-46150D02*
X62683Y-46217D01*
X62683Y-46217D02*
X62683Y-46684D01*
X62683Y-46684D02*
X62639Y-46750D01*
X62639Y-46750D02*
X62372Y-46750D01*
X63227Y-46684D02*
X63183Y-46750D01*
X63183Y-46750D02*
X62960Y-46750D01*
X62960Y-46750D02*
X62916Y-46684D01*
X62916Y-46684D02*
X62916Y-46217D01*
X62916Y-46217D02*
X62960Y-46150D01*
X62960Y-46150D02*
X63183Y-46150D01*
X63183Y-46150D02*
X63227Y-46217D01*
G54D37*
X65890Y-41775D02*
X66279Y-41325D01*
X65890Y-41325D02*
X66279Y-41775D01*
X66616Y-41775D02*
X66838Y-41775D01*
X66727Y-41775D02*
X66727Y-41325D01*
X66727Y-41375D02*
X66616Y-41475D01*
X68875Y-43508D02*
X68925Y-43564D01*
X68925Y-43564D02*
X68925Y-43841D01*
X68925Y-43841D02*
X68875Y-43897D01*
X68875Y-43897D02*
X68525Y-43897D01*
X68525Y-43897D02*
X68475Y-43841D01*
X68475Y-43841D02*
X68475Y-43564D01*
X68475Y-43564D02*
X68525Y-43508D01*
X68925Y-43282D02*
X68475Y-43282D01*
X68475Y-43282D02*
X68475Y-42949D01*
X68475Y-42949D02*
X68525Y-42893D01*
X68525Y-42893D02*
X68675Y-42893D01*
X68675Y-42893D02*
X68725Y-42949D01*
X68725Y-42949D02*
X68725Y-43282D01*
X68725Y-43115D02*
X68925Y-42893D01*
X68475Y-42667D02*
X68725Y-42445D01*
X68725Y-42445D02*
X68475Y-42222D01*
X68725Y-42445D02*
X68925Y-42445D01*
X68875Y-42052D02*
X68925Y-41996D01*
X68925Y-41996D02*
X68925Y-41719D01*
X68925Y-41719D02*
X68875Y-41663D01*
X68875Y-41663D02*
X68725Y-41663D01*
X68725Y-41663D02*
X68675Y-41719D01*
X68675Y-41719D02*
X68675Y-41996D01*
X68675Y-41996D02*
X68625Y-42052D01*
X68625Y-42052D02*
X68525Y-42052D01*
X68525Y-42052D02*
X68475Y-41996D01*
X68475Y-41996D02*
X68475Y-41719D01*
X68475Y-41719D02*
X68525Y-41663D01*
X68475Y-41437D02*
X68475Y-40992D01*
X68475Y-41215D02*
X68925Y-41215D01*
X68925Y-40822D02*
X68575Y-40822D01*
X68575Y-40822D02*
X68475Y-40711D01*
X68475Y-40711D02*
X68475Y-40544D01*
X68475Y-40544D02*
X68575Y-40433D01*
X68575Y-40433D02*
X68925Y-40433D01*
X68675Y-40822D02*
X68675Y-40433D01*
X68475Y-40207D02*
X68925Y-40207D01*
X68925Y-40207D02*
X68925Y-39762D01*
G54D32*
X69795Y-43298D02*
X69767Y-43325D01*
X69767Y-43325D02*
X69628Y-43325D01*
X69628Y-43325D02*
X69600Y-43298D01*
X69600Y-43298D02*
X69600Y-43103D01*
X69600Y-43103D02*
X69628Y-43075D01*
X69628Y-43075D02*
X69767Y-43075D01*
X69767Y-43075D02*
X69795Y-43103D01*
X69983Y-43325D02*
X70094Y-43325D01*
X70038Y-43325D02*
X70038Y-43075D01*
X70038Y-43103D02*
X69983Y-43159D01*
X69895Y-41348D02*
X69867Y-41375D01*
X69867Y-41375D02*
X69728Y-41375D01*
X69728Y-41375D02*
X69700Y-41348D01*
X69700Y-41348D02*
X69700Y-41153D01*
X69700Y-41153D02*
X69728Y-41125D01*
X69728Y-41125D02*
X69867Y-41125D01*
X69867Y-41125D02*
X69895Y-41153D01*
X70222Y-41375D02*
X70027Y-41375D01*
X70027Y-41375D02*
X70027Y-41292D01*
X70027Y-41292D02*
X70055Y-41264D01*
X70055Y-41264D02*
X70194Y-41264D01*
X70194Y-41264D02*
X70222Y-41237D01*
X70222Y-41237D02*
X70222Y-41153D01*
X70222Y-41153D02*
X70194Y-41125D01*
X70194Y-41125D02*
X70055Y-41125D01*
X70055Y-41125D02*
X70027Y-41153D01*
G54D10*
X76567Y-46670D02*
X76700Y-46603D01*
X76700Y-46603D02*
X76700Y-46470D01*
X76700Y-46470D02*
X76634Y-46403D01*
X76634Y-46403D02*
X76100Y-46403D01*
X76100Y-46536D02*
X76100Y-46270D01*
X76700Y-45750D02*
X76700Y-45484D01*
X76700Y-45617D02*
X76100Y-45617D01*
X76167Y-45617D02*
X76300Y-45750D01*
X79600Y-42246D02*
X79000Y-42246D01*
X79000Y-42313D02*
X79000Y-41913D01*
X79000Y-41913D02*
X79067Y-41846D01*
X79067Y-41846D02*
X79534Y-41846D01*
X79534Y-41846D02*
X79600Y-41913D01*
X79600Y-41913D02*
X79600Y-42313D01*
X79600Y-41527D02*
X79000Y-41527D01*
X79000Y-41527D02*
X79000Y-41127D01*
X79000Y-41127D02*
X79067Y-41060D01*
X79067Y-41060D02*
X79200Y-41060D01*
X79200Y-41060D02*
X79267Y-41127D01*
X79267Y-41127D02*
X79267Y-41527D01*
X79267Y-41127D02*
X79400Y-41060D01*
X79400Y-41060D02*
X79534Y-41060D01*
X79534Y-41060D02*
X79600Y-41127D01*
X79600Y-41127D02*
X79600Y-41527D01*
X79600Y-40674D02*
X79600Y-40341D01*
X79600Y-40341D02*
X79534Y-40274D01*
X79534Y-40274D02*
X79067Y-40274D01*
X79067Y-40274D02*
X79000Y-40341D01*
X79000Y-40341D02*
X79000Y-40674D01*
X79000Y-40674D02*
X79067Y-40741D01*
X79067Y-40741D02*
X79267Y-40741D01*
X79267Y-40741D02*
X79334Y-40674D01*
X79334Y-40674D02*
X79334Y-40341D01*
X79334Y-40341D02*
X79267Y-40274D01*
G54D32*
X71298Y-39568D02*
X71325Y-39596D01*
X71325Y-39596D02*
X71325Y-39735D01*
X71325Y-39735D02*
X71298Y-39763D01*
X71298Y-39763D02*
X71103Y-39763D01*
X71103Y-39763D02*
X71075Y-39735D01*
X71075Y-39735D02*
X71075Y-39596D01*
X71075Y-39596D02*
X71103Y-39568D01*
X71325Y-39380D02*
X71325Y-39269D01*
X71325Y-39325D02*
X71075Y-39325D01*
X71103Y-39325D02*
X71159Y-39380D01*
X71325Y-38914D02*
X71325Y-39109D01*
X71325Y-39109D02*
X71242Y-39109D01*
X71242Y-39109D02*
X71214Y-39081D01*
X71214Y-39081D02*
X71214Y-38942D01*
X71214Y-38942D02*
X71187Y-38914D01*
X71187Y-38914D02*
X71103Y-38914D01*
X71103Y-38914D02*
X71075Y-38942D01*
X71075Y-38942D02*
X71075Y-39081D01*
X71075Y-39081D02*
X71103Y-39109D01*
X71298Y-41018D02*
X71325Y-41046D01*
X71325Y-41046D02*
X71325Y-41185D01*
X71325Y-41185D02*
X71298Y-41213D01*
X71298Y-41213D02*
X71103Y-41213D01*
X71103Y-41213D02*
X71075Y-41185D01*
X71075Y-41185D02*
X71075Y-41046D01*
X71075Y-41046D02*
X71103Y-41018D01*
X71325Y-40830D02*
X71325Y-40719D01*
X71325Y-40775D02*
X71075Y-40775D01*
X71103Y-40775D02*
X71159Y-40830D01*
X71075Y-40559D02*
X71075Y-40364D01*
X71075Y-40364D02*
X71103Y-40364D01*
X71103Y-40364D02*
X71187Y-40475D01*
X71187Y-40475D02*
X71187Y-40392D01*
X71187Y-40392D02*
X71214Y-40364D01*
X71214Y-40364D02*
X71298Y-40364D01*
X71298Y-40364D02*
X71325Y-40392D01*
X71325Y-40392D02*
X71325Y-40531D01*
X71325Y-40531D02*
X71298Y-40559D01*
X76398Y-40818D02*
X76425Y-40846D01*
X76425Y-40846D02*
X76425Y-40985D01*
X76425Y-40985D02*
X76398Y-41013D01*
X76398Y-41013D02*
X76203Y-41013D01*
X76203Y-41013D02*
X76175Y-40985D01*
X76175Y-40985D02*
X76175Y-40846D01*
X76175Y-40846D02*
X76203Y-40818D01*
X76425Y-40630D02*
X76425Y-40519D01*
X76425Y-40575D02*
X76175Y-40575D01*
X76203Y-40575D02*
X76259Y-40630D01*
X76203Y-40164D02*
X76175Y-40192D01*
X76175Y-40192D02*
X76175Y-40331D01*
X76175Y-40331D02*
X76203Y-40359D01*
X76203Y-40359D02*
X76398Y-40359D01*
X76398Y-40359D02*
X76425Y-40331D01*
X76425Y-40331D02*
X76425Y-40192D01*
X76425Y-40192D02*
X76398Y-40164D01*
X76398Y-40164D02*
X76314Y-40164D01*
X76314Y-40164D02*
X76287Y-40192D01*
X76287Y-40192D02*
X76287Y-40331D01*
X76287Y-40331D02*
X76314Y-40359D01*
X71298Y-42468D02*
X71325Y-42496D01*
X71325Y-42496D02*
X71325Y-42635D01*
X71325Y-42635D02*
X71298Y-42663D01*
X71298Y-42663D02*
X71103Y-42663D01*
X71103Y-42663D02*
X71075Y-42635D01*
X71075Y-42635D02*
X71075Y-42496D01*
X71075Y-42496D02*
X71103Y-42468D01*
X71325Y-42280D02*
X71325Y-42169D01*
X71325Y-42225D02*
X71075Y-42225D01*
X71103Y-42225D02*
X71159Y-42280D01*
X71270Y-42009D02*
X71298Y-42009D01*
X71298Y-42009D02*
X71325Y-41981D01*
X71325Y-41981D02*
X71325Y-41842D01*
X71325Y-41842D02*
X71298Y-41814D01*
X71298Y-41814D02*
X71214Y-41814D01*
X71214Y-41814D02*
X71159Y-41870D01*
X71159Y-41870D02*
X71159Y-42009D01*
X71159Y-42009D02*
X71075Y-42009D01*
X71075Y-42009D02*
X71075Y-41814D01*
X73732Y-37298D02*
X73704Y-37325D01*
X73704Y-37325D02*
X73565Y-37325D01*
X73565Y-37325D02*
X73537Y-37298D01*
X73537Y-37298D02*
X73537Y-37103D01*
X73537Y-37103D02*
X73565Y-37075D01*
X73565Y-37075D02*
X73704Y-37075D01*
X73704Y-37075D02*
X73732Y-37103D01*
X73920Y-37325D02*
X74031Y-37325D01*
X73975Y-37325D02*
X73975Y-37075D01*
X73975Y-37103D02*
X73920Y-37159D01*
X74330Y-37325D02*
X74330Y-37075D01*
X74330Y-37075D02*
X74191Y-37270D01*
X74191Y-37270D02*
X74386Y-37270D01*
G54D36*
X74300Y-41280D02*
X74656Y-41280D01*
X74656Y-41280D02*
X74700Y-41236D01*
X74700Y-41236D02*
X74700Y-41013D01*
X74700Y-41013D02*
X74656Y-40969D01*
X74656Y-40969D02*
X74300Y-40969D01*
X74300Y-40756D02*
X74300Y-40445D01*
X74300Y-40445D02*
X74345Y-40445D01*
X74345Y-40445D02*
X74478Y-40623D01*
X74478Y-40623D02*
X74478Y-40489D01*
X74478Y-40489D02*
X74523Y-40445D01*
X74523Y-40445D02*
X74656Y-40445D01*
X74656Y-40445D02*
X74700Y-40489D01*
X74700Y-40489D02*
X74700Y-40712D01*
X74700Y-40712D02*
X74656Y-40756D01*
X73900Y-42178D02*
X73500Y-42178D01*
X73500Y-42178D02*
X73678Y-42000D01*
X73678Y-42000D02*
X73500Y-41822D01*
X73500Y-41822D02*
X73900Y-41822D01*
X73900Y-41654D02*
X73589Y-41654D01*
X73589Y-41654D02*
X73500Y-41565D01*
X73500Y-41565D02*
X73500Y-41432D01*
X73500Y-41432D02*
X73589Y-41343D01*
X73589Y-41343D02*
X73900Y-41343D01*
X73678Y-41654D02*
X73678Y-41343D01*
X73900Y-41130D02*
X73500Y-40819D01*
X73500Y-41130D02*
X73900Y-40819D01*
X73900Y-40295D02*
X73900Y-40606D01*
X73900Y-40606D02*
X73767Y-40606D01*
X73767Y-40606D02*
X73723Y-40562D01*
X73723Y-40562D02*
X73723Y-40339D01*
X73723Y-40339D02*
X73678Y-40295D01*
X73678Y-40295D02*
X73545Y-40295D01*
X73545Y-40295D02*
X73500Y-40339D01*
X73500Y-40339D02*
X73500Y-40562D01*
X73500Y-40562D02*
X73545Y-40606D01*
X73500Y-40082D02*
X73500Y-39771D01*
X73500Y-39771D02*
X73545Y-39771D01*
X73545Y-39771D02*
X73678Y-39949D01*
X73678Y-39949D02*
X73678Y-39815D01*
X73678Y-39815D02*
X73723Y-39771D01*
X73723Y-39771D02*
X73856Y-39771D01*
X73856Y-39771D02*
X73900Y-39815D01*
X73900Y-39815D02*
X73900Y-40038D01*
X73900Y-40038D02*
X73856Y-40082D01*
X73900Y-39247D02*
X73900Y-39558D01*
X73900Y-39558D02*
X73767Y-39558D01*
X73767Y-39558D02*
X73723Y-39514D01*
X73723Y-39514D02*
X73723Y-39291D01*
X73723Y-39291D02*
X73678Y-39247D01*
X73678Y-39247D02*
X73545Y-39247D01*
X73545Y-39247D02*
X73500Y-39291D01*
X73500Y-39291D02*
X73500Y-39514D01*
X73500Y-39514D02*
X73545Y-39558D01*
M02*
